AddisAbiy-Regular.ufo
<glyph name="exclam" format="2">
  <advance width="231"/>
  <unicode hex="0021"/>
  <note>
exclam
</note>
  <outline>
    <contour>
      <point x="93" y="183" type="line"/>
      <point x="138" y="183" type="line"/>
      <point x="163" y="494" type="line"/>
      <point x="163" y="494" type="line"/>
      <point x="163" y="714" type="line"/>
      <point x="68" y="714" type="line"/>
      <point x="68" y="494" type="line"/>
      <point x="93" y="183" type="line"/>
      <point x="93" y="183" type="line"/>
    </contour>
    <contour>
      <point x="60" y="0" type="line"/>
      <point x="171" y="0" type="line"/>
      <point x="171" y="111" type="line"/>
      <point x="60" y="111" type="line"/>
      <point x="60" y="111" type="line"/>
      <point x="60" y="0" type="line"/>
      <point x="60" y="0" type="line"/>
    </contour>
  </outline>
</glyph>
<glyph name="quotedbl" format="2">
  <advance width="600"/>
  <unicode hex="0022"/>
  <outline>
    <contour>
      <point x="325" y="452" type="curve" smooth="yes"/>
      <point x="349" y="452" type="line" smooth="yes"/>
      <point x="363" y="452"/>
      <point x="373" y="462"/>
      <point x="373" y="476" type="curve" smooth="yes"/>
      <point x="373" y="676" type="line" smooth="yes"/>
      <point x="373" y="690"/>
      <point x="363" y="700"/>
      <point x="349" y="700" type="curve" smooth="yes"/>
      <point x="325" y="700" type="line" smooth="yes"/>
      <point x="311" y="700"/>
      <point x="301" y="690"/>
      <point x="301" y="676" type="curve" smooth="yes"/>
      <point x="301" y="476" type="line" smooth="yes"/>
      <point x="301" y="462"/>
      <point x="311" y="452"/>
    </contour>
    <contour>
      <point x="195" y="452" type="curve" smooth="yes"/>
      <point x="219" y="452" type="line" smooth="yes"/>
      <point x="233" y="452"/>
      <point x="243" y="462"/>
      <point x="243" y="476" type="curve" smooth="yes"/>
      <point x="243" y="676" type="line" smooth="yes"/>
      <point x="243" y="690"/>
      <point x="233" y="700"/>
      <point x="219" y="700" type="curve" smooth="yes"/>
      <point x="195" y="700" type="line" smooth="yes"/>
      <point x="181" y="700"/>
      <point x="171" y="690"/>
      <point x="171" y="676" type="curve" smooth="yes"/>
      <point x="171" y="476" type="line" smooth="yes"/>
      <point x="171" y="462"/>
      <point x="181" y="452"/>
    </contour>
  </outline>
</glyph>
<glyph name="numbersign" format="2">
  <advance width="568"/>
  <unicode hex="0023"/>
  <note>
numbersign
</note>
  <outline>
    <contour>
      <point x="108" y="0" type="line"/>
      <point x="177" y="0" type="line"/>
      <point x="206" y="206" type="line"/>
      <point x="330" y="206" type="line"/>
      <point x="301" y="0" type="line"/>
      <point x="370" y="0" type="line"/>
      <point x="399" y="206" type="line"/>
      <point x="500" y="206" type="line"/>
      <point x="500" y="274" type="line"/>
      <point x="409" y="274" type="line"/>
      <point x="430" y="424" type="line"/>
      <point x="528" y="424" type="line"/>
      <point x="528" y="492" type="line"/>
      <point x="439" y="492" type="line"/>
      <point x="468" y="697" type="line"/>
      <point x="399" y="697" type="line"/>
      <point x="370" y="492" type="line"/>
      <point x="246" y="492" type="line"/>
      <point x="275" y="697" type="line"/>
      <point x="206" y="697" type="line"/>
      <point x="177" y="492" type="line"/>
      <point x="66" y="492" type="line"/>
      <point x="66" y="424" type="line"/>
      <point x="168" y="424" type="line"/>
      <point x="147" y="274" type="line"/>
      <point x="40" y="274" type="line"/>
      <point x="40" y="206" type="line"/>
      <point x="137" y="206" type="line"/>
      <point x="137" y="206" type="line"/>
      <point x="108" y="0" type="line"/>
      <point x="108" y="0" type="line"/>
    </contour>
    <contour>
      <point x="216" y="274" type="line"/>
      <point x="237" y="424" type="line"/>
      <point x="237" y="424" type="line"/>
      <point x="361" y="424" type="line"/>
      <point x="340" y="274" type="line"/>
      <point x="216" y="274" type="line"/>
      <point x="216" y="274" type="line"/>
    </contour>
  </outline>
</glyph>
<glyph name="dollar" format="2">
  <advance width="423"/>
  <unicode hex="0024"/>
  <outline>
    <contour>
      <point x="189" y="-73" type="line"/>
      <point x="238" y="-73" type="line"/>
      <point x="238" y="14" type="line"/>
      <point x="317" y="26"/>
      <point x="363" y="93"/>
      <point x="363" y="197" type="curve" smooth="yes"/>
      <point x="363" y="296"/>
      <point x="323" y="353"/>
      <point x="231" y="395" type="curve" smooth="yes"/>
      <point x="164" y="425"/>
      <point x="139" y="455"/>
      <point x="139" y="520" type="curve" smooth="yes"/>
      <point x="139" y="587"/>
      <point x="166" y="626"/>
      <point x="219" y="626" type="curve" smooth="yes"/>
      <point x="267" y="626"/>
      <point x="299" y="572"/>
      <point x="299" y="486" type="curve"/>
      <point x="359" y="486" type="line"/>
      <point x="359" y="611"/>
      <point x="316" y="683"/>
      <point x="243" y="700" type="curve"/>
      <point x="243" y="800" type="line"/>
      <point x="195" y="800" type="line"/>
      <point x="195" y="700" type="line"/>
      <point x="122" y="687"/>
      <point x="78" y="619"/>
      <point x="78" y="519" type="curve" smooth="yes"/>
      <point x="78" y="421"/>
      <point x="119" y="358"/>
      <point x="211" y="319" type="curve" smooth="yes"/>
      <point x="278" y="287"/>
      <point x="302" y="250"/>
      <point x="302" y="196" type="curve" smooth="yes"/>
      <point x="302" y="128"/>
      <point x="268" y="87"/>
      <point x="211" y="87" type="curve" smooth="yes"/>
      <point x="154" y="87"/>
      <point x="121" y="135"/>
      <point x="121" y="221" type="curve"/>
      <point x="60" y="221" type="line"/>
      <point x="60" y="99"/>
      <point x="108" y="23"/>
      <point x="189" y="14" type="curve"/>
    </contour>
  </outline>
</glyph>
<glyph name="percent" format="2">
  <advance width="598"/>
  <unicode hex="0025"/>
  <outline>
    <contour>
      <point x="180" y="382" type="curve" smooth="yes"/>
      <point x="248" y="382"/>
      <point x="304" y="439"/>
      <point x="304" y="508" type="curve" smooth="yes"/>
      <point x="304" y="577"/>
      <point x="248" y="634"/>
      <point x="180" y="634" type="curve" smooth="yes"/>
      <point x="112" y="634"/>
      <point x="57" y="577"/>
      <point x="57" y="508" type="curve" smooth="yes"/>
      <point x="57" y="439"/>
      <point x="112" y="382"/>
    </contour>
    <contour>
      <point x="448" y="74" type="curve" smooth="yes"/>
      <point x="511" y="74"/>
      <point x="561" y="126"/>
      <point x="561" y="188" type="curve" smooth="yes"/>
      <point x="561" y="251"/>
      <point x="511" y="303"/>
      <point x="448" y="303" type="curve" smooth="yes"/>
      <point x="387" y="303"/>
      <point x="336" y="251"/>
      <point x="336" y="188" type="curve" smooth="yes"/>
      <point x="336" y="126"/>
      <point x="387" y="74"/>
    </contour>
    <contour>
      <point x="448" y="135" type="curve" smooth="yes"/>
      <point x="419" y="135"/>
      <point x="396" y="159"/>
      <point x="396" y="188" type="curve" smooth="yes"/>
      <point x="396" y="218"/>
      <point x="419" y="242"/>
      <point x="448" y="242" type="curve" smooth="yes"/>
      <point x="479" y="242"/>
      <point x="501" y="218"/>
      <point x="501" y="188" type="curve" smooth="yes"/>
      <point x="501" y="159"/>
      <point x="479" y="135"/>
    </contour>
    <contour>
      <point x="180" y="450" type="curve" smooth="yes"/>
      <point x="147" y="450"/>
      <point x="122" y="476"/>
      <point x="122" y="508" type="curve" smooth="yes"/>
      <point x="122" y="541"/>
      <point x="147" y="567"/>
      <point x="180" y="567" type="curve" smooth="yes"/>
      <point x="213" y="567"/>
      <point x="238" y="541"/>
      <point x="238" y="508" type="curve" smooth="yes"/>
      <point x="238" y="476"/>
      <point x="213" y="450"/>
    </contour>
    <component base="_diagonal.long" xScale="-0.99619" xyScale="-0.08716" yxScale="-0.08716" yScale="0.99619" xOffset="636" yOffset="25"/>
  </outline>
</glyph>
<glyph name="ampersand" format="2">
  <advance width="600"/>
  <unicode hex="0026"/>
  <outline>
    <contour>
      <point x="295" y="0" type="curve" smooth="yes"/>
      <point x="355" y="0"/>
      <point x="417" y="22"/>
      <point x="459" y="63" type="curve"/>
      <point x="501" y="10" type="line"/>
      <point x="598" y="10" type="line"/>
      <point x="507" y="125" type="line"/>
      <point x="544" y="177"/>
      <point x="562" y="243"/>
      <point x="562" y="321" type="curve"/>
      <point x="524" y="321" type="line"/>
      <point x="524" y="241"/>
      <point x="497" y="198"/>
      <point x="477" y="158" type="curve"/>
      <point x="317" y="372" type="line"/>
      <point x="364" y="409" type="line" smooth="yes"/>
      <point x="428" y="460"/>
      <point x="451" y="496"/>
      <point x="451" y="550" type="curve" smooth="yes"/>
      <point x="451" y="633"/>
      <point x="388" y="693"/>
      <point x="300" y="693" type="curve" smooth="yes"/>
      <point x="202" y="693"/>
      <point x="142" y="632"/>
      <point x="142" y="529" type="curve" smooth="yes"/>
      <point x="142" y="484"/>
      <point x="157" y="447"/>
      <point x="213" y="375" type="curve"/>
      <point x="117" y="303"/>
      <point x="90" y="255"/>
      <point x="90" y="191" type="curve" smooth="yes"/>
      <point x="90" y="76"/>
      <point x="171" y="0"/>
    </contour>
    <contour>
      <point x="296" y="50" type="curve" smooth="yes"/>
      <point x="206" y="50"/>
      <point x="151" y="106"/>
      <point x="151" y="190" type="curve" smooth="yes"/>
      <point x="151" y="237"/>
      <point x="177" y="284"/>
      <point x="235" y="326" type="curve" smooth="yes"/>
      <point x="253" y="339" type="line"/>
      <point x="431" y="110" type="line"/>
      <point x="391" y="71"/>
      <point x="345" y="50"/>
    </contour>
    <contour>
      <point x="275" y="414" type="line"/>
      <point x="234" y="464"/>
      <point x="210" y="509"/>
      <point x="210" y="542" type="curve" smooth="yes"/>
      <point x="210" y="604"/>
      <point x="245" y="648"/>
      <point x="300" y="648" type="curve" smooth="yes"/>
      <point x="351" y="648"/>
      <point x="389" y="612"/>
      <point x="389" y="565" type="curve" smooth="yes"/>
      <point x="389" y="519"/>
      <point x="380" y="492"/>
      <point x="334" y="458" type="curve" smooth="yes"/>
      <point x="275" y="414" type="line"/>
      <point x="275" y="414" type="line"/>
    </contour>
  </outline>
</glyph>
<glyph name="quotesingle" format="2">
  <advance width="600"/>
  <unicode hex="0027"/>
  <outline>
    <contour>
      <point x="295" y="452" type="curve" smooth="yes"/>
      <point x="319" y="452" type="line" smooth="yes"/>
      <point x="333" y="452"/>
      <point x="343" y="462"/>
      <point x="343" y="476" type="curve" smooth="yes"/>
      <point x="343" y="676" type="line" smooth="yes"/>
      <point x="343" y="690"/>
      <point x="333" y="700"/>
      <point x="319" y="700" type="curve" smooth="yes"/>
      <point x="295" y="700" type="line" smooth="yes"/>
      <point x="281" y="700"/>
      <point x="271" y="690"/>
      <point x="271" y="676" type="curve" smooth="yes"/>
      <point x="271" y="476" type="line" smooth="yes"/>
      <point x="271" y="462"/>
      <point x="281" y="452"/>
    </contour>
  </outline>
</glyph>
<glyph name="parenleft" format="2">
  <advance width="293"/>
  <unicode hex="0028"/>
  <outline>
    <contour>
      <point x="161" y="-139" type="line"/>
      <point x="241" y="-139" type="line"/>
      <point x="137" y="275" type="line" smooth="yes"/>
      <point x="131" y="298"/>
      <point x="137" y="323"/>
      <point x="138" y="325" type="curve"/>
      <point x="241" y="700" type="line"/>
      <point x="161" y="700" type="line"/>
      <point x="66" y="365" type="line" smooth="yes"/>
      <point x="53" y="318"/>
      <point x="64" y="267"/>
      <point x="65" y="265" type="curve"/>
      <point x="161" y="-139" type="line"/>
      <point x="161" y="-139" type="line"/>
    </contour>
  </outline>
</glyph>
<glyph name="parenright" format="2">
  <advance width="281"/>
  <unicode hex="0029"/>
  <outline>
    <contour>
      <point x="40" y="-139" type="line"/>
      <point x="120" y="-139" type="line"/>
      <point x="216" y="265" type="line"/>
      <point x="217" y="267"/>
      <point x="228" y="318"/>
      <point x="215" y="365" type="curve" smooth="yes"/>
      <point x="120" y="700" type="line"/>
      <point x="40" y="700" type="line"/>
      <point x="143" y="325" type="line"/>
      <point x="144" y="323"/>
      <point x="150" y="298"/>
      <point x="144" y="275" type="curve" smooth="yes"/>
      <point x="40" y="-139" type="line"/>
      <point x="40" y="-139" type="line"/>
    </contour>
  </outline>
</glyph>
<glyph name="asterisk" format="2">
  <advance width="384"/>
  <unicode hex="002A"/>
  <note>
asterisk
</note>
  <outline>
    <contour>
      <point x="126" y="433" type="line"/>
      <point x="191" y="529" type="line"/>
      <point x="260" y="433" type="line"/>
      <point x="301" y="464" type="line"/>
      <point x="235" y="555" type="line"/>
      <point x="344" y="593" type="line"/>
      <point x="324" y="641" type="line"/>
      <point x="217" y="601" type="line"/>
      <point x="217" y="601" type="line"/>
      <point x="217" y="714" type="line"/>
      <point x="164" y="714" type="line"/>
      <point x="164" y="601" type="line"/>
      <point x="58" y="641" type="line"/>
      <point x="40" y="593" type="line"/>
      <point x="146" y="555" type="line"/>
      <point x="81" y="464" type="line"/>
      <point x="126" y="433" type="line"/>
      <point x="126" y="433" type="line"/>
    </contour>
  </outline>
</glyph>
<glyph name="plus" format="2">
  <advance width="596"/>
  <unicode hex="002B"/>
  <outline>
    <contour>
      <point x="266" y="20" type="line"/>
      <point x="341" y="20" type="line"/>
      <point x="341" y="528" type="line"/>
      <point x="266" y="528" type="line"/>
      <point x="266" y="20" type="line"/>
      <point x="266" y="20" type="line"/>
    </contour>
    <contour>
      <point x="97" y="252" type="line"/>
      <point x="496" y="252" type="line"/>
      <point x="496" y="316" type="line"/>
      <point x="97" y="316" type="line"/>
      <point x="97" y="252" type="line"/>
      <point x="97" y="252" type="line"/>
    </contour>
  </outline>
</glyph>
<glyph name="comma" format="2">
  <advance width="254"/>
  <unicode hex="002C"/>
  <outline>
    <contour>
      <point x="76" y="-122" type="line"/>
      <point x="154" y="107" type="line"/>
      <point x="88" y="120" type="line"/>
      <point x="30" y="-89" type="line"/>
    </contour>
  </outline>
</glyph>
<glyph name="slash" format="2">
  <advance width="448"/>
  <unicode hex="002F"/>
  <note>
slash
</note>
  <outline>
    <contour>
      <point x="40" y="-16" type="line"/>
      <point x="112" y="-16" type="line"/>
      <point x="408" y="731" type="line"/>
      <point x="335" y="731" type="line"/>
      <point x="335" y="731" type="line"/>
      <point x="40" y="-16" type="line"/>
      <point x="40" y="-16" type="line"/>
    </contour>
  </outline>
</glyph>
<glyph name="zero" format="2">
  <advance width="498"/>
  <unicode hex="0030"/>
  <outline>
    <contour>
      <point x="371" y="-1" type="line"/>
      <point x="435" y="-1"/>
      <point x="448" y="47"/>
      <point x="448" y="68" type="curve" smooth="yes"/>
      <point x="448" y="634" type="line" smooth="yes"/>
      <point x="448" y="671"/>
      <point x="419" y="700"/>
      <point x="348" y="700" type="curve" smooth="yes"/>
      <point x="140" y="700" type="line" smooth="yes"/>
      <point x="66" y="700"/>
      <point x="50" y="674"/>
      <point x="50" y="634" type="curve" smooth="yes"/>
      <point x="50" y="64" type="line" smooth="yes"/>
      <point x="50" y="30"/>
      <point x="72" y="0"/>
      <point x="134" y="0" type="curve" smooth="yes"/>
      <point x="371" y="-1" type="line"/>
      <point x="371" y="-1" type="line"/>
    </contour>
    <contour>
      <point x="142" y="53" type="line"/>
      <point x="136" y="53"/>
      <point x="132" y="57"/>
      <point x="132" y="70" type="curve" smooth="yes"/>
      <point x="132" y="631" type="line" smooth="yes"/>
      <point x="132" y="643"/>
      <point x="135" y="647"/>
      <point x="142" y="647" type="curve" smooth="yes"/>
      <point x="354" y="647" type="line" smooth="yes"/>
      <point x="363" y="647"/>
      <point x="367" y="643"/>
      <point x="367" y="631" type="curve" smooth="yes"/>
      <point x="367" y="70" type="line" smooth="yes"/>
      <point x="367" y="57"/>
      <point x="364" y="53"/>
      <point x="354" y="53" type="curve" smooth="yes"/>
      <point x="142" y="53" type="line"/>
      <point x="142" y="53" type="line"/>
    </contour>
  </outline>
</glyph>
<glyph name="one" format="2">
  <advance width="219"/>
  <unicode hex="0031"/>
  <outline>
    <contour>
      <point x="87" y="0" type="line"/>
      <point x="168" y="0" type="line"/>
      <point x="169" y="700" type="line"/>
      <point x="87" y="700" type="line"/>
      <point x="87" y="0" type="line"/>
      <point x="87" y="0" type="line"/>
    </contour>
    <contour>
      <point x="74" y="628" type="curve" smooth="yes"/>
      <point x="88" y="628" type="line"/>
      <point x="88" y="700" type="line"/>
      <point x="74" y="700" type="line" smooth="yes"/>
      <point x="60" y="700"/>
      <point x="50" y="690"/>
      <point x="50" y="676" type="curve" smooth="yes"/>
      <point x="50" y="652" type="line" smooth="yes"/>
      <point x="50" y="638"/>
      <point x="60" y="628"/>
    </contour>
  </outline>
</glyph>
<glyph name="two" format="2">
  <advance width="517"/>
  <unicode hex="0032"/>
  <outline>
    <contour>
      <point x="410" y="-1" type="line" smooth="yes"/>
      <point x="474" y="-1"/>
      <point x="487" y="47"/>
      <point x="487" y="68" type="curve" smooth="yes"/>
      <point x="487" y="93" type="line"/>
      <point x="406" y="92" type="line"/>
      <point x="406" y="70" type="line" smooth="yes"/>
      <point x="406" y="57"/>
      <point x="403" y="53"/>
      <point x="393" y="53" type="curve" smooth="yes"/>
      <point x="151" y="53" type="line" smooth="yes"/>
      <point x="145" y="53"/>
      <point x="136" y="64"/>
      <point x="136" y="76" type="curve"/>
      <point x="136" y="241" type="line" smooth="yes"/>
      <point x="136" y="273"/>
      <point x="139" y="286"/>
      <point x="147" y="291" type="curve" smooth="yes"/>
      <point x="441" y="484" type="line" smooth="yes"/>
      <point x="444" y="486"/>
      <point x="457" y="501"/>
      <point x="457" y="516" type="curve" smooth="yes"/>
      <point x="457" y="634" type="line" smooth="yes"/>
      <point x="457" y="671"/>
      <point x="428" y="700"/>
      <point x="357" y="700" type="curve" smooth="yes"/>
      <point x="149" y="700" type="line" smooth="yes"/>
      <point x="75" y="700"/>
      <point x="60" y="674"/>
      <point x="60" y="634" type="curve" smooth="yes"/>
      <point x="60" y="614" type="line"/>
      <point x="141" y="613" type="line"/>
      <point x="141" y="631" type="line" smooth="yes"/>
      <point x="141" y="643"/>
      <point x="144" y="647"/>
      <point x="151" y="647" type="curve" smooth="yes"/>
      <point x="363" y="647" type="line" smooth="yes"/>
      <point x="372" y="647"/>
      <point x="376" y="643"/>
      <point x="376" y="631" type="curve" smooth="yes"/>
      <point x="376" y="517" type="line" smooth="yes"/>
      <point x="376" y="501"/>
      <point x="373" y="494"/>
      <point x="370" y="492" type="curve" smooth="yes"/>
      <point x="77" y="302" type="line" smooth="yes"/>
      <point x="62" y="292"/>
      <point x="61" y="272"/>
      <point x="61" y="239" type="curve" smooth="yes"/>
      <point x="61" y="66" type="line" smooth="yes"/>
      <point x="61" y="8"/>
      <point x="86" y="0"/>
      <point x="143" y="0" type="curve" smooth="yes"/>
    </contour>
  </outline>
</glyph>
<glyph name="three" format="2">
  <advance width="497"/>
  <unicode hex="0033"/>
  <outline>
    <contour>
      <point x="370" y="-1" type="line"/>
      <point x="434" y="-1"/>
      <point x="447" y="47"/>
      <point x="447" y="68" type="curve" smooth="yes"/>
      <point x="447" y="634" type="line" smooth="yes"/>
      <point x="447" y="671"/>
      <point x="418" y="700"/>
      <point x="347" y="700" type="curve" smooth="yes"/>
      <point x="139" y="700" type="line" smooth="yes"/>
      <point x="65" y="700"/>
      <point x="50" y="674"/>
      <point x="50" y="634" type="curve" smooth="yes"/>
      <point x="50" y="620"/>
      <point x="61" y="610"/>
      <point x="75" y="610" type="curve" smooth="yes"/>
      <point x="107" y="611" type="line" smooth="yes"/>
      <point x="121" y="611"/>
      <point x="131" y="620"/>
      <point x="131" y="631" type="curve" smooth="yes"/>
      <point x="131" y="643"/>
      <point x="134" y="647"/>
      <point x="141" y="647" type="curve" smooth="yes"/>
      <point x="353" y="647" type="line" smooth="yes"/>
      <point x="362" y="647"/>
      <point x="366" y="643"/>
      <point x="366" y="631" type="curve" smooth="yes"/>
      <point x="366" y="70" type="line" smooth="yes"/>
      <point x="366" y="57"/>
      <point x="363" y="53"/>
      <point x="353" y="53" type="curve" smooth="yes"/>
      <point x="141" y="53" type="line" smooth="yes"/>
      <point x="135" y="53"/>
      <point x="131" y="57"/>
      <point x="131" y="70" type="curve" smooth="yes"/>
      <point x="131" y="79"/>
      <point x="121" y="85"/>
      <point x="107" y="85" type="curve" smooth="yes"/>
      <point x="75" y="86" type="line" smooth="yes"/>
      <point x="61" y="86"/>
      <point x="50" y="76"/>
      <point x="50" y="64" type="curve" smooth="yes"/>
      <point x="50" y="30"/>
      <point x="71" y="0"/>
      <point x="133" y="0" type="curve" smooth="yes"/>
      <point x="370" y="-1" type="line"/>
      <point x="370" y="-1" type="line"/>
    </contour>
    <component base="_bar.part" xOffset="-714"/>
  </outline>
</glyph>
<glyph name="four" format="2">
  <advance width="541"/>
  <unicode hex="0034"/>
  <outline>
    <contour>
      <point x="340" y="-1" type="curve" smooth="yes"/>
      <point x="342" y="-1" type="line" smooth="yes"/>
      <point x="406" y="-1"/>
      <point x="419" y="47"/>
      <point x="419" y="68" type="curve" smooth="yes"/>
      <point x="419" y="260" type="line"/>
      <point x="467" y="260" type="line" smooth="yes"/>
      <point x="481" y="260"/>
      <point x="491" y="270"/>
      <point x="491" y="284" type="curve" smooth="yes"/>
      <point x="491" y="298"/>
      <point x="481" y="308"/>
      <point x="467" y="308" type="curve" smooth="yes"/>
      <point x="419" y="308" type="line"/>
      <point x="419" y="368" type="line" smooth="yes"/>
      <point x="419" y="382"/>
      <point x="409" y="392"/>
      <point x="395" y="392" type="curve" smooth="yes"/>
      <point x="362" y="392" type="line" smooth="yes"/>
      <point x="348" y="392"/>
      <point x="338" y="382"/>
      <point x="338" y="368" type="curve" smooth="yes"/>
      <point x="338" y="308" type="line"/>
      <point x="132" y="308" type="line"/>
      <point x="132" y="371" type="line"/>
      <point x="380" y="644" type="line" smooth="yes"/>
      <point x="403" y="669"/>
      <point x="391" y="683"/>
      <point x="381" y="692" type="curve" smooth="yes"/>
      <point x="371" y="702"/>
      <point x="356" y="702"/>
      <point x="347" y="692" type="curve" smooth="yes"/>
      <point x="132" y="456" type="line"/>
      <point x="56" y="378" type="line"/>
      <point x="53" y="374"/>
      <point x="50" y="367"/>
      <point x="50" y="362" type="curve" smooth="yes"/>
      <point x="50" y="281" type="line" smooth="yes"/>
      <point x="50" y="269"/>
      <point x="61" y="260"/>
      <point x="74" y="260" type="curve" smooth="yes"/>
      <point x="338" y="260" type="line"/>
      <point x="338" y="70" type="line" smooth="yes"/>
      <point x="338" y="66"/>
      <point x="333" y="63"/>
      <point x="328" y="61" type="curve" smooth="yes"/>
      <point x="320" y="58"/>
      <point x="314" y="49"/>
      <point x="315" y="40" type="curve" smooth="yes"/>
      <point x="316" y="23" type="line" smooth="yes"/>
      <point x="317" y="9"/>
      <point x="326" y="-1"/>
    </contour>
  </outline>
</glyph>
<glyph name="five" format="2">
  <advance width="497"/>
  <unicode hex="0035"/>
  <outline>
    <contour>
      <point x="127" y="-1" type="curve" smooth="yes"/>
      <point x="364" y="0" type="line" smooth="yes"/>
      <point x="421" y="0"/>
      <point x="446" y="8"/>
      <point x="446" y="66" type="curve" smooth="yes"/>
      <point x="446" y="274" type="line" smooth="yes"/>
      <point x="446" y="295"/>
      <point x="443" y="318"/>
      <point x="418" y="318" type="curve" smooth="yes"/>
      <point x="155" y="319" type="line" smooth="yes"/>
      <point x="141" y="319"/>
      <point x="131" y="329"/>
      <point x="131" y="343" type="curve" smooth="yes"/>
      <point x="131" y="631" type="line" smooth="yes"/>
      <point x="131" y="643"/>
      <point x="135" y="647"/>
      <point x="144" y="647" type="curve" smooth="yes"/>
      <point x="356" y="647" type="line" smooth="yes"/>
      <point x="363" y="647"/>
      <point x="366" y="643"/>
      <point x="366" y="631" type="curve" smooth="yes"/>
      <point x="366" y="621"/>
      <point x="377" y="613"/>
      <point x="391" y="613" type="curve" smooth="yes"/>
      <point x="423" y="614" type="line" smooth="yes"/>
      <point x="437" y="614"/>
      <point x="447" y="623"/>
      <point x="447" y="634" type="curve" smooth="yes"/>
      <point x="447" y="674"/>
      <point x="432" y="700"/>
      <point x="358" y="700" type="curve" smooth="yes"/>
      <point x="150" y="700" type="line" smooth="yes"/>
      <point x="79" y="700"/>
      <point x="50" y="671"/>
      <point x="50" y="634" type="curve" smooth="yes"/>
      <point x="51" y="294" type="line" smooth="yes"/>
      <point x="51" y="279"/>
      <point x="61" y="270"/>
      <point x="75" y="270" type="curve" smooth="yes"/>
      <point x="365" y="270" type="line"/>
      <point x="365" y="76" type="line"/>
      <point x="366" y="64"/>
      <point x="362" y="53"/>
      <point x="356" y="53" type="curve" smooth="yes"/>
      <point x="144" y="53" type="line" smooth="yes"/>
      <point x="134" y="53"/>
      <point x="131" y="57"/>
      <point x="131" y="70" type="curve" smooth="yes"/>
      <point x="131" y="83"/>
      <point x="121" y="92"/>
      <point x="107" y="92" type="curve" smooth="yes"/>
      <point x="75" y="93" type="line" smooth="yes"/>
      <point x="61" y="93"/>
      <point x="50" y="82"/>
      <point x="50" y="68" type="curve" smooth="yes"/>
      <point x="50" y="47"/>
      <point x="63" y="-1"/>
    </contour>
  </outline>
</glyph>
<glyph name="six" format="2">
  <advance width="517"/>
  <unicode hex="0036"/>
  <outline>
    <contour>
      <point x="137" y="-1" type="curve" smooth="yes"/>
      <point x="374" y="0" type="line" smooth="yes"/>
      <point x="431" y="0"/>
      <point x="456" y="8"/>
      <point x="456" y="66" type="curve" smooth="yes"/>
      <point x="456" y="274" type="line" smooth="yes"/>
      <point x="456" y="295"/>
      <point x="453" y="318"/>
      <point x="428" y="318" type="curve" smooth="yes"/>
      <point x="165" y="319" type="line" smooth="yes"/>
      <point x="151" y="319"/>
      <point x="141" y="329"/>
      <point x="141" y="343" type="curve" smooth="yes"/>
      <point x="141" y="631" type="line" smooth="yes"/>
      <point x="141" y="643"/>
      <point x="145" y="647"/>
      <point x="154" y="647" type="curve" smooth="yes"/>
      <point x="366" y="647" type="line" smooth="yes"/>
      <point x="373" y="647"/>
      <point x="376" y="643"/>
      <point x="376" y="631" type="curve" smooth="yes"/>
      <point x="376" y="621"/>
      <point x="387" y="613"/>
      <point x="401" y="613" type="curve" smooth="yes"/>
      <point x="433" y="614" type="line" smooth="yes"/>
      <point x="447" y="614"/>
      <point x="457" y="623"/>
      <point x="457" y="634" type="curve" smooth="yes"/>
      <point x="457" y="674"/>
      <point x="442" y="700"/>
      <point x="368" y="700" type="curve" smooth="yes"/>
      <point x="160" y="700" type="line" smooth="yes"/>
      <point x="89" y="700"/>
      <point x="60" y="671"/>
      <point x="60" y="634" type="curve" smooth="yes"/>
      <point x="61" y="294" type="line"/>
      <point x="60" y="68" type="line" smooth="yes"/>
      <point x="60" y="47"/>
      <point x="73" y="-1"/>
    </contour>
    <contour>
      <point x="154" y="53" type="line" smooth="yes"/>
      <point x="144" y="53"/>
      <point x="141" y="57"/>
      <point x="141" y="70" type="curve" smooth="yes"/>
      <point x="141" y="270" type="line"/>
      <point x="375" y="270" type="line"/>
      <point x="375" y="76" type="line"/>
      <point x="376" y="64"/>
      <point x="372" y="53"/>
      <point x="366" y="53" type="curve" smooth="yes"/>
    </contour>
  </outline>
</glyph>
<glyph name="seven" format="2">
  <advance width="498"/>
  <unicode hex="0037"/>
  <outline>
    <contour>
      <point x="367" y="-1" type="line"/>
      <point x="431" y="-1"/>
      <point x="448" y="47"/>
      <point x="448" y="68" type="curve" smooth="yes"/>
      <point x="448" y="634" type="line" smooth="yes"/>
      <point x="448" y="671"/>
      <point x="419" y="700"/>
      <point x="348" y="700" type="curve" smooth="yes"/>
      <point x="140" y="700" type="line" smooth="yes"/>
      <point x="66" y="700"/>
      <point x="50" y="674"/>
      <point x="50" y="634" type="curve" smooth="yes"/>
      <point x="50" y="626"/>
      <point x="60" y="621"/>
      <point x="74" y="621" type="curve" smooth="yes"/>
      <point x="108" y="621" type="line" smooth="yes"/>
      <point x="122" y="621"/>
      <point x="132" y="626"/>
      <point x="132" y="631" type="curve" smooth="yes"/>
      <point x="132" y="643"/>
      <point x="135" y="647"/>
      <point x="142" y="647" type="curve" smooth="yes"/>
      <point x="354" y="647" type="line" smooth="yes"/>
      <point x="363" y="647"/>
      <point x="367" y="643"/>
      <point x="367" y="631" type="curve" smooth="yes"/>
      <point x="367" y="-1" type="line"/>
      <point x="367" y="-1" type="line"/>
    </contour>
  </outline>
</glyph>
<glyph name="eight" format="2">
  <advance width="518"/>
  <unicode hex="0038"/>
  <outline>
    <contour>
      <point x="381" y="700" type="curve" smooth="yes"/>
      <point x="144" y="699" type="line" smooth="yes"/>
      <point x="82" y="699"/>
      <point x="60" y="669"/>
      <point x="60" y="635" type="curve" smooth="yes"/>
      <point x="60" y="65" type="line" smooth="yes"/>
      <point x="60" y="25"/>
      <point x="76" y="-1"/>
      <point x="150" y="-1" type="curve" smooth="yes"/>
      <point x="358" y="-1" type="line" smooth="yes"/>
      <point x="429" y="-1"/>
      <point x="458" y="28"/>
      <point x="458" y="65" type="curve" smooth="yes"/>
      <point x="458" y="631" type="line" smooth="yes"/>
      <point x="458" y="652"/>
      <point x="445" y="700"/>
    </contour>
    <contour>
      <point x="182" y="646" type="curve" smooth="yes"/>
      <point x="344" y="646" type="line" smooth="yes"/>
      <point x="374" y="646"/>
      <point x="377" y="617"/>
      <point x="377" y="589" type="curve" smooth="yes"/>
      <point x="377" y="476" type="line" smooth="yes"/>
      <point x="377" y="446"/>
      <point x="350" y="419"/>
      <point x="334" y="419" type="curve" smooth="yes"/>
      <point x="185" y="419" type="line" smooth="yes"/>
      <point x="169" y="419"/>
      <point x="142" y="445"/>
      <point x="142" y="476" type="curve" smooth="yes"/>
      <point x="142" y="589" type="line" smooth="yes"/>
      <point x="142" y="617"/>
      <point x="154" y="646"/>
    </contour>
    <contour>
      <point x="183" y="371" type="curve" smooth="yes"/>
      <point x="344" y="371" type="line" smooth="yes"/>
      <point x="363" y="371"/>
      <point x="377" y="341"/>
      <point x="377" y="328" type="curve" smooth="yes"/>
      <point x="377" y="128" type="line" smooth="yes"/>
      <point x="377" y="86"/>
      <point x="375" y="52"/>
      <point x="344" y="52" type="curve" smooth="yes"/>
      <point x="182" y="52" type="line" smooth="yes"/>
      <point x="155" y="52"/>
      <point x="142" y="91"/>
      <point x="142" y="128" type="curve" smooth="yes"/>
      <point x="142" y="331" type="line" smooth="yes"/>
      <point x="142" y="344"/>
      <point x="162" y="371"/>
    </contour>
  </outline>
</glyph>
<glyph name="nine" format="2">
  <advance width="498"/>
  <unicode hex="0039"/>
  <outline>
    <contour>
      <point x="371" y="-1" type="line"/>
      <point x="435" y="-1"/>
      <point x="448" y="47"/>
      <point x="448" y="68" type="curve" smooth="yes"/>
      <point x="448" y="634" type="line" smooth="yes"/>
      <point x="448" y="671"/>
      <point x="419" y="700"/>
      <point x="348" y="700" type="curve" smooth="yes"/>
      <point x="140" y="700" type="line" smooth="yes"/>
      <point x="66" y="700"/>
      <point x="50" y="674"/>
      <point x="50" y="634" type="curve" smooth="yes"/>
      <point x="50" y="284" type="line" smooth="yes"/>
      <point x="50" y="270"/>
      <point x="60" y="260"/>
      <point x="74" y="260" type="curve" smooth="yes"/>
      <point x="367" y="260" type="line"/>
      <point x="367" y="70" type="line" smooth="yes"/>
      <point x="367" y="57"/>
      <point x="364" y="53"/>
      <point x="354" y="53" type="curve" smooth="yes"/>
      <point x="81" y="54" type="line" smooth="yes"/>
      <point x="67" y="54"/>
      <point x="56" y="43"/>
      <point x="56" y="29" type="curve" smooth="yes"/>
      <point x="56" y="24" type="line" smooth="yes"/>
      <point x="56" y="10"/>
      <point x="66" y="0"/>
      <point x="80" y="0" type="curve" smooth="yes"/>
      <point x="371" y="-1" type="line"/>
      <point x="371" y="-1" type="line"/>
    </contour>
    <contour>
      <point x="132" y="308" type="line"/>
      <point x="132" y="631" type="line" smooth="yes"/>
      <point x="132" y="643"/>
      <point x="135" y="647"/>
      <point x="142" y="647" type="curve" smooth="yes"/>
      <point x="354" y="647" type="line" smooth="yes"/>
      <point x="363" y="647"/>
      <point x="367" y="643"/>
      <point x="367" y="631" type="curve" smooth="yes"/>
      <point x="367" y="308" type="line"/>
      <point x="132" y="308" type="line"/>
      <point x="132" y="308" type="line"/>
    </contour>
  </outline>
</glyph>
<glyph name="colon" format="2">
  <advance width="211"/>
  <unicode hex="003A"/>
  <note>
colon
</note>
  <outline>
    <contour>
      <point x="50" y="406" type="line"/>
      <point x="161" y="406" type="line"/>
      <point x="161" y="406" type="line"/>
      <point x="161" y="517" type="line"/>
      <point x="50" y="517" type="line"/>
      <point x="50" y="406" type="line"/>
      <point x="50" y="406" type="line"/>
    </contour>
    <contour>
      <point x="50" y="0" type="line"/>
      <point x="161" y="0" type="line"/>
      <point x="161" y="111" type="line"/>
      <point x="50" y="111" type="line"/>
      <point x="50" y="111" type="line"/>
      <point x="50" y="0" type="line"/>
      <point x="50" y="0" type="line"/>
    </contour>
  </outline>
</glyph>
<glyph name="equal" format="2">
  <advance width="556"/>
  <unicode hex="003D"/>
  <outline>
    <contour>
      <point x="83" y="343" type="curve" smooth="yes"/>
      <point x="473" y="343" type="line" smooth="yes"/>
      <point x="486" y="343"/>
      <point x="496" y="353"/>
      <point x="496" y="366" type="curve" smooth="yes"/>
      <point x="496" y="390" type="line" smooth="yes"/>
      <point x="496" y="403"/>
      <point x="486" y="413"/>
      <point x="473" y="413" type="curve" smooth="yes"/>
      <point x="83" y="413" type="line" smooth="yes"/>
      <point x="70" y="413"/>
      <point x="60" y="403"/>
      <point x="60" y="390" type="curve" smooth="yes"/>
      <point x="60" y="366" type="line" smooth="yes"/>
      <point x="60" y="353"/>
      <point x="70" y="343"/>
    </contour>
    <contour>
      <point x="83" y="173" type="curve" smooth="yes"/>
      <point x="473" y="173" type="line" smooth="yes"/>
      <point x="486" y="173"/>
      <point x="496" y="183"/>
      <point x="496" y="196" type="curve" smooth="yes"/>
      <point x="496" y="220" type="line" smooth="yes"/>
      <point x="496" y="233"/>
      <point x="486" y="243"/>
      <point x="473" y="243" type="curve" smooth="yes"/>
      <point x="83" y="243" type="line" smooth="yes"/>
      <point x="70" y="243"/>
      <point x="60" y="233"/>
      <point x="60" y="220" type="curve" smooth="yes"/>
      <point x="60" y="196" type="line" smooth="yes"/>
      <point x="60" y="183"/>
      <point x="70" y="173"/>
    </contour>
  </outline>
</glyph>
<glyph name="question" format="2">
  <advance width="535"/>
  <unicode hex="003F"/>
  <note>
question
</note>
  <outline>
    <contour>
      <point x="227" y="174" type="line"/>
      <point x="312" y="174" type="line"/>
      <point x="312" y="213" type="line" smooth="yes"/>
      <point x="312" y="281.649"/>
      <point x="353.725" y="316.774"/>
      <point x="399" y="361" type="curve" smooth="yes"/>
      <point x="441.991" y="403.991"/>
      <point x="485" y="449.194"/>
      <point x="485" y="531" type="curve" smooth="yes"/>
      <point x="485" y="658.636"/>
      <point x="398.894" y="730.566"/>
      <point x="274" y="731" type="curve" smooth="yes"/>
      <point x="130.592" y="731"/>
      <point x="47.406" y="623.309"/>
      <point x="50" y="491" type="curve"/>
      <point x="50" y="491" type="line"/>
      <point x="135" y="491" type="line"/>
      <point x="135" y="578.847"/>
      <point x="168.311" y="650.43"/>
      <point x="274" y="656" type="curve"/>
      <point x="346" y="656"/>
      <point x="389.667" y="612.333"/>
      <point x="395" y="539" type="curve" smooth="yes"/>
      <point x="398.888" y="467.071"/>
      <point x="360.511" y="428.872"/>
      <point x="316.5" y="387.5" type="curve" smooth="yes"/>
      <point x="275.594" y="350.399"/>
      <point x="230.908" y="303.059"/>
      <point x="227" y="221" type="curve" smooth="yes"/>
      <point x="227" y="174" type="line"/>
      <point x="227" y="174" type="line"/>
    </contour>
    <contour>
      <point x="213" y="0" type="line"/>
      <point x="324" y="0" type="line"/>
      <point x="324" y="111" type="line"/>
      <point x="213" y="111" type="line"/>
      <point x="213" y="111" type="line"/>
      <point x="213" y="0" type="line"/>
      <point x="213" y="0" type="line"/>
    </contour>
  </outline>
</glyph>
<glyph name="at" format="2">
  <advance width="654"/>
  <unicode hex="0040"/>
  <outline>
    <contour>
      <point x="322" y="7" type="curve" smooth="yes"/>
      <point x="369" y="8"/>
      <point x="419" y="23"/>
      <point x="448" y="43" type="curve"/>
      <point x="435" y="88" type="line"/>
      <point x="408" y="69"/>
      <point x="363" y="55"/>
      <point x="323" y="55" type="curve" smooth="yes"/>
      <point x="166" y="52"/>
      <point x="95" y="182"/>
      <point x="100" y="358" type="curve" smooth="yes"/>
      <point x="103" y="483"/>
      <point x="144" y="584"/>
      <point x="214" y="635" type="curve" smooth="yes"/>
      <point x="249" y="661"/>
      <point x="290" y="676"/>
      <point x="335" y="677" type="curve" smooth="yes"/>
      <point x="488" y="679"/>
      <point x="566" y="574"/>
      <point x="559" y="377" type="curve" smooth="yes"/>
      <point x="558" y="284"/>
      <point x="525" y="220"/>
      <point x="474" y="219" type="curve" smooth="yes"/>
      <point x="440" y="219"/>
      <point x="425" y="249"/>
      <point x="428" y="307" type="curve" smooth="yes"/>
      <point x="443" y="519" type="line"/>
      <point x="406" y="551"/>
      <point x="380" y="558"/>
      <point x="344" y="558" type="curve" smooth="yes"/>
      <point x="296" y="557"/>
      <point x="249" y="516"/>
      <point x="223" y="449" type="curve" smooth="yes"/>
      <point x="210" y="416"/>
      <point x="203" y="379"/>
      <point x="200" y="336" type="curve" smooth="yes"/>
      <point x="193" y="233"/>
      <point x="229" y="171"/>
      <point x="294" y="172" type="curve" smooth="yes"/>
      <point x="327" y="174"/>
      <point x="360" y="194"/>
      <point x="384" y="237" type="curve"/>
      <point x="397" y="196"/>
      <point x="424" y="175"/>
      <point x="467" y="176" type="curve" smooth="yes"/>
      <point x="549" y="178"/>
      <point x="600" y="254"/>
      <point x="604" y="377" type="curve" smooth="yes"/>
      <point x="607" y="521"/>
      <point x="565" y="630"/>
      <point x="483" y="686" type="curve" smooth="yes"/>
      <point x="441" y="714"/>
      <point x="393" y="727"/>
      <point x="336" y="726" type="curve" smooth="yes"/>
      <point x="227" y="724"/>
      <point x="138" y="659"/>
      <point x="89" y="546" type="curve" smooth="yes"/>
      <point x="65" y="490"/>
      <point x="52" y="427"/>
      <point x="50" y="358" type="curve" smooth="yes"/>
      <point x="46" y="151"/>
      <point x="138" y="4"/>
    </contour>
    <contour>
      <point x="308" y="226" type="curve" smooth="yes"/>
      <point x="268" y="226"/>
      <point x="248" y="266"/>
      <point x="254" y="338" type="curve" smooth="yes"/>
      <point x="261" y="442"/>
      <point x="297" y="507"/>
      <point x="350" y="508" type="curve" smooth="yes"/>
      <point x="365" y="509"/>
      <point x="378" y="505"/>
      <point x="390" y="499" type="curve"/>
      <point x="378" y="303" type="line"/>
      <point x="362" y="255"/>
      <point x="336" y="227"/>
    </contour>
  </outline>
</glyph>
<glyph name="A" format="2">
  <advance width="560"/>
  <unicode hex="0041"/>
  <anchor x="289" y="631" name="top"/>
  <outline>
    <contour>
      <point x="70" y="0" type="curve" smooth="yes"/>
      <point x="111" y="0" type="line" smooth="yes"/>
      <point x="122" y="0"/>
      <point x="131" y="9"/>
      <point x="131" y="20" type="curve" smooth="yes"/>
      <point x="130" y="587" type="line" smooth="yes"/>
      <point x="130" y="617"/>
      <point x="143" y="631"/>
      <point x="157" y="628" type="curve" smooth="yes"/>
      <point x="406" y="578" type="line" smooth="yes"/>
      <point x="421" y="575"/>
      <point x="428" y="563"/>
      <point x="428" y="547" type="curve" smooth="yes"/>
      <point x="429" y="20" type="line" smooth="yes"/>
      <point x="429" y="9"/>
      <point x="442" y="0"/>
      <point x="472" y="0" type="curve" smooth="yes"/>
      <point x="496" y="0"/>
      <point x="510" y="9"/>
      <point x="510" y="20" type="curve" smooth="yes"/>
      <point x="510" y="591" type="line" smooth="yes"/>
      <point x="510" y="598"/>
      <point x="506" y="610"/>
      <point x="491" y="613" type="curve" smooth="yes"/>
      <point x="84" y="694" type="line" smooth="yes"/>
      <point x="67" y="697"/>
      <point x="50" y="692"/>
      <point x="50" y="673" type="curve" smooth="yes"/>
      <point x="50" y="20" type="line" smooth="yes"/>
      <point x="50" y="9"/>
      <point x="59" y="0"/>
    </contour>
    <contour>
      <point x="110" y="260" type="line"/>
      <point x="431" y="260" type="line"/>
      <point x="431" y="308" type="line"/>
      <point x="110" y="308" type="line"/>
      <point x="110" y="260" type="line"/>
      <point x="110" y="260" type="line"/>
    </contour>
  </outline>
</glyph>
<glyph name="B" format="2">
  <advance width="560"/>
  <unicode hex="0042"/>
  <outline>
    <contour>
      <point x="70" y="0" type="curve" smooth="yes"/>
      <point x="111" y="0" type="line" smooth="yes"/>
      <point x="122" y="0"/>
      <point x="131" y="9"/>
      <point x="131" y="20" type="curve" smooth="yes"/>
      <point x="130" y="587" type="line" smooth="yes"/>
      <point x="130" y="617"/>
      <point x="143" y="631"/>
      <point x="157" y="628" type="curve" smooth="yes"/>
      <point x="366" y="578" type="line" smooth="yes"/>
      <point x="381" y="574"/>
      <point x="388" y="563"/>
      <point x="388" y="547" type="curve" smooth="yes"/>
      <point x="388" y="305" type="line"/>
      <point x="470" y="305" type="line"/>
      <point x="470" y="591" type="line" smooth="yes"/>
      <point x="470" y="598"/>
      <point x="466" y="610"/>
      <point x="451" y="613" type="curve" smooth="yes"/>
      <point x="84" y="694" type="line" smooth="yes"/>
      <point x="67" y="698"/>
      <point x="50" y="692"/>
      <point x="50" y="673" type="curve" smooth="yes"/>
      <point x="50" y="20" type="line" smooth="yes"/>
      <point x="50" y="9"/>
      <point x="59" y="0"/>
    </contour>
    <contour>
      <point x="110" y="0" type="line"/>
      <point x="474" y="0" type="line"/>
      <point x="492" y="50" type="line"/>
      <point x="110" y="48" type="line"/>
      <point x="110" y="0" type="line"/>
      <point x="110" y="0" type="line"/>
    </contour>
    <contour>
      <point x="110" y="260" type="line"/>
      <point x="431" y="260" type="line"/>
      <point x="431" y="308" type="line"/>
      <point x="110" y="308" type="line"/>
      <point x="110" y="260" type="line"/>
      <point x="110" y="260" type="line"/>
    </contour>
    <contour>
      <point x="472" y="0" type="curve" smooth="yes"/>
      <point x="496" y="0"/>
      <point x="510" y="6"/>
      <point x="510" y="17" type="curve" smooth="yes"/>
      <point x="510" y="285" type="line" smooth="yes"/>
      <point x="510" y="299"/>
      <point x="500" y="309"/>
      <point x="486" y="309" type="curve" smooth="yes"/>
      <point x="428" y="309" type="line"/>
      <point x="429" y="20" type="line" smooth="yes"/>
      <point x="429" y="9"/>
      <point x="442" y="0"/>
    </contour>
  </outline>
</glyph>
<glyph name="D" format="2">
  <advance width="560"/>
  <unicode hex="0044"/>
  <outline>
    <contour>
      <point x="70" y="0" type="curve" smooth="yes"/>
      <point x="106" y="0"/>
      <point x="222" y="19"/>
      <point x="461" y="60" type="curve" smooth="yes"/>
      <point x="502" y="67"/>
      <point x="510" y="78"/>
      <point x="510" y="89" type="curve" smooth="yes"/>
      <point x="510" y="591" type="line" smooth="yes"/>
      <point x="510" y="598"/>
      <point x="506" y="610"/>
      <point x="491" y="613" type="curve" smooth="yes"/>
      <point x="84" y="694" type="line" smooth="yes"/>
      <point x="67" y="697"/>
      <point x="50" y="692"/>
      <point x="50" y="673" type="curve" smooth="yes"/>
      <point x="50" y="20" type="line" smooth="yes"/>
      <point x="50" y="9"/>
      <point x="59" y="0"/>
    </contour>
    <contour>
      <point x="161" y="57" type="line"/>
      <point x="145" y="54"/>
      <point x="131" y="66"/>
      <point x="131" y="83" type="curve" smooth="yes"/>
      <point x="130" y="587" type="line" smooth="yes"/>
      <point x="130" y="617"/>
      <point x="143" y="631"/>
      <point x="157" y="628" type="curve" smooth="yes"/>
      <point x="406" y="578" type="line" smooth="yes"/>
      <point x="421" y="575"/>
      <point x="428" y="563"/>
      <point x="428" y="547" type="curve" smooth="yes"/>
      <point x="429" y="123" type="line" smooth="yes"/>
      <point x="429" y="112"/>
      <point x="421" y="102"/>
      <point x="410" y="100" type="curve" smooth="yes"/>
      <point x="161" y="57" type="line"/>
      <point x="161" y="57" type="line"/>
    </contour>
  </outline>
</glyph>
<glyph name="F" format="2">
  <advance width="475"/>
  <unicode hex="0046"/>
  <outline>
    <contour>
      <point x="70" y="284" type="curve" smooth="yes"/>
      <point x="70" y="270"/>
      <point x="80" y="260"/>
      <point x="94" y="260" type="curve" smooth="yes"/>
      <point x="397" y="260" type="line" smooth="yes"/>
      <point x="411" y="260"/>
      <point x="421" y="270"/>
      <point x="421" y="284" type="curve" smooth="yes"/>
      <point x="421" y="298"/>
      <point x="411" y="308"/>
      <point x="397" y="308" type="curve" smooth="yes"/>
      <point x="94" y="308" type="line" smooth="yes"/>
      <point x="80" y="308"/>
      <point x="70" y="298"/>
    </contour>
    <contour>
      <point x="74" y="676" type="curve" smooth="yes"/>
      <point x="74" y="662"/>
      <point x="84" y="652"/>
      <point x="98" y="652" type="curve" smooth="yes"/>
      <point x="401" y="652" type="line" smooth="yes"/>
      <point x="415" y="652"/>
      <point x="425" y="662"/>
      <point x="425" y="676" type="curve" smooth="yes"/>
      <point x="425" y="690"/>
      <point x="415" y="700"/>
      <point x="401" y="700" type="curve" smooth="yes"/>
      <point x="98" y="700" type="line" smooth="yes"/>
      <point x="84" y="700"/>
      <point x="74" y="690"/>
    </contour>
    <component base="_bar.up"/>
  </outline>
</glyph>
<glyph name="G" format="2">
  <advance width="600"/>
  <unicode hex="0047"/>
  <outline>
    <contour>
      <point x="482" y="0" type="curve" smooth="yes"/>
      <point x="506" y="0"/>
      <point x="520" y="6"/>
      <point x="520" y="17" type="curve" smooth="yes"/>
      <point x="520" y="285" type="line" smooth="yes"/>
      <point x="520" y="299"/>
      <point x="510" y="309"/>
      <point x="496" y="309" type="curve" smooth="yes"/>
      <point x="439" y="309" type="line"/>
      <point x="439" y="20" type="line" smooth="yes"/>
      <point x="439" y="9"/>
      <point x="452" y="0"/>
    </contour>
    <component base="c.base" xOffset="18"/>
    <component base="_bar.part" xScale="0.8597" xOffset="-458" yOffset="2"/>
  </outline>
</glyph>
<glyph name="H" format="2">
  <advance width="561"/>
  <unicode hex="0048"/>
  <outline>
    <contour>
      <point x="110" y="260" type="line"/>
      <point x="431" y="260" type="line"/>
      <point x="431" y="308" type="line"/>
      <point x="110" y="308" type="line"/>
      <point x="110" y="260" type="line"/>
      <point x="110" y="260" type="line"/>
    </contour>
    <component base="_bar.up"/>
    <component base="_bar.up" xOffset="380"/>
  </outline>
</glyph>
<glyph name="J" format="2">
  <advance width="339"/>
  <unicode hex="004A"/>
  <outline>
    <contour>
      <point x="245" y="1" type="line" smooth="yes"/>
      <point x="262" y="-2"/>
      <point x="279" y="3"/>
      <point x="279" y="22" type="curve" smooth="yes"/>
      <point x="279" y="675" type="line" smooth="yes"/>
      <point x="279" y="686"/>
      <point x="270" y="695"/>
      <point x="259" y="695" type="curve" smooth="yes"/>
      <point x="218" y="695" type="line" smooth="yes"/>
      <point x="207" y="695"/>
      <point x="198" y="686"/>
      <point x="198" y="675" type="curve" smooth="yes"/>
      <point x="199" y="108" type="line" smooth="yes"/>
      <point x="199" y="78"/>
      <point x="186" y="65"/>
      <point x="172" y="67" type="curve" smooth="yes"/>
      <point x="90" y="79" type="line" smooth="yes"/>
      <point x="77" y="81"/>
      <point x="65" y="75"/>
      <point x="62" y="61" type="curve" smooth="yes"/>
      <point x="61" y="58" type="line" smooth="yes"/>
      <point x="58" y="43"/>
      <point x="67" y="30"/>
      <point x="81" y="28" type="curve" smooth="yes"/>
    </contour>
  </outline>
</glyph>
<glyph name="K" format="2">
  <advance width="466"/>
  <unicode hex="004B"/>
  <outline>
    <contour>
      <point x="370" y="7" type="line"/>
      <point x="379" y="-3"/>
      <point x="394" y="-3"/>
      <point x="404" y="7" type="curve" smooth="yes"/>
      <point x="414" y="16"/>
      <point x="426" y="30"/>
      <point x="403" y="55" type="curve" smooth="yes"/>
      <point x="152" y="331" type="line"/>
      <point x="118" y="284" type="line"/>
      <point x="370" y="7" type="line"/>
      <point x="370" y="7" type="line"/>
    </contour>
    <component base="_bar.up"/>
    <component base="_bar.part" xScale="0.70711" xyScale="0.70711" yxScale="-0.70711" yScale="0.70711" xOffset="-271" yOffset="-492"/>
  </outline>
</glyph>
<glyph name="L" format="2">
  <advance width="456"/>
  <unicode hex="004C"/>
  <outline>
    <contour>
      <point x="55" y="24" type="curve" smooth="yes"/>
      <point x="55" y="10"/>
      <point x="65" y="0"/>
      <point x="79" y="0" type="curve" smooth="yes"/>
      <point x="382" y="0" type="line" smooth="yes"/>
      <point x="396" y="0"/>
      <point x="406" y="10"/>
      <point x="406" y="24" type="curve" smooth="yes"/>
      <point x="406" y="38"/>
      <point x="396" y="48"/>
      <point x="382" y="48" type="curve" smooth="yes"/>
      <point x="79" y="48" type="line" smooth="yes"/>
      <point x="65" y="48"/>
      <point x="55" y="38"/>
    </contour>
    <contour>
      <point x="131" y="20" type="curve" smooth="yes"/>
      <point x="131" y="680" type="line" smooth="yes"/>
      <point x="131" y="691"/>
      <point x="115" y="700"/>
      <point x="89" y="700" type="curve" smooth="yes"/>
      <point x="66" y="700"/>
      <point x="50" y="692"/>
      <point x="50" y="673" type="curve" smooth="yes"/>
      <point x="50" y="20" type="line" smooth="yes"/>
      <point x="50" y="9"/>
      <point x="59" y="0"/>
      <point x="70" y="0" type="curve" smooth="yes"/>
      <point x="111" y="0" type="line" smooth="yes"/>
      <point x="122" y="0"/>
      <point x="131" y="9"/>
    </contour>
  </outline>
</glyph>
<glyph name="M" format="2">
  <advance width="617"/>
  <unicode hex="004D"/>
  <outline>
    <contour>
      <point x="131" y="20" type="curve" smooth="yes"/>
      <point x="131" y="680" type="line" smooth="yes"/>
      <point x="131" y="691"/>
      <point x="115" y="700"/>
      <point x="89" y="700" type="curve" smooth="yes"/>
      <point x="66" y="700"/>
      <point x="50" y="692"/>
      <point x="50" y="673" type="curve" smooth="yes"/>
      <point x="50" y="20" type="line" smooth="yes"/>
      <point x="50" y="9"/>
      <point x="59" y="0"/>
      <point x="70" y="0" type="curve" smooth="yes"/>
      <point x="111" y="0" type="line" smooth="yes"/>
      <point x="122" y="0"/>
      <point x="131" y="9"/>
    </contour>
    <contour>
      <point x="126" y="692" type="line"/>
      <point x="84" y="652" type="line"/>
      <point x="284" y="335" type="line" smooth="yes"/>
      <point x="291" y="324"/>
      <point x="306" y="321"/>
      <point x="317" y="330" type="curve"/>
      <point x="329" y="337"/>
      <point x="343" y="348"/>
      <point x="325" y="377" type="curve" smooth="yes"/>
      <point x="126" y="692" type="line"/>
      <point x="126" y="692" type="line"/>
    </contour>
    <contour>
      <point x="567" y="21" type="curve" smooth="yes"/>
      <point x="567" y="681" type="line" smooth="yes"/>
      <point x="567" y="692"/>
      <point x="551" y="701"/>
      <point x="525" y="701" type="curve" smooth="yes"/>
      <point x="502" y="701"/>
      <point x="486" y="693"/>
      <point x="486" y="674" type="curve" smooth="yes"/>
      <point x="486" y="21" type="line" smooth="yes"/>
      <point x="486" y="10"/>
      <point x="495" y="1"/>
      <point x="506" y="1" type="curve" smooth="yes"/>
      <point x="547" y="1" type="line" smooth="yes"/>
      <point x="558" y="1"/>
      <point x="567" y="10"/>
    </contour>
    <contour>
      <point x="492" y="692" type="line"/>
      <point x="293" y="377" type="line" smooth="yes"/>
      <point x="275" y="348"/>
      <point x="289" y="337"/>
      <point x="301" y="330" type="curve"/>
      <point x="312" y="321"/>
      <point x="327" y="324"/>
      <point x="334" y="335" type="curve" smooth="yes"/>
      <point x="534" y="652" type="line"/>
      <point x="492" y="692" type="line"/>
      <point x="492" y="692" type="line"/>
    </contour>
  </outline>
</glyph>
<glyph name="N" format="2">
  <advance width="534"/>
  <unicode hex="004E"/>
  <anchor x="263" y="641" name="top"/>
  <outline>
    <contour>
      <point x="131" y="22" type="curve" smooth="yes"/>
      <point x="131" y="682" type="line" smooth="yes"/>
      <point x="131" y="693"/>
      <point x="115" y="702"/>
      <point x="89" y="702" type="curve" smooth="yes"/>
      <point x="66" y="702"/>
      <point x="50" y="694"/>
      <point x="50" y="675" type="curve" smooth="yes"/>
      <point x="50" y="22" type="line" smooth="yes"/>
      <point x="50" y="11"/>
      <point x="59" y="0"/>
      <point x="70" y="0" type="curve" smooth="yes"/>
      <point x="111" y="0" type="line" smooth="yes"/>
      <point x="122" y="0"/>
      <point x="131" y="11"/>
    </contour>
    <contour>
      <point x="130" y="691" type="line"/>
      <point x="122" y="707"/>
      <point x="81" y="703"/>
      <point x="71" y="695" type="curve" smooth="yes"/>
      <point x="62" y="687"/>
      <point x="50" y="679"/>
      <point x="65" y="651" type="curve" smooth="yes"/>
      <point x="405" y="8" type="line" smooth="yes"/>
      <point x="410" y="-2"/>
      <point x="429" y="-2"/>
      <point x="439" y="8" type="curve" smooth="yes"/>
      <point x="449" y="17"/>
      <point x="469" y="37"/>
      <point x="455" y="63" type="curve" smooth="yes"/>
      <point x="130" y="691" type="line"/>
      <point x="130" y="691" type="line"/>
    </contour>
    <contour>
      <point x="484" y="20" type="curve" smooth="yes"/>
      <point x="484" y="680" type="line" smooth="yes"/>
      <point x="484" y="691"/>
      <point x="468" y="700"/>
      <point x="442" y="700" type="curve" smooth="yes"/>
      <point x="419" y="700"/>
      <point x="403" y="692"/>
      <point x="403" y="673" type="curve" smooth="yes"/>
      <point x="403" y="20" type="line" smooth="yes"/>
      <point x="403" y="9"/>
      <point x="412" y="0"/>
      <point x="423" y="0" type="curve" smooth="yes"/>
      <point x="464" y="0" type="line" smooth="yes"/>
      <point x="475" y="0"/>
      <point x="484" y="9"/>
    </contour>
  </outline>
</glyph>
<glyph name="O" format="2">
  <advance width="564"/>
  <unicode hex="004F"/>
  <anchor x="265" y="647" name="top"/>
  <outline>
    <contour>
      <point x="133" y="0" type="curve" smooth="yes"/>
      <point x="404" y="0" type="line"/>
      <point x="405" y="0" type="line" smooth="yes"/>
      <point x="429" y="0"/>
      <point x="440" y="9"/>
      <point x="443" y="20" type="curve" smooth="yes"/>
      <point x="514" y="287" type="line"/>
      <point x="433" y="670" type="line" smooth="yes"/>
      <point x="432" y="677"/>
      <point x="429" y="692"/>
      <point x="414" y="692" type="curve" smooth="yes"/>
      <point x="147" y="694" type="line" smooth="yes"/>
      <point x="130" y="694"/>
      <point x="116" y="692"/>
      <point x="113" y="673" type="curve" smooth="yes"/>
      <point x="50" y="287" type="line"/>
      <point x="113" y="20" type="line" smooth="yes"/>
      <point x="116" y="9"/>
      <point x="122" y="0"/>
    </contour>
    <contour>
      <point x="184" y="48" type="line"/>
      <point x="121" y="287" type="line"/>
      <point x="186" y="641" type="line"/>
      <point x="369" y="641" type="line"/>
      <point x="447" y="287" type="line"/>
      <point x="375" y="48" type="line"/>
      <point x="184" y="48" type="line"/>
      <point x="184" y="48" type="line"/>
    </contour>
  </outline>
</glyph>
<glyph name="Q" format="2">
  <advance width="574"/>
  <unicode hex="0051"/>
  <anchor x="355" y="647" name="top"/>
  <outline>
    <contour>
      <point x="480" y="-116" type="line" smooth="yes"/>
      <point x="488" y="-124"/>
      <point x="501" y="-124"/>
      <point x="509" y="-116" type="curve" smooth="yes"/>
      <point x="518" y="-108"/>
      <point x="528" y="-97"/>
      <point x="509" y="-76" type="curve" smooth="yes"/>
      <point x="311" y="131" type="line" smooth="yes"/>
      <point x="300" y="143"/>
      <point x="283" y="142"/>
      <point x="273" y="129" type="curve"/>
      <point x="273" y="128" type="line"/>
      <point x="266" y="119"/>
      <point x="266" y="108"/>
      <point x="274" y="99" type="curve" smooth="yes"/>
    </contour>
    <component base="O"/>
  </outline>
</glyph>
<glyph name="R" format="2">
  <advance width="560"/>
  <unicode hex="0052"/>
  <outline>
    <contour>
      <point x="270" y="301" type="line"/>
      <point x="214" y="279" type="line"/>
      <point x="466" y="2" type="line" smooth="yes"/>
      <point x="475" y="-8"/>
      <point x="490" y="-8"/>
      <point x="500" y="2" type="curve" smooth="yes"/>
      <point x="510" y="11"/>
      <point x="521" y="25"/>
      <point x="499" y="50" type="curve" smooth="yes"/>
      <point x="270" y="301" type="line"/>
      <point x="270" y="301" type="line"/>
    </contour>
    <component base="P"/>
  </outline>
</glyph>
<glyph name="S" format="2">
  <advance width="501"/>
  <unicode hex="0053"/>
  <outline>
    <contour>
      <point x="84" y="-1" type="curve" smooth="yes"/>
      <point x="351" y="-1" type="line" smooth="yes"/>
      <point x="392" y="-1"/>
      <point x="441" y="24"/>
      <point x="441" y="125" type="curve" smooth="yes"/>
      <point x="441" y="183" type="line" smooth="yes"/>
      <point x="441" y="230"/>
      <point x="417" y="263"/>
      <point x="390" y="281" type="curve" smooth="yes"/>
      <point x="165" y="428" type="line" smooth="yes"/>
      <point x="147" y="440"/>
      <point x="141" y="465"/>
      <point x="141" y="486" type="curve" smooth="yes"/>
      <point x="141" y="580" type="line" smooth="yes"/>
      <point x="141" y="629"/>
      <point x="158" y="647"/>
      <point x="228" y="646" type="curve" smooth="yes"/>
      <point x="407" y="643" type="line" smooth="yes"/>
      <point x="418" y="643"/>
      <point x="429" y="645"/>
      <point x="432" y="664" type="curve" smooth="yes"/>
      <point x="435" y="684"/>
      <point x="426" y="699"/>
      <point x="414" y="699" type="curve" smooth="yes"/>
      <point x="155" y="699" type="line" smooth="yes"/>
      <point x="91" y="699"/>
      <point x="61" y="627"/>
      <point x="61" y="588" type="curve" smooth="yes"/>
      <point x="61" y="488" type="line" smooth="yes"/>
      <point x="61" y="436"/>
      <point x="82" y="402"/>
      <point x="101" y="389" type="curve" smooth="yes"/>
      <point x="304" y="255" type="line" smooth="yes"/>
      <point x="323" y="242"/>
      <point x="361" y="228"/>
      <point x="361" y="193" type="curve" smooth="yes"/>
      <point x="361" y="128" type="line" smooth="yes"/>
      <point x="361" y="63"/>
      <point x="344" y="53"/>
      <point x="284" y="53" type="curve" smooth="yes"/>
      <point x="84" y="53" type="line" smooth="yes"/>
      <point x="70" y="53"/>
      <point x="60" y="43"/>
      <point x="60" y="29" type="curve" smooth="yes"/>
      <point x="60" y="15"/>
      <point x="70" y="-1"/>
    </contour>
  </outline>
</glyph>
<glyph name="T" format="2">
  <advance width="451"/>
  <unicode hex="0054"/>
  <outline>
    <contour>
      <point x="257" y="20" type="curve" smooth="yes"/>
      <point x="257" y="680" type="line" smooth="yes"/>
      <point x="257" y="691"/>
      <point x="241" y="700"/>
      <point x="215" y="700" type="curve" smooth="yes"/>
      <point x="192" y="700"/>
      <point x="176" y="692"/>
      <point x="176" y="673" type="curve" smooth="yes"/>
      <point x="176" y="20" type="line" smooth="yes"/>
      <point x="176" y="9"/>
      <point x="185" y="0"/>
      <point x="196" y="0" type="curve" smooth="yes"/>
      <point x="237" y="0" type="line" smooth="yes"/>
      <point x="248" y="0"/>
      <point x="257" y="9"/>
    </contour>
    <contour>
      <point x="50" y="684" type="curve" smooth="yes"/>
      <point x="50" y="670"/>
      <point x="60" y="660"/>
      <point x="74" y="660" type="curve" smooth="yes"/>
      <point x="377" y="660" type="line" smooth="yes"/>
      <point x="391" y="660"/>
      <point x="401" y="670"/>
      <point x="401" y="684" type="curve" smooth="yes"/>
      <point x="401" y="698"/>
      <point x="391" y="708"/>
      <point x="377" y="708" type="curve" smooth="yes"/>
      <point x="74" y="708" type="line" smooth="yes"/>
      <point x="60" y="708"/>
      <point x="50" y="698"/>
    </contour>
  </outline>
</glyph>
<glyph name="U" format="2">
  <advance width="541"/>
  <unicode hex="0055"/>
  <anchor x="412" y="-9" name="haa"/>
  <anchor x="150" y="469" name="he"/>
  <anchor x="415" y="-9" name="hee"/>
  <anchor x="426" y="-116" name="hi"/>
  <anchor x="370" y="673" name="ho.ring"/>
  <anchor x="520" y="472" name="hu"/>
  <anchor x="435" y="-5" name="hwa"/>
  <anchor x="228" y="649" name="top"/>
  <outline>
    <contour>
      <point x="200" y="0" type="curve" smooth="yes"/>
      <point x="412" y="0" type="line" smooth="yes"/>
      <point x="484" y="0"/>
      <point x="516" y="61"/>
      <point x="516" y="132" type="curve" smooth="yes"/>
      <point x="516" y="680" type="line" smooth="yes"/>
      <point x="516" y="691"/>
      <point x="499" y="700"/>
      <point x="473" y="700" type="curve" smooth="yes"/>
      <point x="450" y="700"/>
      <point x="435" y="692"/>
      <point x="435" y="673" type="curve" smooth="yes"/>
      <point x="435" y="116" type="line" smooth="yes"/>
      <point x="435" y="77"/>
      <point x="406" y="48"/>
      <point x="367" y="48" type="curve" smooth="yes"/>
      <point x="209" y="48" type="line" smooth="yes"/>
      <point x="170" y="48"/>
      <point x="141" y="77"/>
      <point x="141" y="116" type="curve" smooth="yes"/>
      <point x="141" y="680" type="line" smooth="yes"/>
      <point x="141" y="691"/>
      <point x="125" y="700"/>
      <point x="99" y="700" type="curve" smooth="yes"/>
      <point x="76" y="700"/>
      <point x="60" y="692"/>
      <point x="60" y="673" type="curve" smooth="yes"/>
      <point x="60" y="150" type="line" smooth="yes"/>
      <point x="60" y="79"/>
      <point x="79" y="0"/>
    </contour>
  </outline>
</glyph>
<glyph name="V" format="2">
  <advance width="702"/>
  <unicode hex="0056"/>
  <outline>
    <contour>
      <point x="383" y="0" type="curve" smooth="yes"/>
      <point x="399" y="0"/>
      <point x="413" y="14"/>
      <point x="419" y="31" type="curve" smooth="yes"/>
      <point x="640" y="648" type="line" smooth="yes"/>
      <point x="650" y="676"/>
      <point x="627" y="692"/>
      <point x="616" y="700" type="curve" smooth="yes"/>
      <point x="604" y="708"/>
      <point x="586" y="705"/>
      <point x="582" y="694" type="curve" smooth="yes"/>
      <point x="377.445" y="95.131" type="line"/>
      <point x="134" y="687" type="line" smooth="yes"/>
      <point x="127" y="704"/>
      <point x="86" y="704"/>
      <point x="75" y="697" type="curve"/>
      <point x="66" y="689"/>
      <point x="52" y="682"/>
      <point x="65" y="653" type="curve" smooth="yes"/>
      <point x="342" y="33" type="line" smooth="yes"/>
      <point x="352" y="11"/>
      <point x="360" y="0"/>
    </contour>
  </outline>
</glyph>
<glyph name="Y" format="2">
  <advance width="672"/>
  <unicode hex="0059"/>
  <anchor x="331" y="626" name="top"/>
  <outline>
    <contour>
      <point x="314" y="0" type="curve" smooth="yes"/>
      <point x="355" y="0" type="line" smooth="yes"/>
      <point x="366" y="0"/>
      <point x="375" y="9"/>
      <point x="375" y="20" type="curve" smooth="yes"/>
      <point x="375" y="255.878" type="line"/>
      <point x="586" y="665" type="line" smooth="yes"/>
      <point x="601" y="694"/>
      <point x="588" y="702"/>
      <point x="580" y="709" type="curve" smooth="yes"/>
      <point x="570" y="717"/>
      <point x="529" y="720"/>
      <point x="521" y="705" type="curve" smooth="yes"/>
      <point x="333.2" y="326.12" type="line"/>
      <point x="139" y="703" type="line" smooth="yes"/>
      <point x="131" y="719"/>
      <point x="90" y="715"/>
      <point x="80" y="707" type="curve" smooth="yes"/>
      <point x="71" y="699"/>
      <point x="59" y="692"/>
      <point x="74" y="664" type="curve" smooth="yes"/>
      <point x="294" y="254.86" type="line"/>
      <point x="294" y="20" type="line" smooth="yes"/>
      <point x="294" y="9"/>
      <point x="303" y="0"/>
    </contour>
  </outline>
</glyph>
<glyph name="Z" format="2">
  <advance width="502"/>
  <unicode hex="005A"/>
  <outline>
    <contour>
      <point x="86" y="25" type="curve" smooth="yes"/>
      <point x="86" y="11"/>
      <point x="96" y="1"/>
      <point x="110" y="1" type="curve" smooth="yes"/>
      <point x="413" y="1" type="line" smooth="yes"/>
      <point x="427" y="1"/>
      <point x="437" y="11"/>
      <point x="437" y="25" type="curve" smooth="yes"/>
      <point x="437" y="39"/>
      <point x="427" y="49"/>
      <point x="413" y="49" type="curve" smooth="yes"/>
      <point x="110" y="49" type="line" smooth="yes"/>
      <point x="96" y="49"/>
      <point x="86" y="39"/>
    </contour>
    <contour>
      <point x="439" y="695" type="curve" smooth="yes"/>
      <point x="429" y="703"/>
      <point x="388" y="707"/>
      <point x="380" y="691" type="curve" smooth="yes"/>
      <point x="55" y="63" type="line" smooth="yes"/>
      <point x="41" y="37"/>
      <point x="61" y="17"/>
      <point x="71" y="8" type="curve" smooth="yes"/>
      <point x="81" y="-2"/>
      <point x="100" y="-2"/>
      <point x="105" y="8" type="curve" smooth="yes"/>
      <point x="445" y="651" type="line" smooth="yes"/>
      <point x="460" y="679"/>
      <point x="448" y="687"/>
    </contour>
    <contour>
      <point x="64" y="678" type="curve" smooth="yes"/>
      <point x="64" y="664"/>
      <point x="74" y="654"/>
      <point x="88" y="654" type="curve" smooth="yes"/>
      <point x="391" y="654" type="line" smooth="yes"/>
      <point x="405" y="654"/>
      <point x="415" y="664"/>
      <point x="415" y="678" type="curve" smooth="yes"/>
      <point x="415" y="692"/>
      <point x="405" y="702"/>
      <point x="391" y="702" type="curve" smooth="yes"/>
      <point x="88" y="702" type="line" smooth="yes"/>
      <point x="74" y="702"/>
      <point x="64" y="692"/>
    </contour>
  </outline>
</glyph>
<glyph name="bracketleft" format="2">
  <advance width="279"/>
  <unicode hex="005B"/>
  <outline>
    <contour>
      <point x="101" y="-130" type="curve" smooth="yes"/>
      <point x="208" y="-130" type="line" smooth="yes"/>
      <point x="220" y="-130"/>
      <point x="229" y="-121"/>
      <point x="229" y="-109" type="curve" smooth="yes"/>
      <point x="228" y="-69" type="line" smooth="yes"/>
      <point x="228" y="-58"/>
      <point x="219" y="-49"/>
      <point x="208" y="-49" type="curve" smooth="yes"/>
      <point x="111" y="-49" type="line" smooth="yes"/>
      <point x="100" y="-49"/>
      <point x="91" y="-40"/>
      <point x="91" y="-29" type="curve" smooth="yes"/>
      <point x="91" y="699" type="line" smooth="yes"/>
      <point x="91" y="710"/>
      <point x="100" y="719"/>
      <point x="111" y="719" type="curve" smooth="yes"/>
      <point x="197" y="719" type="line" smooth="yes"/>
      <point x="208" y="719"/>
      <point x="217" y="728"/>
      <point x="217" y="739" type="curve" smooth="yes"/>
      <point x="217" y="780" type="line" smooth="yes"/>
      <point x="217" y="791"/>
      <point x="208" y="800"/>
      <point x="197" y="800" type="curve" smooth="yes"/>
      <point x="101" y="800" type="line" smooth="yes"/>
      <point x="72" y="800"/>
      <point x="50" y="778"/>
      <point x="50" y="749" type="curve" smooth="yes"/>
      <point x="50" y="-79" type="line" smooth="yes"/>
      <point x="50" y="-108"/>
      <point x="72" y="-130"/>
    </contour>
  </outline>
</glyph>
<glyph name="bracketright" format="2">
  <advance width="299"/>
  <unicode hex="005D"/>
  <outline>
    <contour>
      <point x="81" y="-130" type="curve" smooth="yes"/>
      <point x="188" y="-130" type="line" smooth="yes"/>
      <point x="217" y="-130"/>
      <point x="239" y="-108"/>
      <point x="239" y="-79" type="curve" smooth="yes"/>
      <point x="239" y="749" type="line" smooth="yes"/>
      <point x="239" y="778"/>
      <point x="217" y="800"/>
      <point x="188" y="800" type="curve" smooth="yes"/>
      <point x="92" y="800" type="line" smooth="yes"/>
      <point x="81" y="800"/>
      <point x="72" y="791"/>
      <point x="72" y="780" type="curve" smooth="yes"/>
      <point x="72" y="739" type="line" smooth="yes"/>
      <point x="72" y="728"/>
      <point x="81" y="719"/>
      <point x="92" y="719" type="curve" smooth="yes"/>
      <point x="178" y="719" type="line" smooth="yes"/>
      <point x="189" y="719"/>
      <point x="198" y="710"/>
      <point x="198" y="699" type="curve" smooth="yes"/>
      <point x="198" y="-29" type="line" smooth="yes"/>
      <point x="198" y="-40"/>
      <point x="189" y="-49"/>
      <point x="178" y="-49" type="curve" smooth="yes"/>
      <point x="81" y="-49" type="line" smooth="yes"/>
      <point x="70" y="-49"/>
      <point x="61" y="-58"/>
      <point x="61" y="-69" type="curve" smooth="yes"/>
      <point x="60" y="-109" type="line" smooth="yes"/>
      <point x="60" y="-121"/>
      <point x="69" y="-130"/>
    </contour>
  </outline>
</glyph>
<glyph name="asciicircum" format="2">
  <advance width="392"/>
  <unicode hex="005E"/>
  <outline>
    <contour>
      <point x="310" y="467" type="curve" smooth="yes"/>
      <point x="330" y="479" type="line" smooth="yes"/>
      <point x="342" y="486"/>
      <point x="345" y="500"/>
      <point x="338" y="512" type="curve" smooth="yes"/>
      <point x="232" y="682" type="line" smooth="yes"/>
      <point x="224" y="694"/>
      <point x="214" y="701"/>
      <point x="199" y="701" type="curve" smooth="yes"/>
      <point x="185" y="701"/>
      <point x="173" y="690"/>
      <point x="166" y="680" type="curve" smooth="yes"/>
      <point x="55" y="514" type="line" smooth="yes"/>
      <point x="47" y="503"/>
      <point x="49" y="490"/>
      <point x="61" y="481" type="curve" smooth="yes"/>
      <point x="80" y="467" type="line" smooth="yes"/>
      <point x="92" y="458"/>
      <point x="107" y="463"/>
      <point x="114" y="474" type="curve" smooth="yes"/>
      <point x="198" y="599" type="line"/>
      <point x="276" y="474" type="line" smooth="yes"/>
      <point x="284" y="462"/>
      <point x="297" y="459"/>
    </contour>
  </outline>
</glyph>
<glyph name="underscore" format="2">
  <advance width="620"/>
  <unicode hex="005F"/>
  <note>
underscore
</note>
  <outline>
    <contour>
      <point x="60" y="-124" type="line"/>
      <point x="560" y="-124" type="line"/>
      <point x="560" y="-74" type="line"/>
      <point x="60" y="-74" type="line"/>
    </contour>
  </outline>
</glyph>
<glyph name="grave" format="2">
  <unicode hex="0060"/>
  <anchor x="0" y="500" name="_top"/>
  <outline>
    <contour>
      <point x="-14" y="611" type="curve" smooth="yes"/>
      <point x="1" y="624" type="line" smooth="yes"/>
      <point x="10" y="632"/>
      <point x="11" y="643"/>
      <point x="4" y="652" type="curve" smooth="yes"/>
      <point x="-102" y="778" type="line"/>
      <point x="-110" y="786"/>
      <point x="-121" y="788"/>
      <point x="-130" y="781" type="curve" smooth="yes"/>
      <point x="-145" y="768" type="line" smooth="yes"/>
      <point x="-154" y="760"/>
      <point x="-155" y="749"/>
      <point x="-148" y="740" type="curve" smooth="yes"/>
      <point x="-42" y="614" type="line"/>
      <point x="-34" y="606"/>
      <point x="-23" y="604"/>
    </contour>
  </outline>
</glyph>
<glyph name="a" format="2">
  <advance width="501"/>
  <unicode hex="0061"/>
  <anchor x="251" y="504" name="top"/>
  <outline>
    <contour>
      <point x="101" y="0" type="curve" smooth="yes"/>
      <point x="400" y="0" type="line" smooth="yes"/>
      <point x="429" y="0"/>
      <point x="451" y="22"/>
      <point x="451" y="51" type="curve" smooth="yes"/>
      <point x="451" y="449" type="line" smooth="yes"/>
      <point x="451" y="478"/>
      <point x="429" y="500"/>
      <point x="400" y="500" type="curve" smooth="yes"/>
      <point x="147" y="500" type="line"/>
      <point x="101" y="500" type="line" smooth="yes"/>
      <point x="72" y="500"/>
      <point x="50" y="478"/>
      <point x="50" y="449" type="curve" smooth="yes"/>
      <point x="50" y="413" type="line"/>
      <point x="131" y="414" type="line"/>
      <point x="131" y="439" type="line" smooth="yes"/>
      <point x="131" y="445"/>
      <point x="140" y="452"/>
      <point x="151" y="452" type="curve" smooth="yes"/>
      <point x="350" y="452" type="line" smooth="yes"/>
      <point x="361" y="452"/>
      <point x="370" y="447"/>
      <point x="370" y="439" type="curve" smooth="yes"/>
      <point x="370" y="294" type="line"/>
      <point x="101" y="294" type="line" smooth="yes"/>
      <point x="72" y="294"/>
      <point x="50" y="272"/>
      <point x="50" y="243" type="curve" smooth="yes"/>
      <point x="50" y="51" type="line" smooth="yes"/>
      <point x="50" y="22"/>
      <point x="72" y="0"/>
    </contour>
    <contour>
      <point x="151" y="48" type="line"/>
      <point x="140" y="48"/>
      <point x="131" y="58"/>
      <point x="131" y="71" type="curve" smooth="yes"/>
      <point x="131" y="229" type="line" smooth="yes"/>
      <point x="131" y="240"/>
      <point x="140" y="246"/>
      <point x="151" y="246" type="curve" smooth="yes"/>
      <point x="350" y="246" type="line" smooth="yes"/>
      <point x="361" y="246"/>
      <point x="370" y="236"/>
      <point x="370" y="225" type="curve" smooth="yes"/>
      <point x="370" y="71" type="line" smooth="yes"/>
      <point x="370" y="60"/>
      <point x="361" y="48"/>
      <point x="350" y="48" type="curve" smooth="yes"/>
      <point x="151" y="48" type="line"/>
      <point x="151" y="48" type="line"/>
    </contour>
  </outline>
</glyph>
<glyph name="b" format="2">
  <advance width="501"/>
  <unicode hex="0062"/>
  <outline>
    <contour>
      <point x="101" y="0" type="curve" smooth="yes"/>
      <point x="400" y="0" type="line" smooth="yes"/>
      <point x="429" y="0"/>
      <point x="451" y="22"/>
      <point x="451" y="51" type="curve" smooth="yes"/>
      <point x="451" y="449" type="line" smooth="yes"/>
      <point x="451" y="478"/>
      <point x="429" y="500"/>
      <point x="400" y="500" type="curve" smooth="yes"/>
      <point x="131" y="500" type="line"/>
      <point x="131" y="685" type="line" smooth="yes"/>
      <point x="131" y="696"/>
      <point x="122" y="705"/>
      <point x="111" y="705" type="curve" smooth="yes"/>
      <point x="70" y="705" type="line" smooth="yes"/>
      <point x="59" y="705"/>
      <point x="50" y="696"/>
      <point x="50" y="685" type="curve" smooth="yes"/>
      <point x="50" y="51" type="line" smooth="yes"/>
      <point x="50" y="22"/>
      <point x="72" y="0"/>
    </contour>
    <contour>
      <point x="131" y="71" type="curve" smooth="yes"/>
      <point x="131" y="439" type="line" smooth="yes"/>
      <point x="131" y="445"/>
      <point x="140" y="452"/>
      <point x="151" y="452" type="curve" smooth="yes"/>
      <point x="350" y="452" type="line" smooth="yes"/>
      <point x="361" y="452"/>
      <point x="370" y="447"/>
      <point x="370" y="439" type="curve" smooth="yes"/>
      <point x="370" y="71" type="line" smooth="yes"/>
      <point x="370" y="60"/>
      <point x="361" y="48"/>
      <point x="350" y="48" type="curve" smooth="yes"/>
      <point x="151" y="48" type="line" smooth="yes"/>
      <point x="140" y="48"/>
      <point x="131" y="58"/>
    </contour>
  </outline>
</glyph>
<glyph name="c" format="2">
  <advance width="501"/>
  <unicode hex="0063"/>
  <outline>
    <contour>
      <point x="131" y="61" type="curve" smooth="yes"/>
      <point x="131" y="439" type="line" smooth="yes"/>
      <point x="131" y="450"/>
      <point x="140" y="459"/>
      <point x="151" y="459" type="curve" smooth="yes"/>
      <point x="350" y="459" type="line" smooth="yes"/>
      <point x="361" y="459"/>
      <point x="370" y="450"/>
      <point x="370" y="439" type="curve" smooth="yes"/>
      <point x="370" y="438" type="line" smooth="yes"/>
      <point x="370" y="424"/>
      <point x="380" y="414"/>
      <point x="394" y="414" type="curve" smooth="yes"/>
      <point x="426" y="413" type="line" smooth="yes"/>
      <point x="440" y="413"/>
      <point x="451" y="424"/>
      <point x="451" y="438" type="curve" smooth="yes"/>
      <point x="451" y="449" type="line" smooth="yes"/>
      <point x="451" y="478"/>
      <point x="429" y="500"/>
      <point x="400" y="500" type="curve" smooth="yes"/>
      <point x="101" y="500" type="line" smooth="yes"/>
      <point x="72" y="500"/>
      <point x="50" y="478"/>
      <point x="50" y="449" type="curve" smooth="yes"/>
      <point x="50" y="51" type="line" smooth="yes"/>
      <point x="50" y="22"/>
      <point x="72" y="0"/>
      <point x="101" y="0" type="curve" smooth="yes"/>
      <point x="400" y="0" type="line" smooth="yes"/>
      <point x="429" y="0"/>
      <point x="451" y="22"/>
      <point x="451" y="51" type="curve" smooth="yes"/>
      <point x="451" y="60"/>
      <point x="441" y="67"/>
      <point x="427" y="67" type="curve" smooth="yes"/>
      <point x="395" y="68" type="line" smooth="yes"/>
      <point x="381" y="68"/>
      <point x="370" y="65"/>
      <point x="370" y="61" type="curve" smooth="yes"/>
      <point x="370" y="50"/>
      <point x="361" y="41"/>
      <point x="350" y="41" type="curve" smooth="yes"/>
      <point x="151" y="41" type="line" smooth="yes"/>
      <point x="140" y="41"/>
      <point x="131" y="50"/>
    </contour>
  </outline>
</glyph>
<glyph name="d" format="2">
  <advance width="501"/>
  <unicode hex="0064"/>
  <outline>
    <contour>
      <point x="400" y="0" type="line"/>
      <point x="429" y="0"/>
      <point x="451" y="22"/>
      <point x="451" y="51" type="curve" smooth="yes"/>
      <point x="451" y="688" type="line" smooth="yes"/>
      <point x="451" y="699"/>
      <point x="442" y="708"/>
      <point x="431" y="708" type="curve" smooth="yes"/>
      <point x="390" y="708" type="line" smooth="yes"/>
      <point x="379" y="708"/>
      <point x="370" y="699"/>
      <point x="370" y="688" type="curve" smooth="yes"/>
      <point x="370" y="500" type="line"/>
      <point x="101" y="500" type="line" smooth="yes"/>
      <point x="72" y="500"/>
      <point x="50" y="478"/>
      <point x="50" y="449" type="curve" smooth="yes"/>
      <point x="50" y="51" type="line" smooth="yes"/>
      <point x="50" y="22"/>
      <point x="72" y="0"/>
      <point x="101" y="0" type="curve" smooth="yes"/>
      <point x="400" y="0" type="line"/>
      <point x="400" y="0" type="line"/>
    </contour>
    <contour>
      <point x="370" y="71" type="line"/>
      <point x="370" y="58"/>
      <point x="361" y="48"/>
      <point x="350" y="48" type="curve" smooth="yes"/>
      <point x="151" y="48" type="line" smooth="yes"/>
      <point x="140" y="48"/>
      <point x="131" y="60"/>
      <point x="131" y="71" type="curve" smooth="yes"/>
      <point x="131" y="439" type="line" smooth="yes"/>
      <point x="131" y="447"/>
      <point x="140" y="452"/>
      <point x="151" y="452" type="curve" smooth="yes"/>
      <point x="350" y="452" type="line" smooth="yes"/>
      <point x="361" y="452"/>
      <point x="370" y="445"/>
      <point x="370" y="439" type="curve" smooth="yes"/>
      <point x="370" y="71" type="line"/>
      <point x="370" y="71" type="line"/>
    </contour>
  </outline>
</glyph>
<glyph name="e" format="2">
  <advance width="501"/>
  <unicode hex="0065"/>
  <anchor x="252" y="501" name="top"/>
  <outline>
    <contour>
      <point x="131" y="61" type="curve" smooth="yes"/>
      <point x="131" y="249" type="line"/>
      <point x="303" y="249" type="line" smooth="yes"/>
      <point x="320" y="249"/>
      <point x="329" y="251"/>
      <point x="332" y="256" type="curve" smooth="yes"/>
      <point x="408" y="381" type="line" smooth="yes"/>
      <point x="420" y="401"/>
      <point x="437" y="421"/>
      <point x="438" y="449" type="curve" smooth="yes"/>
      <point x="439" y="487"/>
      <point x="429" y="500"/>
      <point x="400" y="500" type="curve" smooth="yes"/>
      <point x="101" y="500" type="line" smooth="yes"/>
      <point x="72" y="500"/>
      <point x="50" y="478"/>
      <point x="50" y="449" type="curve" smooth="yes"/>
      <point x="50" y="51" type="line" smooth="yes"/>
      <point x="50" y="22"/>
      <point x="72" y="0"/>
      <point x="101" y="0" type="curve" smooth="yes"/>
      <point x="400" y="0" type="line" smooth="yes"/>
      <point x="429" y="0"/>
      <point x="451" y="22"/>
      <point x="451" y="51" type="curve" smooth="yes"/>
      <point x="451" y="60"/>
      <point x="441" y="67"/>
      <point x="427" y="67" type="curve" smooth="yes"/>
      <point x="395" y="68" type="line" smooth="yes"/>
      <point x="381" y="68"/>
      <point x="370" y="65"/>
      <point x="370" y="61" type="curve" smooth="yes"/>
      <point x="370" y="50"/>
      <point x="361" y="41"/>
      <point x="350" y="41" type="curve" smooth="yes"/>
      <point x="151" y="41" type="line" smooth="yes"/>
      <point x="140" y="41"/>
      <point x="131" y="50"/>
    </contour>
    <contour>
      <point x="131" y="439" type="line"/>
      <point x="131" y="450"/>
      <point x="140" y="459"/>
      <point x="151" y="459" type="curve" smooth="yes"/>
      <point x="350" y="459" type="line" smooth="yes"/>
      <point x="381" y="459"/>
      <point x="383" y="443"/>
      <point x="378" y="434" type="curve" smooth="yes"/>
      <point x="308" y="314" type="line" smooth="yes"/>
      <point x="303" y="306"/>
      <point x="292" y="302"/>
      <point x="257" y="303" type="curve" smooth="yes"/>
      <point x="131" y="303" type="line"/>
      <point x="131" y="439" type="line"/>
      <point x="131" y="439" type="line"/>
    </contour>
  </outline>
</glyph>
<glyph name="g" format="2">
  <advance width="502"/>
  <unicode hex="0067"/>
  <anchor x="-248" y="-4" name="bottom"/>
  <anchor x="253" y="504" name="top"/>
  <outline>
    <contour>
      <point x="101" y="-199" type="curve" smooth="yes"/>
      <point x="400" y="-199" type="line" smooth="yes"/>
      <point x="429" y="-199"/>
      <point x="451" y="-177"/>
      <point x="451" y="-148" type="curve" smooth="yes"/>
      <point x="451" y="23" type="line"/>
      <point x="370" y="-12" type="line"/>
      <point x="370" y="-138" type="line" smooth="yes"/>
      <point x="370" y="-146"/>
      <point x="361" y="-151"/>
      <point x="350" y="-151" type="curve" smooth="yes"/>
      <point x="151" y="-151" type="line" smooth="yes"/>
      <point x="140" y="-151"/>
      <point x="131" y="-144"/>
      <point x="131" y="-138" type="curve" smooth="yes"/>
      <point x="131" y="-136" type="line" smooth="yes"/>
      <point x="131" y="-123"/>
      <point x="121" y="-113"/>
      <point x="108" y="-113" type="curve" smooth="yes"/>
      <point x="74" y="-112" type="line" smooth="yes"/>
      <point x="61" y="-112"/>
      <point x="50" y="-123"/>
      <point x="50" y="-136" type="curve" smooth="yes"/>
      <point x="50" y="-148" type="line" smooth="yes"/>
      <point x="50" y="-177"/>
      <point x="72" y="-199"/>
    </contour>
    <component base="b.base" xScale="-1" yScale="-1" xOffset="502" yOffset="506"/>
  </outline>
</glyph>
<glyph name="h" format="2">
  <advance width="501"/>
  <unicode hex="0068"/>
  <outline>
    <contour>
      <point x="70" y="0" type="curve" smooth="yes"/>
      <point x="111" y="0" type="line" smooth="yes"/>
      <point x="122" y="0"/>
      <point x="131" y="9"/>
      <point x="131" y="20" type="curve" smooth="yes"/>
      <point x="131" y="432" type="line" smooth="yes"/>
      <point x="131" y="443"/>
      <point x="140" y="453"/>
      <point x="151" y="453" type="curve" smooth="yes"/>
      <point x="350" y="453" type="line" smooth="yes"/>
      <point x="361" y="453"/>
      <point x="370" y="443"/>
      <point x="370" y="432" type="curve" smooth="yes"/>
      <point x="370" y="20" type="line" smooth="yes"/>
      <point x="370" y="9"/>
      <point x="379" y="0"/>
      <point x="390" y="0" type="curve" smooth="yes"/>
      <point x="431" y="0" type="line" smooth="yes"/>
      <point x="442" y="0"/>
      <point x="451" y="9"/>
      <point x="451" y="20" type="curve" smooth="yes"/>
      <point x="451" y="449" type="line" smooth="yes"/>
      <point x="451" y="478"/>
      <point x="429" y="500"/>
      <point x="400" y="500" type="curve" smooth="yes"/>
      <point x="125" y="500" type="line"/>
      <point x="125" y="684" type="line" smooth="yes"/>
      <point x="125" y="695"/>
      <point x="116" y="704"/>
      <point x="105" y="704" type="curve" smooth="yes"/>
      <point x="70" y="704" type="line" smooth="yes"/>
      <point x="59" y="704"/>
      <point x="50" y="695"/>
      <point x="50" y="684" type="curve" smooth="yes"/>
      <point x="50" y="20" type="line" smooth="yes"/>
      <point x="50" y="9"/>
      <point x="59" y="0"/>
    </contour>
  </outline>
</glyph>
<glyph name="i" format="2">
  <advance width="204"/>
  <unicode hex="0069"/>
  <outline>
    <contour>
      <point x="101" y="0" type="curve" smooth="yes"/>
      <point x="130" y="0" type="line" smooth="yes"/>
      <point x="144" y="0"/>
      <point x="154" y="10"/>
      <point x="154" y="24" type="curve" smooth="yes"/>
      <point x="154" y="27" type="line" smooth="yes"/>
      <point x="154" y="36"/>
      <point x="149" y="43"/>
      <point x="140" y="47" type="curve" smooth="yes"/>
      <point x="131" y="51" type="line"/>
      <point x="131" y="480" type="line" smooth="yes"/>
      <point x="131" y="491"/>
      <point x="122" y="500"/>
      <point x="111" y="500" type="curve" smooth="yes"/>
      <point x="70" y="500" type="line" smooth="yes"/>
      <point x="59" y="500"/>
      <point x="50" y="491"/>
      <point x="50" y="480" type="curve" smooth="yes"/>
      <point x="50" y="51" type="line" smooth="yes"/>
      <point x="50" y="22"/>
      <point x="72" y="0"/>
    </contour>
    <contour>
      <point x="77" y="601" type="curve" smooth="yes"/>
      <point x="104" y="601" type="line" smooth="yes"/>
      <point x="120" y="601"/>
      <point x="131" y="612"/>
      <point x="131" y="628" type="curve" smooth="yes"/>
      <point x="131" y="679" type="line" smooth="yes"/>
      <point x="131" y="695"/>
      <point x="120" y="706"/>
      <point x="104" y="706" type="curve" smooth="yes"/>
      <point x="77" y="706" type="line" smooth="yes"/>
      <point x="61" y="706"/>
      <point x="50" y="695"/>
      <point x="50" y="679" type="curve" smooth="yes"/>
      <point x="50" y="628" type="line" smooth="yes"/>
      <point x="50" y="612"/>
      <point x="61" y="601"/>
    </contour>
  </outline>
</glyph>
<glyph name="j" format="2">
  <advance width="197"/>
  <unicode hex="006A"/>
  <outline>
    <contour>
      <point x="116" y="601" type="line"/>
      <point x="132" y="601"/>
      <point x="143" y="612"/>
      <point x="143" y="628" type="curve" smooth="yes"/>
      <point x="143" y="679" type="line" smooth="yes"/>
      <point x="143" y="695"/>
      <point x="132" y="706"/>
      <point x="116" y="706" type="curve" smooth="yes"/>
      <point x="89" y="706" type="line" smooth="yes"/>
      <point x="73" y="706"/>
      <point x="62" y="695"/>
      <point x="62" y="679" type="curve" smooth="yes"/>
      <point x="62" y="628" type="line" smooth="yes"/>
      <point x="62" y="612"/>
      <point x="73" y="601"/>
      <point x="89" y="601" type="curve" smooth="yes"/>
      <point x="116" y="601" type="line"/>
      <point x="116" y="601" type="line"/>
    </contour>
    <contour>
      <point x="-1" y="-143" type="line"/>
      <point x="-15" y="-174"/>
      <point x="8" y="-183"/>
      <point x="20" y="-189" type="curve" smooth="yes"/>
      <point x="33" y="-194"/>
      <point x="46" y="-189"/>
      <point x="52" y="-177" type="curve" smooth="yes"/>
      <point x="144" y="-6" type="line" smooth="yes"/>
      <point x="147" y="-1"/>
      <point x="146" y="8"/>
      <point x="146" y="11" type="curve" smooth="yes"/>
      <point x="146" y="480" type="line" smooth="yes"/>
      <point x="146" y="491"/>
      <point x="137" y="500"/>
      <point x="126" y="500" type="curve" smooth="yes"/>
      <point x="85" y="500" type="line" smooth="yes"/>
      <point x="74" y="500"/>
      <point x="65" y="491"/>
      <point x="65" y="480" type="curve" smooth="yes"/>
      <point x="65" y="12" type="line" smooth="yes"/>
      <point x="65" y="10"/>
      <point x="65" y="1"/>
      <point x="62" y="-5" type="curve" smooth="yes"/>
      <point x="-1" y="-143" type="line"/>
      <point x="-1" y="-143" type="line"/>
    </contour>
  </outline>
</glyph>
<glyph name="k" format="2">
  <advance width="403"/>
  <unicode hex="006B"/>
  <outline>
    <contour>
      <point x="70" y="-3" type="curve" smooth="yes"/>
      <point x="111" y="-3" type="line" smooth="yes"/>
      <point x="122" y="-3"/>
      <point x="131" y="13"/>
      <point x="131" y="32" type="curve" smooth="yes"/>
      <point x="131" y="253" type="line"/>
      <point x="172" y="253" type="line"/>
      <point x="322" y="4" type="line"/>
      <point x="373" y="4" type="line"/>
      <point x="220" y="262" type="line"/>
      <point x="360" y="500" type="line"/>
      <point x="309" y="500" type="line"/>
      <point x="182" y="285" type="line"/>
      <point x="131" y="286" type="line"/>
      <point x="132" y="686" type="line" smooth="yes"/>
      <point x="132" y="697"/>
      <point x="123" y="706"/>
      <point x="112" y="706" type="curve" smooth="yes"/>
      <point x="71" y="706" type="line" smooth="yes"/>
      <point x="60" y="706"/>
      <point x="51" y="697"/>
      <point x="51" y="686" type="curve" smooth="yes"/>
      <point x="50" y="32" type="line" smooth="yes"/>
      <point x="50" y="13"/>
      <point x="59" y="-3"/>
    </contour>
  </outline>
</glyph>
<glyph name="l" format="2">
  <advance width="228"/>
  <unicode hex="006C"/>
  <outline>
    <contour>
      <point x="101" y="0" type="curve" smooth="yes"/>
      <point x="153" y="0" type="line" smooth="yes"/>
      <point x="167" y="0"/>
      <point x="178" y="10"/>
      <point x="178" y="21" type="curve" smooth="yes"/>
      <point x="177" y="33"/>
      <point x="167" y="41"/>
      <point x="154" y="41" type="curve" smooth="yes"/>
      <point x="151" y="41" type="line" smooth="yes"/>
      <point x="140" y="41"/>
      <point x="131" y="50"/>
      <point x="131" y="61" type="curve" smooth="yes"/>
      <point x="131" y="686" type="line" smooth="yes"/>
      <point x="131" y="697"/>
      <point x="122" y="706"/>
      <point x="111" y="706" type="curve" smooth="yes"/>
      <point x="70" y="706" type="line" smooth="yes"/>
      <point x="59" y="706"/>
      <point x="50" y="697"/>
      <point x="50" y="686" type="curve" smooth="yes"/>
      <point x="50" y="51" type="line" smooth="yes"/>
      <point x="50" y="22"/>
      <point x="72" y="0"/>
    </contour>
  </outline>
</glyph>
<glyph name="m" format="2">
  <advance width="681"/>
  <unicode hex="006D"/>
  <outline>
    <contour>
      <point x="381" y="20" type="curve" smooth="yes"/>
      <point x="381" y="481" type="line" smooth="yes"/>
      <point x="381" y="492"/>
      <point x="365" y="501"/>
      <point x="339" y="501" type="curve" smooth="yes"/>
      <point x="316" y="501"/>
      <point x="300" y="493"/>
      <point x="300" y="474" type="curve" smooth="yes"/>
      <point x="300" y="20" type="line" smooth="yes"/>
      <point x="300" y="9"/>
      <point x="309" y="0"/>
      <point x="320" y="0" type="curve" smooth="yes"/>
      <point x="361" y="0" type="line" smooth="yes"/>
      <point x="372" y="0"/>
      <point x="381" y="9"/>
    </contour>
    <contour>
      <point x="131" y="20" type="curve" smooth="yes"/>
      <point x="131" y="481" type="line" smooth="yes"/>
      <point x="131" y="492"/>
      <point x="115" y="501"/>
      <point x="89" y="501" type="curve" smooth="yes"/>
      <point x="66" y="501"/>
      <point x="50" y="493"/>
      <point x="50" y="474" type="curve" smooth="yes"/>
      <point x="50" y="20" type="line" smooth="yes"/>
      <point x="50" y="9"/>
      <point x="59" y="0"/>
      <point x="70" y="0" type="curve" smooth="yes"/>
      <point x="111" y="0" type="line" smooth="yes"/>
      <point x="122" y="0"/>
      <point x="131" y="9"/>
    </contour>
    <contour>
      <point x="631" y="20" type="curve" smooth="yes"/>
      <point x="631" y="481" type="line" smooth="yes"/>
      <point x="631" y="492"/>
      <point x="615" y="501"/>
      <point x="589" y="501" type="curve" smooth="yes"/>
      <point x="566" y="501"/>
      <point x="550" y="493"/>
      <point x="550" y="474" type="curve" smooth="yes"/>
      <point x="550" y="20" type="line" smooth="yes"/>
      <point x="550" y="9"/>
      <point x="559" y="0"/>
      <point x="570" y="0" type="curve" smooth="yes"/>
      <point x="611" y="0" type="line" smooth="yes"/>
      <point x="622" y="0"/>
      <point x="631" y="9"/>
    </contour>
    <contour>
      <point x="326" y="316" type="line"/>
      <point x="576" y="439" type="line" smooth="yes"/>
      <point x="605" y="453"/>
      <point x="599" y="472"/>
      <point x="593" y="484" type="curve" smooth="yes"/>
      <point x="587" y="497"/>
      <point x="573" y="502"/>
      <point x="561" y="496" type="curve" smooth="yes"/>
      <point x="310" y="372" type="line"/>
      <point x="326" y="316" type="line"/>
      <point x="326" y="316" type="line"/>
    </contour>
    <contour>
      <point x="76" y="326" type="line"/>
      <point x="326" y="439" type="line" smooth="yes"/>
      <point x="355" y="452"/>
      <point x="349" y="472"/>
      <point x="343" y="484" type="curve" smooth="yes"/>
      <point x="337" y="497"/>
      <point x="323" y="502"/>
      <point x="311" y="496" type="curve" smooth="yes"/>
      <point x="60" y="382" type="line"/>
      <point x="76" y="326" type="line"/>
      <point x="76" y="326" type="line"/>
    </contour>
  </outline>
</glyph>
<glyph name="n" format="2">
  <advance width="501"/>
  <unicode hex="006E"/>
  <anchor x="260" y="507" name="top"/>
  <outline>
    <contour>
      <point x="134" y="20" type="curve" smooth="yes"/>
      <point x="134" y="481" type="line" smooth="yes"/>
      <point x="134" y="492"/>
      <point x="118" y="501"/>
      <point x="92" y="501" type="curve" smooth="yes"/>
      <point x="69" y="501"/>
      <point x="53" y="493"/>
      <point x="53" y="474" type="curve" smooth="yes"/>
      <point x="53" y="20" type="line" smooth="yes"/>
      <point x="53" y="9"/>
      <point x="62" y="0"/>
      <point x="73" y="0" type="curve" smooth="yes"/>
      <point x="114" y="0" type="line" smooth="yes"/>
      <point x="125" y="0"/>
      <point x="134" y="9"/>
    </contour>
    <contour>
      <point x="451" y="20" type="curve" smooth="yes"/>
      <point x="451" y="481" type="line" smooth="yes"/>
      <point x="451" y="492"/>
      <point x="435" y="501"/>
      <point x="409" y="501" type="curve" smooth="yes"/>
      <point x="386" y="501"/>
      <point x="370" y="493"/>
      <point x="370" y="474" type="curve" smooth="yes"/>
      <point x="370" y="20" type="line" smooth="yes"/>
      <point x="370" y="9"/>
      <point x="379" y="0"/>
      <point x="390" y="0" type="curve" smooth="yes"/>
      <point x="431" y="0" type="line" smooth="yes"/>
      <point x="442" y="0"/>
      <point x="451" y="9"/>
    </contour>
    <contour>
      <point x="116" y="360" type="line"/>
      <point x="396" y="439" type="line" smooth="yes"/>
      <point x="425" y="447"/>
      <point x="419" y="472"/>
      <point x="413" y="484" type="curve" smooth="yes"/>
      <point x="407" y="497"/>
      <point x="393" y="499"/>
      <point x="381" y="496" type="curve" smooth="yes"/>
      <point x="100" y="416" type="line"/>
      <point x="116" y="360" type="line"/>
      <point x="116" y="360" type="line"/>
    </contour>
  </outline>
</glyph>
<glyph name="o" format="2">
  <advance width="521"/>
  <unicode hex="006F"/>
  <anchor x="261" y="504" name="top"/>
  <outline>
    <contour>
      <point x="420" y="500" type="curve" smooth="yes"/>
      <point x="101" y="500" type="line" smooth="yes"/>
      <point x="78" y="500"/>
      <point x="60" y="482"/>
      <point x="60" y="459" type="curve" smooth="yes"/>
      <point x="60" y="41" type="line" smooth="yes"/>
      <point x="60" y="18"/>
      <point x="78" y="0"/>
      <point x="101" y="0" type="curve" smooth="yes"/>
      <point x="420" y="0" type="line" smooth="yes"/>
      <point x="443" y="0"/>
      <point x="461" y="18"/>
      <point x="461" y="41" type="curve" smooth="yes"/>
      <point x="461" y="459" type="line" smooth="yes"/>
      <point x="461" y="482"/>
      <point x="443" y="500"/>
    </contour>
    <contour>
      <point x="360" y="47" type="curve" smooth="yes"/>
      <point x="161" y="47" type="line" smooth="yes"/>
      <point x="150" y="47"/>
      <point x="141" y="56"/>
      <point x="141" y="67" type="curve" smooth="yes"/>
      <point x="141" y="433" type="line" smooth="yes"/>
      <point x="141" y="444"/>
      <point x="150" y="453"/>
      <point x="161" y="453" type="curve" smooth="yes"/>
      <point x="360" y="453" type="line" smooth="yes"/>
      <point x="371" y="453"/>
      <point x="380" y="444"/>
      <point x="380" y="433" type="curve" smooth="yes"/>
      <point x="380" y="67" type="line" smooth="yes"/>
      <point x="380" y="56"/>
      <point x="371" y="47"/>
    </contour>
  </outline>
</glyph>
<glyph name="p" format="2">
  <advance width="501"/>
  <unicode hex="0070"/>
  <outline>
    <contour>
      <point x="70" y="-200" type="curve" smooth="yes"/>
      <point x="111" y="-200" type="line" smooth="yes"/>
      <point x="122" y="-200"/>
      <point x="131" y="-191"/>
      <point x="131" y="-180" type="curve" smooth="yes"/>
      <point x="131" y="0" type="line"/>
      <point x="400" y="0" type="line" smooth="yes"/>
      <point x="429" y="0"/>
      <point x="451" y="12"/>
      <point x="451" y="41" type="curve" smooth="yes"/>
      <point x="451" y="450" type="line"/>
      <point x="450.947" y="451.463" type="line" smooth="yes"/>
      <point x="450" y="479"/>
      <point x="428.173" y="500"/>
      <point x="400" y="500" type="curve" smooth="yes"/>
      <point x="101" y="500" type="line" smooth="yes"/>
      <point x="72.827" y="500"/>
      <point x="51" y="479"/>
      <point x="50.053" y="451.463" type="curve" smooth="yes"/>
      <point x="50" y="450" type="line"/>
      <point x="50" y="-180" type="line" smooth="yes"/>
      <point x="50" y="-191"/>
      <point x="59" y="-200"/>
    </contour>
    <contour>
      <point x="131" y="67" type="curve" smooth="yes"/>
      <point x="131" y="443" type="line" smooth="yes"/>
      <point x="131" y="454"/>
      <point x="140" y="463"/>
      <point x="151" y="463" type="curve" smooth="yes"/>
      <point x="350" y="463" type="line" smooth="yes"/>
      <point x="361" y="463"/>
      <point x="370" y="454"/>
      <point x="370" y="443" type="curve" smooth="yes"/>
      <point x="370" y="67" type="line" smooth="yes"/>
      <point x="370" y="56"/>
      <point x="361" y="47"/>
      <point x="350" y="47" type="curve" smooth="yes"/>
      <point x="151" y="47" type="line" smooth="yes"/>
      <point x="140" y="47"/>
      <point x="131" y="56"/>
    </contour>
  </outline>
</glyph>
<glyph name="r" format="2">
  <advance width="481"/>
  <unicode hex="0072"/>
  <outline>
    <contour>
      <point x="70" y="10" type="curve" smooth="yes"/>
      <point x="111" y="10" type="line" smooth="yes"/>
      <point x="122" y="10"/>
      <point x="131" y="19"/>
      <point x="131" y="30" type="curve" smooth="yes"/>
      <point x="131" y="443" type="line" smooth="yes"/>
      <point x="131" y="454"/>
      <point x="140" y="463"/>
      <point x="151" y="463" type="curve" smooth="yes"/>
      <point x="350" y="463" type="line" smooth="yes"/>
      <point x="361" y="463"/>
      <point x="370" y="454"/>
      <point x="370" y="443" type="curve" smooth="yes"/>
      <point x="370" y="433"/>
      <point x="381" y="426"/>
      <point x="395" y="426" type="curve" smooth="yes"/>
      <point x="427" y="427" type="line" smooth="yes"/>
      <point x="440" y="427"/>
      <point x="451" y="439"/>
      <point x="451" y="452" type="curve" smooth="yes"/>
      <point x="451" y="459" type="line" smooth="yes"/>
      <point x="451" y="488"/>
      <point x="429" y="510"/>
      <point x="400" y="510" type="curve" smooth="yes"/>
      <point x="101" y="510" type="line" smooth="yes"/>
      <point x="72" y="510"/>
      <point x="50" y="488"/>
      <point x="50" y="459" type="curve" smooth="yes"/>
      <point x="50" y="30" type="line" smooth="yes"/>
      <point x="50" y="19"/>
      <point x="59" y="10"/>
    </contour>
  </outline>
</glyph>
<glyph name="s" format="2">
  <advance width="501"/>
  <unicode hex="0073"/>
  <outline>
    <contour>
      <point x="101" y="0" type="curve" smooth="yes"/>
      <point x="400" y="0" type="line" smooth="yes"/>
      <point x="429" y="0"/>
      <point x="451" y="22"/>
      <point x="451" y="51" type="curve" smooth="yes"/>
      <point x="451" y="243" type="line" smooth="yes"/>
      <point x="451" y="272"/>
      <point x="429" y="294"/>
      <point x="400" y="294" type="curve" smooth="yes"/>
      <point x="131" y="294" type="line"/>
      <point x="131" y="439" type="line" smooth="yes"/>
      <point x="131" y="447"/>
      <point x="140" y="452"/>
      <point x="151" y="452" type="curve" smooth="yes"/>
      <point x="350" y="452" type="line" smooth="yes"/>
      <point x="361" y="452"/>
      <point x="370" y="445"/>
      <point x="370" y="439" type="curve" smooth="yes"/>
      <point x="370" y="438" type="line" smooth="yes"/>
      <point x="370" y="424"/>
      <point x="380" y="414"/>
      <point x="394" y="414" type="curve" smooth="yes"/>
      <point x="426" y="413" type="line" smooth="yes"/>
      <point x="440" y="413"/>
      <point x="451" y="424"/>
      <point x="451" y="438" type="curve" smooth="yes"/>
      <point x="451" y="449" type="line" smooth="yes"/>
      <point x="451" y="478"/>
      <point x="429" y="500"/>
      <point x="400" y="500" type="curve" smooth="yes"/>
      <point x="101" y="500" type="line" smooth="yes"/>
      <point x="72" y="500"/>
      <point x="50" y="478"/>
      <point x="50" y="449" type="curve" smooth="yes"/>
      <point x="50" y="265" type="line" smooth="yes"/>
      <point x="50" y="251"/>
      <point x="60" y="241"/>
      <point x="74" y="241" type="curve" smooth="yes"/>
      <point x="340" y="241" type="line" smooth="yes"/>
      <point x="360" y="241"/>
      <point x="370" y="237"/>
      <point x="370" y="229" type="curve" smooth="yes"/>
      <point x="370" y="71" type="line" smooth="yes"/>
      <point x="370" y="58"/>
      <point x="361" y="48"/>
      <point x="350" y="48" type="curve" smooth="yes"/>
      <point x="151" y="48" type="line" smooth="yes"/>
      <point x="140" y="48"/>
      <point x="131" y="60"/>
      <point x="131" y="71" type="curve" smooth="yes"/>
      <point x="131" y="76"/>
      <point x="121" y="79"/>
      <point x="107" y="79" type="curve" smooth="yes"/>
      <point x="75" y="80" type="line" smooth="yes"/>
      <point x="61" y="80"/>
      <point x="50" y="69"/>
      <point x="50" y="55" type="curve" smooth="yes"/>
      <point x="50" y="51" type="line" smooth="yes"/>
      <point x="50" y="22"/>
      <point x="72" y="0"/>
    </contour>
  </outline>
</glyph>
<glyph name="t" format="2">
  <advance width="351"/>
  <unicode hex="0074"/>
  <outline>
    <contour>
      <point x="145" y="0" type="curve" smooth="yes"/>
      <point x="174" y="0" type="line" smooth="yes"/>
      <point x="188" y="0"/>
      <point x="198" y="10"/>
      <point x="198" y="24" type="curve" smooth="yes"/>
      <point x="198" y="27" type="line" smooth="yes"/>
      <point x="198" y="36"/>
      <point x="193" y="43"/>
      <point x="184" y="47" type="curve" smooth="yes"/>
      <point x="175" y="51" type="line"/>
      <point x="175" y="470" type="line"/>
      <point x="297" y="470" type="line" smooth="yes"/>
      <point x="311" y="470"/>
      <point x="321" y="480"/>
      <point x="321" y="494" type="curve" smooth="yes"/>
      <point x="321" y="508"/>
      <point x="311" y="518"/>
      <point x="297" y="518" type="curve" smooth="yes"/>
      <point x="173.45" y="518" type="line"/>
      <point x="174" y="524" type="line"/>
      <point x="174" y="679" type="line" smooth="yes"/>
      <point x="174" y="695"/>
      <point x="163" y="706"/>
      <point x="147" y="706" type="curve" smooth="yes"/>
      <point x="120" y="706" type="line" smooth="yes"/>
      <point x="104" y="706"/>
      <point x="93" y="695"/>
      <point x="93" y="679" type="curve" smooth="yes"/>
      <point x="93" y="524" type="line"/>
      <point x="93.55" y="518" type="line"/>
      <point x="74" y="518" type="line" smooth="yes"/>
      <point x="60" y="518"/>
      <point x="50" y="508"/>
      <point x="50" y="494" type="curve" smooth="yes"/>
      <point x="50" y="480"/>
      <point x="60" y="470"/>
      <point x="74" y="470" type="curve" smooth="yes"/>
      <point x="94" y="470" type="line"/>
      <point x="94" y="51" type="line" smooth="yes"/>
      <point x="94" y="22"/>
      <point x="116" y="0"/>
    </contour>
  </outline>
</glyph>
<glyph name="u" format="2">
  <advance width="521"/>
  <unicode hex="0075"/>
  <anchor x="254" y="499" name="top"/>
  <outline>
    <contour>
      <point x="380" y="480" type="curve" smooth="yes"/>
      <point x="380" y="66" type="line" smooth="yes"/>
      <point x="380" y="55"/>
      <point x="371" y="46"/>
      <point x="360" y="46" type="curve" smooth="yes"/>
      <point x="161" y="46" type="line" smooth="yes"/>
      <point x="150" y="46"/>
      <point x="141" y="55"/>
      <point x="141" y="66" type="curve" smooth="yes"/>
      <point x="141" y="480" type="line" smooth="yes"/>
      <point x="141" y="491"/>
      <point x="132" y="500"/>
      <point x="121" y="500" type="curve" smooth="yes"/>
      <point x="80" y="500" type="line" smooth="yes"/>
      <point x="69" y="500"/>
      <point x="60" y="491"/>
      <point x="60" y="480" type="curve" smooth="yes"/>
      <point x="60" y="51" type="line" smooth="yes"/>
      <point x="60" y="22"/>
      <point x="82" y="0"/>
      <point x="111" y="0" type="curve" smooth="yes"/>
      <point x="410" y="0" type="line" smooth="yes"/>
      <point x="439" y="0"/>
      <point x="461" y="22"/>
      <point x="461" y="51" type="curve" smooth="yes"/>
      <point x="461" y="480" type="line" smooth="yes"/>
      <point x="461" y="491"/>
      <point x="452" y="500"/>
      <point x="441" y="500" type="curve" smooth="yes"/>
      <point x="400" y="500" type="line" smooth="yes"/>
      <point x="389" y="500"/>
      <point x="380" y="491"/>
    </contour>
  </outline>
</glyph>
<glyph name="v" format="2">
  <advance width="501"/>
  <unicode hex="0076"/>
  <outline>
    <contour>
      <point x="435" y="500" type="curve" smooth="yes"/>
      <point x="417" y="501"/>
      <point x="391" y="495"/>
      <point x="388" y="486" type="curve" smooth="yes"/>
      <point x="254" y="75" type="line"/>
      <point x="121" y="486" type="line" smooth="yes"/>
      <point x="118" y="494"/>
      <point x="90" y="501"/>
      <point x="77" y="501" type="curve" smooth="yes"/>
      <point x="57" y="501"/>
      <point x="43" y="484"/>
      <point x="50" y="464" type="curve" smooth="yes"/>
      <point x="214" y="12" type="line" smooth="yes"/>
      <point x="218" y="2"/>
      <point x="227" y="-2"/>
      <point x="254" y="-2" type="curve" smooth="yes"/>
      <point x="280" y="-2"/>
      <point x="294" y="3"/>
      <point x="298" y="13" type="curve" smooth="yes"/>
      <point x="461" y="463" type="line" smooth="yes"/>
      <point x="468" y="482"/>
      <point x="455" y="499"/>
    </contour>
  </outline>
</glyph>
<glyph name="w" format="2">
  <advance width="685"/>
  <unicode hex="0077"/>
  <outline>
    <contour>
      <point x="443" y="1" type="curve" smooth="yes"/>
      <point x="465" y="-7"/>
      <point x="483" y="-5"/>
      <point x="489" y="13" type="curve" smooth="yes"/>
      <point x="644" y="461" type="line" smooth="yes"/>
      <point x="648" y="472"/>
      <point x="640" y="485"/>
      <point x="617" y="495" type="curve" smooth="yes"/>
      <point x="607" y="499"/>
      <point x="589" y="499"/>
      <point x="586" y="489" type="curve" smooth="yes"/>
      <point x="449" y="83" type="line"/>
      <point x="363" y="320" type="line" smooth="yes"/>
      <point x="358" y="334"/>
      <point x="344" y="342"/>
      <point x="332" y="342" type="curve" smooth="yes"/>
      <point x="321" y="341"/>
      <point x="307" y="335"/>
      <point x="303" y="321" type="curve" smooth="yes"/>
      <point x="230" y="85" type="line"/>
      <point x="85" y="489" type="line" smooth="yes"/>
      <point x="81" y="499"/>
      <point x="63" y="500"/>
      <point x="43" y="490" type="curve" smooth="yes"/>
      <point x="33" y="485"/>
      <point x="27" y="472"/>
      <point x="31" y="461" type="curve" smooth="yes"/>
      <point x="188" y="6" type="line" smooth="yes"/>
      <point x="192" y="-4"/>
      <point x="210" y="-5"/>
      <point x="235" y="2" type="curve" smooth="yes"/>
      <point x="242" y="4"/>
      <point x="260" y="9"/>
      <point x="263" y="19" type="curve" smooth="yes"/>
      <point x="330" y="251" type="line" smooth="yes"/>
      <point x="331" y="254"/>
      <point x="331" y="256"/>
      <point x="333" y="256" type="curve" smooth="yes"/>
      <point x="335" y="256"/>
      <point x="335" y="253"/>
      <point x="336" y="251" type="curve" smooth="yes"/>
      <point x="411" y="26" type="line" smooth="yes"/>
      <point x="413" y="18"/>
      <point x="424" y="7"/>
    </contour>
  </outline>
</glyph>
<glyph name="x" format="2">
  <advance width="453"/>
  <unicode hex="0078"/>
  <outline>
    <contour>
      <point x="341" y="2" type="curve" smooth="yes"/>
      <point x="382" y="2" type="line" smooth="yes"/>
      <point x="393" y="2"/>
      <point x="405" y="11"/>
      <point x="402" y="22" type="curve" smooth="yes"/>
      <point x="342" y="221" type="line" smooth="yes"/>
      <point x="336.841" y="237.625"/>
      <point x="330.366" y="251.949"/>
      <point x="320.317" y="261.147" type="curve"/>
      <point x="330.013" y="270.355"/>
      <point x="336.328" y="284.551"/>
      <point x="342" y="301" type="curve" smooth="yes"/>
      <point x="402" y="480" type="line" smooth="yes"/>
      <point x="406" y="491"/>
      <point x="393" y="500"/>
      <point x="382" y="500" type="curve" smooth="yes"/>
      <point x="341" y="500" type="line" smooth="yes"/>
      <point x="330" y="500"/>
      <point x="325" y="491"/>
      <point x="321" y="480" type="curve" smooth="yes"/>
      <point x="261" y="298" type="line" smooth="yes"/>
      <point x="257" y="287"/>
      <point x="252" y="278"/>
      <point x="241" y="278" type="curve" smooth="yes"/>
      <point x="212" y="278" type="line" smooth="yes"/>
      <point x="201" y="278"/>
      <point x="196" y="287"/>
      <point x="192" y="298" type="curve" smooth="yes"/>
      <point x="132" y="480" type="line" smooth="yes"/>
      <point x="128" y="491"/>
      <point x="123" y="500"/>
      <point x="112" y="500" type="curve" smooth="yes"/>
      <point x="71" y="500" type="line" smooth="yes"/>
      <point x="60" y="500"/>
      <point x="47" y="491"/>
      <point x="51" y="480" type="curve" smooth="yes"/>
      <point x="111" y="301" type="line" smooth="yes"/>
      <point x="116.672" y="284.551"/>
      <point x="122.987" y="270.355"/>
      <point x="132.683" y="261.147" type="curve"/>
      <point x="122.634" y="251.949"/>
      <point x="116.159" y="237.625"/>
      <point x="111" y="221" type="curve" smooth="yes"/>
      <point x="51" y="22" type="line" smooth="yes"/>
      <point x="48" y="11"/>
      <point x="60" y="2"/>
      <point x="71" y="2" type="curve" smooth="yes"/>
      <point x="112" y="2" type="line" smooth="yes"/>
      <point x="123" y="2"/>
      <point x="129" y="11"/>
      <point x="132" y="22" type="curve" smooth="yes"/>
      <point x="192" y="227" type="line" smooth="yes"/>
      <point x="195" y="238"/>
      <point x="201" y="247"/>
      <point x="212" y="247" type="curve" smooth="yes"/>
      <point x="241" y="247" type="line" smooth="yes"/>
      <point x="252" y="247"/>
      <point x="258" y="238"/>
      <point x="261" y="227" type="curve" smooth="yes"/>
      <point x="321" y="22" type="line" smooth="yes"/>
      <point x="324" y="11"/>
      <point x="330" y="2"/>
    </contour>
  </outline>
</glyph>
<glyph name="y" format="2">
  <advance width="501"/>
  <unicode hex="0079"/>
  <anchor x="246" y="500" name="top"/>
  <outline>
    <contour>
      <point x="106" y="-199" type="curve" smooth="yes"/>
      <point x="405" y="-199" type="line" smooth="yes"/>
      <point x="434" y="-199"/>
      <point x="456" y="-177"/>
      <point x="456" y="-148" type="curve" smooth="yes"/>
      <point x="456" y="46" type="line"/>
      <point x="455.769" y="45.9" type="line"/>
      <point x="456" y="51" type="line"/>
      <point x="456" y="480" type="line" smooth="yes"/>
      <point x="456" y="491"/>
      <point x="447" y="500"/>
      <point x="436" y="500" type="curve" smooth="yes"/>
      <point x="395" y="500" type="line" smooth="yes"/>
      <point x="384" y="500"/>
      <point x="375" y="491"/>
      <point x="375" y="480" type="curve" smooth="yes"/>
      <point x="375" y="66" type="line" smooth="yes"/>
      <point x="375" y="55"/>
      <point x="366" y="46"/>
      <point x="355" y="46" type="curve" smooth="yes"/>
      <point x="156" y="46" type="line" smooth="yes"/>
      <point x="145" y="46"/>
      <point x="136" y="55"/>
      <point x="136" y="66" type="curve" smooth="yes"/>
      <point x="136" y="480" type="line" smooth="yes"/>
      <point x="136" y="491"/>
      <point x="127" y="500"/>
      <point x="116" y="500" type="curve" smooth="yes"/>
      <point x="75" y="500" type="line" smooth="yes"/>
      <point x="64" y="500"/>
      <point x="55" y="491"/>
      <point x="55" y="480" type="curve" smooth="yes"/>
      <point x="55" y="51" type="line" smooth="yes"/>
      <point x="55" y="22"/>
      <point x="77" y="0"/>
      <point x="106" y="0" type="curve" smooth="yes"/>
      <point x="375" y="0" type="line"/>
      <point x="375" y="-138" type="line" smooth="yes"/>
      <point x="375" y="-146"/>
      <point x="366" y="-151"/>
      <point x="355" y="-151" type="curve" smooth="yes"/>
      <point x="156" y="-151" type="line" smooth="yes"/>
      <point x="145" y="-151"/>
      <point x="136" y="-144"/>
      <point x="136" y="-138" type="curve" smooth="yes"/>
      <point x="136" y="-136" type="line" smooth="yes"/>
      <point x="136" y="-123"/>
      <point x="126" y="-113"/>
      <point x="113" y="-113" type="curve" smooth="yes"/>
      <point x="79" y="-112" type="line" smooth="yes"/>
      <point x="66" y="-112"/>
      <point x="55" y="-123"/>
      <point x="55" y="-136" type="curve" smooth="yes"/>
      <point x="55" y="-148" type="line" smooth="yes"/>
      <point x="55" y="-177"/>
      <point x="77" y="-199"/>
    </contour>
  </outline>
</glyph>
<glyph name="z" format="2">
  <advance width="501"/>
  <unicode hex="007A"/>
  <outline>
    <contour>
      <point x="450" y="461" type="line"/>
      <point x="450" y="484"/>
      <point x="425" y="500"/>
      <point x="400" y="500" type="curve" smooth="yes"/>
      <point x="101" y="500" type="line" smooth="yes"/>
      <point x="72" y="500"/>
      <point x="50" y="478"/>
      <point x="50" y="449" type="curve" smooth="yes"/>
      <point x="50" y="438" type="line" smooth="yes"/>
      <point x="50" y="424"/>
      <point x="61" y="413"/>
      <point x="75" y="413" type="curve" smooth="yes"/>
      <point x="107" y="414" type="line" smooth="yes"/>
      <point x="121" y="414"/>
      <point x="131" y="424"/>
      <point x="131" y="438" type="curve" smooth="yes"/>
      <point x="131" y="439" type="line" smooth="yes"/>
      <point x="131" y="445"/>
      <point x="140" y="452"/>
      <point x="151" y="452" type="curve" smooth="yes"/>
      <point x="349.16" y="452" type="line"/>
      <point x="62" y="75" type="line" smooth="yes"/>
      <point x="58" y="70"/>
      <point x="55" y="59"/>
      <point x="55" y="53" type="curve" smooth="yes"/>
      <point x="55" y="26"/>
      <point x="67" y="0"/>
      <point x="101" y="0" type="curve" smooth="yes"/>
      <point x="400" y="0" type="line" smooth="yes"/>
      <point x="429" y="0"/>
      <point x="451" y="22"/>
      <point x="451" y="51" type="curve" smooth="yes"/>
      <point x="451" y="63"/>
      <point x="439" y="72"/>
      <point x="425" y="71" type="curve" smooth="yes"/>
      <point x="382" y="69" type="line" smooth="yes"/>
      <point x="375" y="69"/>
      <point x="370" y="65"/>
      <point x="366" y="58" type="curve" smooth="yes"/>
      <point x="362" y="52"/>
      <point x="356" y="48"/>
      <point x="350" y="48" type="curve" smooth="yes"/>
      <point x="151" y="48" type="line" smooth="yes"/>
      <point x="143" y="48"/>
      <point x="136" y="51"/>
      <point x="135.706" y="56.268" type="curve"/>
      <point x="450" y="461" type="line"/>
      <point x="450" y="461" type="line"/>
    </contour>
  </outline>
</glyph>
<glyph name="braceleft" format="2">
  <advance width="329"/>
  <unicode hex="007B"/>
  <outline>
    <contour>
      <point x="141" y="-130" type="curve" smooth="yes"/>
      <point x="248" y="-130" type="line" smooth="yes"/>
      <point x="260" y="-130"/>
      <point x="269" y="-121"/>
      <point x="269" y="-109" type="curve" smooth="yes"/>
      <point x="268" y="-69" type="line" smooth="yes"/>
      <point x="268" y="-58"/>
      <point x="259" y="-49"/>
      <point x="248" y="-49" type="curve" smooth="yes"/>
      <point x="151" y="-49" type="line" smooth="yes"/>
      <point x="140" y="-49"/>
      <point x="131" y="-40"/>
      <point x="131" y="-29" type="curve" smooth="yes"/>
      <point x="131" y="227" type="line" smooth="yes"/>
      <point x="131" y="244"/>
      <point x="95" y="255"/>
      <point x="95" y="292" type="curve" smooth="yes"/>
      <point x="95" y="344"/>
      <point x="131" y="331"/>
      <point x="131" y="362" type="curve" smooth="yes"/>
      <point x="131" y="699" type="line" smooth="yes"/>
      <point x="131" y="710"/>
      <point x="140" y="719"/>
      <point x="151" y="719" type="curve" smooth="yes"/>
      <point x="237" y="719" type="line" smooth="yes"/>
      <point x="248" y="719"/>
      <point x="257" y="728"/>
      <point x="257" y="739" type="curve" smooth="yes"/>
      <point x="257" y="780" type="line" smooth="yes"/>
      <point x="257" y="791"/>
      <point x="248" y="800"/>
      <point x="237" y="800" type="curve" smooth="yes"/>
      <point x="141" y="800" type="line" smooth="yes"/>
      <point x="112" y="800"/>
      <point x="90" y="778"/>
      <point x="90" y="749" type="curve" smooth="yes"/>
      <point x="90" y="368" type="line"/>
      <point x="72" y="338"/>
      <point x="40" y="334"/>
      <point x="40" y="289" type="curve" smooth="yes"/>
      <point x="40" y="255"/>
      <point x="76" y="244"/>
      <point x="90" y="227" type="curve"/>
      <point x="90" y="-79" type="line" smooth="yes"/>
      <point x="90" y="-108"/>
      <point x="112" y="-130"/>
    </contour>
  </outline>
</glyph>
<glyph name="bar" format="2">
  <advance width="169"/>
  <unicode hex="007C"/>
  <outline>
    <contour>
      <point x="131" y="-40" type="curve" smooth="yes"/>
      <point x="131" y="680" type="line" smooth="yes"/>
      <point x="131" y="691"/>
      <point x="115" y="700"/>
      <point x="89" y="700" type="curve" smooth="yes"/>
      <point x="66" y="700"/>
      <point x="50" y="692"/>
      <point x="50" y="673" type="curve" smooth="yes"/>
      <point x="50" y="-40" type="line" smooth="yes"/>
      <point x="50" y="-51"/>
      <point x="59" y="-60"/>
      <point x="70" y="-60" type="curve" smooth="yes"/>
      <point x="111" y="-60" type="line" smooth="yes"/>
      <point x="122" y="-60"/>
      <point x="131" y="-51"/>
    </contour>
  </outline>
</glyph>
<glyph name="braceright" format="2">
  <advance width="329"/>
  <unicode hex="007D"/>
  <outline>
    <contour>
      <point x="61" y="-130" type="curve" smooth="yes"/>
      <point x="168" y="-130" type="line" smooth="yes"/>
      <point x="197" y="-130"/>
      <point x="219" y="-108"/>
      <point x="219" y="-79" type="curve" smooth="yes"/>
      <point x="219" y="227" type="line"/>
      <point x="233" y="244"/>
      <point x="269" y="255"/>
      <point x="269" y="289" type="curve" smooth="yes"/>
      <point x="269" y="334"/>
      <point x="237" y="338"/>
      <point x="219" y="368" type="curve"/>
      <point x="219" y="749" type="line" smooth="yes"/>
      <point x="219" y="778"/>
      <point x="197" y="800"/>
      <point x="168" y="800" type="curve" smooth="yes"/>
      <point x="72" y="800" type="line" smooth="yes"/>
      <point x="61" y="800"/>
      <point x="52" y="791"/>
      <point x="52" y="780" type="curve" smooth="yes"/>
      <point x="52" y="739" type="line" smooth="yes"/>
      <point x="52" y="728"/>
      <point x="61" y="719"/>
      <point x="72" y="719" type="curve" smooth="yes"/>
      <point x="158" y="719" type="line" smooth="yes"/>
      <point x="169" y="719"/>
      <point x="178" y="710"/>
      <point x="178" y="699" type="curve" smooth="yes"/>
      <point x="178" y="362" type="line" smooth="yes"/>
      <point x="178" y="331"/>
      <point x="214" y="344"/>
      <point x="214" y="292" type="curve" smooth="yes"/>
      <point x="214" y="255"/>
      <point x="178" y="244"/>
      <point x="178" y="227" type="curve" smooth="yes"/>
      <point x="178" y="-29" type="line" smooth="yes"/>
      <point x="178" y="-40"/>
      <point x="169" y="-49"/>
      <point x="158" y="-49" type="curve" smooth="yes"/>
      <point x="61" y="-49" type="line" smooth="yes"/>
      <point x="50" y="-49"/>
      <point x="41" y="-58"/>
      <point x="41" y="-69" type="curve" smooth="yes"/>
      <point x="40" y="-109" type="line" smooth="yes"/>
      <point x="40" y="-121"/>
      <point x="49" y="-130"/>
    </contour>
  </outline>
</glyph>
<glyph name="asciitilde" format="2">
  <advance width="607"/>
  <unicode hex="007E"/>
  <outline>
    <contour>
      <point x="532" y="257"/>
      <point x="547" y="265" type="curve"/>
      <point x="547" y="341" type="line"/>
      <point x="504" y="313"/>
      <point x="454" y="286"/>
      <point x="411" y="285" type="curve" smooth="yes"/>
      <point x="367" y="285"/>
      <point x="258" y="431"/>
      <point x="186" y="431" type="curve" smooth="yes"/>
      <point x="144" y="431"/>
      <point x="77" y="361"/>
      <point x="60" y="346" type="curve"/>
      <point x="60" y="265" type="line"/>
      <point x="100" y="300"/>
      <point x="157" y="355"/>
      <point x="184" y="355" type="curve" smooth="yes"/>
      <point x="218" y="355"/>
      <point x="258" y="317"/>
      <point x="298" y="278" type="curve" smooth="yes"/>
      <point x="336" y="240"/>
      <point x="361" y="209"/>
      <point x="407" y="209" type="curve" smooth="yes"/>
      <point x="444" y="209"/>
    </contour>
  </outline>
</glyph>
<glyph name="exclamdown" format="2">
  <advance width="231"/>
  <unicode hex="00A1"/>
  <note>
exclamdown
</note>
  <outline>
    <contour>
      <point x="68" y="-197" type="line"/>
      <point x="163" y="-197" type="line"/>
      <point x="163" y="22" type="line"/>
      <point x="138" y="333" type="line"/>
      <point x="93" y="333" type="line"/>
      <point x="68" y="22" type="line"/>
      <point x="68" y="22" type="line"/>
      <point x="68" y="-197" type="line"/>
      <point x="68" y="-197" type="line"/>
    </contour>
    <contour>
      <point x="60" y="406" type="line"/>
      <point x="171" y="406" type="line"/>
      <point x="171" y="406" type="line"/>
      <point x="171" y="517" type="line"/>
      <point x="60" y="517" type="line"/>
      <point x="60" y="406" type="line"/>
      <point x="60" y="406" type="line"/>
    </contour>
  </outline>
</glyph>
<glyph name="cent" format="2">
  <advance width="600"/>
  <unicode hex="00A2"/>
  <outline>
    <contour>
      <point x="516" y="84" type="curve"/>
      <point x="462" y="110" type="line"/>
      <point x="428" y="77"/>
      <point x="388" y="56"/>
      <point x="344" y="56" type="curve" smooth="yes"/>
      <point x="227" y="56"/>
      <point x="132" y="202"/>
      <point x="132" y="355" type="curve" smooth="yes"/>
      <point x="132" y="507"/>
      <point x="227" y="645"/>
      <point x="344" y="645" type="curve" smooth="yes"/>
      <point x="387" y="645"/>
      <point x="427" y="626"/>
      <point x="460" y="595" type="curve"/>
      <point x="526" y="613" type="line"/>
      <point x="478" y="671"/>
      <point x="414" y="706"/>
      <point x="344" y="706" type="curve" smooth="yes"/>
      <point x="195" y="706"/>
      <point x="74" y="549"/>
      <point x="74" y="355" type="curve" smooth="yes"/>
      <point x="74" y="160"/>
      <point x="195" y="3"/>
      <point x="344" y="3" type="curve" smooth="yes"/>
      <point x="409" y="3"/>
      <point x="469" y="33"/>
    </contour>
    <contour>
      <point x="279" y="-65" type="line"/>
      <point x="347" y="-41" type="line"/>
      <point x="369" y="762" type="line"/>
      <point x="301" y="737" type="line"/>
      <point x="279" y="-65" type="line"/>
      <point x="279" y="-65" type="line"/>
    </contour>
  </outline>
</glyph>
<glyph name="sterling" format="2">
  <advance width="456"/>
  <unicode hex="00A3"/>
  <outline>
    <contour>
      <point x="165" y="614" type="curve" smooth="yes"/>
      <point x="156" y="401" type="line" smooth="yes"/>
      <point x="153" y="326"/>
      <point x="161" y="305"/>
      <point x="137" y="223" type="curve" smooth="yes"/>
      <point x="119" y="162"/>
      <point x="61" y="91"/>
      <point x="50" y="20" type="curve" smooth="yes"/>
      <point x="48" y="9"/>
      <point x="59" y="0"/>
      <point x="70" y="0" type="curve" smooth="yes"/>
      <point x="382" y="0" type="line" smooth="yes"/>
      <point x="396" y="0"/>
      <point x="406" y="10"/>
      <point x="406" y="24" type="curve" smooth="yes"/>
      <point x="406" y="38"/>
      <point x="396" y="48"/>
      <point x="382" y="48" type="curve" smooth="yes"/>
      <point x="132.732" y="48" type="line"/>
      <point x="137" y="98"/>
      <point x="190" y="155"/>
      <point x="203" y="209" type="curve" smooth="yes"/>
      <point x="224" y="293"/>
      <point x="222" y="315"/>
      <point x="226" y="413" type="curve" smooth="yes"/>
      <point x="234" y="606" type="line" smooth="yes"/>
      <point x="236" y="656"/>
      <point x="280" y="650"/>
      <point x="331" y="650" type="curve" smooth="yes"/>
      <point x="365" y="650" type="line"/>
      <point x="365" y="704" type="line"/>
      <point x="264" y="704" type="line" smooth="yes"/>
      <point x="211" y="704"/>
      <point x="167" y="668"/>
    </contour>
    <contour>
      <point x="114" y="500" type="line"/>
      <point x="114" y="452" type="line"/>
      <point x="320" y="452" type="line"/>
      <point x="320" y="500" type="line"/>
      <point x="114" y="500" type="line"/>
      <point x="114" y="500" type="line"/>
    </contour>
  </outline>
</glyph>
<glyph name="currency" format="2">
  <advance width="490"/>
  <unicode hex="00A4"/>
  <outline>
    <contour>
      <point x="253" y="190" type="curve" smooth="yes"/>
      <point x="362" y="190"/>
      <point x="419" y="257"/>
      <point x="419" y="353" type="curve" smooth="yes"/>
      <point x="419" y="447"/>
      <point x="358" y="522"/>
      <point x="252" y="519" type="curve" smooth="yes"/>
      <point x="146" y="519"/>
      <point x="85" y="447"/>
      <point x="85" y="353" type="curve" smooth="yes"/>
      <point x="85" y="256"/>
      <point x="149" y="190"/>
    </contour>
    <contour>
      <point x="351" y="352" type="curve"/>
      <point x="348" y="273"/>
      <point x="294" y="246"/>
      <point x="251" y="247" type="curve" smooth="yes"/>
      <point x="198" y="249"/>
      <point x="155" y="295"/>
      <point x="153" y="353" type="curve" smooth="yes"/>
      <point x="153" y="433"/>
      <point x="196" y="469"/>
      <point x="252" y="469" type="curve" smooth="yes"/>
      <point x="291" y="469"/>
      <point x="349" y="455"/>
    </contour>
    <contour>
      <point x="86" y="132" type="line"/>
      <point x="169" y="139" type="line"/>
      <point x="231" y="240" type="line"/>
      <point x="149" y="235" type="line"/>
      <point x="86" y="132" type="line"/>
      <point x="86" y="132" type="line"/>
    </contour>
    <contour>
      <point x="362" y="161" type="line"/>
      <point x="440" y="168" type="line"/>
      <point x="375" y="255" type="line"/>
      <point x="296" y="250" type="line"/>
      <point x="362" y="161" type="line"/>
      <point x="362" y="161" type="line"/>
    </contour>
    <contour>
      <point x="141" y="573" type="line"/>
      <point x="56" y="575" type="line"/>
      <point x="139" y="473" type="line"/>
      <point x="221" y="475" type="line"/>
      <point x="141" y="573" type="line"/>
      <point x="141" y="573" type="line"/>
    </contour>
    <contour>
      <point x="420" y="576" type="line"/>
      <point x="341" y="577" type="line"/>
      <point x="278" y="474" type="line"/>
      <point x="359" y="477" type="line"/>
      <point x="420" y="576" type="line"/>
      <point x="420" y="576" type="line"/>
    </contour>
  </outline>
</glyph>
<glyph name="yen" format="2">
  <advance width="672"/>
  <unicode hex="00A5"/>
  <anchor x="331" y="626" name="top"/>
  <outline>
    <contour>
      <point x="314" y="0" type="curve" smooth="yes"/>
      <point x="355" y="0" type="line" smooth="yes"/>
      <point x="366" y="0"/>
      <point x="375" y="9"/>
      <point x="375" y="20" type="curve" smooth="yes"/>
      <point x="375" y="123" type="line"/>
      <point x="556" y="123" type="line"/>
      <point x="556" y="193" type="line"/>
      <point x="375" y="193" type="line"/>
      <point x="375" y="259" type="line"/>
      <point x="396.96" y="293" type="line"/>
      <point x="556" y="293" type="line"/>
      <point x="556" y="363" type="line"/>
      <point x="442.173" y="363" type="line"/>
      <point x="603" y="612" type="line" smooth="yes"/>
      <point x="620" y="639"/>
      <point x="609" y="648"/>
      <point x="601" y="656" type="curve" smooth="yes"/>
      <point x="592" y="665"/>
      <point x="551" y="672"/>
      <point x="542" y="657" type="curve" smooth="yes"/>
      <point x="359.72" y="363" type="line"/>
      <point x="310.657" y="363" type="line"/>
      <point x="130" y="655" type="line" smooth="yes"/>
      <point x="121" y="670"/>
      <point x="80" y="663"/>
      <point x="71" y="654" type="curve" smooth="yes"/>
      <point x="63" y="645"/>
      <point x="52" y="637"/>
      <point x="69" y="610" type="curve" smooth="yes"/>
      <point x="228.491" y="363" type="line"/>
      <point x="120" y="363" type="line"/>
      <point x="120" y="293" type="line"/>
      <point x="273.691" y="293" type="line"/>
      <point x="294" y="261.549" type="line"/>
      <point x="294" y="193" type="line"/>
      <point x="120" y="193" type="line"/>
      <point x="120" y="123" type="line"/>
      <point x="294" y="123" type="line"/>
      <point x="294" y="20" type="line" smooth="yes"/>
      <point x="294" y="9"/>
      <point x="303" y="0"/>
    </contour>
  </outline>
</glyph>
<glyph name="brokenbar" format="2">
  <advance width="169"/>
  <unicode hex="00A6"/>
  <outline>
    <contour>
      <point x="73" y="377" type="curve" smooth="yes"/>
      <point x="107" y="376" type="line" smooth="yes"/>
      <point x="120" y="376"/>
      <point x="131" y="387"/>
      <point x="131" y="400" type="curve" smooth="yes"/>
      <point x="131" y="680" type="line" smooth="yes"/>
      <point x="131" y="691"/>
      <point x="115" y="700"/>
      <point x="89" y="700" type="curve" smooth="yes"/>
      <point x="66" y="700"/>
      <point x="50" y="692"/>
      <point x="50" y="673" type="curve" smooth="yes"/>
      <point x="50" y="400" type="line" smooth="yes"/>
      <point x="50" y="387"/>
      <point x="60" y="377"/>
    </contour>
    <contour>
      <point x="108" y="256" type="curve" smooth="yes"/>
      <point x="74" y="257" type="line" smooth="yes"/>
      <point x="61" y="257"/>
      <point x="50" y="246"/>
      <point x="50" y="233" type="curve" smooth="yes"/>
      <point x="50" y="-80" type="line" smooth="yes"/>
      <point x="50" y="-91"/>
      <point x="59" y="-100"/>
      <point x="70" y="-100" type="curve" smooth="yes"/>
      <point x="111" y="-100" type="line" smooth="yes"/>
      <point x="122" y="-100"/>
      <point x="131" y="-91"/>
      <point x="131" y="-80" type="curve" smooth="yes"/>
      <point x="131" y="233" type="line" smooth="yes"/>
      <point x="131" y="246"/>
      <point x="121" y="256"/>
    </contour>
  </outline>
</glyph>
<glyph name="section" format="2">
  <advance width="430"/>
  <unicode hex="00A7"/>
  <outline>
    <contour>
      <point x="315" y="314" type="curve"/>
      <point x="312" y="248"/>
      <point x="261" y="226"/>
      <point x="220" y="226" type="curve" smooth="yes"/>
      <point x="170" y="228"/>
      <point x="129" y="267"/>
      <point x="127" y="315" type="curve" smooth="yes"/>
      <point x="127" y="382"/>
      <point x="168" y="413"/>
      <point x="221" y="413" type="curve" smooth="yes"/>
      <point x="258" y="413"/>
      <point x="313" y="401"/>
    </contour>
    <contour>
      <point x="50" y="561" type="curve" smooth="yes"/>
      <point x="50" y="502"/>
      <point x="84" y="457"/>
      <point x="143" y="439" type="curve"/>
      <point x="91" y="417"/>
      <point x="62" y="371"/>
      <point x="62" y="315" type="curve" smooth="yes"/>
      <point x="62" y="254"/>
      <point x="96" y="207"/>
      <point x="158" y="188" type="curve" smooth="yes"/>
      <point x="268" y="154"/>
      <point x="319" y="155"/>
      <point x="321" y="77" type="curve"/>
      <point x="318" y="17"/>
      <point x="271" y="-3"/>
      <point x="234" y="-2" type="curve" smooth="yes"/>
      <point x="206" y="-1"/>
      <point x="182" y="11"/>
      <point x="166" y="31" type="curve"/>
      <point x="101" y="27" type="line"/>
      <point x="121" y="-18"/>
      <point x="169" y="-46"/>
      <point x="236" y="-46" type="curve" smooth="yes"/>
      <point x="330" y="-46"/>
      <point x="379" y="5"/>
      <point x="379" y="78" type="curve" smooth="yes"/>
      <point x="379" y="130"/>
      <point x="352" y="174"/>
      <point x="302" y="193" type="curve"/>
      <point x="354" y="215"/>
      <point x="380" y="259"/>
      <point x="380" y="315" type="curve" smooth="yes"/>
      <point x="380" y="377"/>
      <point x="349" y="437"/>
      <point x="200" y="477" type="curve" smooth="yes"/>
      <point x="154" y="489"/>
      <point x="113" y="516"/>
      <point x="111" y="561" type="curve" smooth="yes"/>
      <point x="111" y="626"/>
      <point x="150" y="654"/>
      <point x="201" y="654" type="curve" smooth="yes"/>
      <point x="225" y="654"/>
      <point x="259" y="648"/>
      <point x="277" y="618" type="curve"/>
      <point x="339" y="619" type="line"/>
      <point x="318" y="665"/>
      <point x="270" y="695"/>
      <point x="201" y="694" type="curve" smooth="yes"/>
      <point x="105" y="694"/>
      <point x="50" y="636"/>
    </contour>
  </outline>
</glyph>
<glyph name="dieresis" format="2">
  <unicode hex="00A8"/>
  <anchor x="-2" y="502" name="_top"/>
  <outline>
    <contour>
      <point x="-106" y="661" type="curve" smooth="yes"/>
      <point x="-79" y="661" type="line" smooth="yes"/>
      <point x="-63" y="661"/>
      <point x="-52" y="672"/>
      <point x="-52" y="688" type="curve" smooth="yes"/>
      <point x="-52" y="739" type="line" smooth="yes"/>
      <point x="-52" y="755"/>
      <point x="-63" y="766"/>
      <point x="-79" y="766" type="curve" smooth="yes"/>
      <point x="-106" y="766" type="line" smooth="yes"/>
      <point x="-122" y="766"/>
      <point x="-133" y="755"/>
      <point x="-133" y="739" type="curve" smooth="yes"/>
      <point x="-133" y="688" type="line" smooth="yes"/>
      <point x="-133" y="672"/>
      <point x="-122" y="661"/>
    </contour>
    <contour>
      <point x="63" y="661" type="curve" smooth="yes"/>
      <point x="90" y="661" type="line" smooth="yes"/>
      <point x="106" y="661"/>
      <point x="117" y="672"/>
      <point x="117" y="688" type="curve" smooth="yes"/>
      <point x="117" y="739" type="line" smooth="yes"/>
      <point x="117" y="755"/>
      <point x="106" y="766"/>
      <point x="90" y="766" type="curve" smooth="yes"/>
      <point x="63" y="766" type="line" smooth="yes"/>
      <point x="47" y="766"/>
      <point x="36" y="755"/>
      <point x="36" y="739" type="curve" smooth="yes"/>
      <point x="36" y="688" type="line" smooth="yes"/>
      <point x="36" y="672"/>
      <point x="47" y="661"/>
    </contour>
  </outline>
</glyph>
<glyph name="copyright" format="2">
  <advance width="677"/>
  <unicode hex="00A9"/>
  <outline>
    <contour>
      <point x="339" y="49" type="curve" smooth="yes"/>
      <point x="499" y="49"/>
      <point x="627" y="183"/>
      <point x="627" y="351" type="curve" smooth="yes"/>
      <point x="627" y="519"/>
      <point x="499" y="653"/>
      <point x="339" y="653" type="curve" smooth="yes"/>
      <point x="178" y="653"/>
      <point x="50" y="519"/>
      <point x="50" y="351" type="curve" smooth="yes"/>
      <point x="50" y="183"/>
      <point x="178" y="49"/>
    </contour>
    <contour>
      <point x="341" y="139" type="curve" smooth="yes"/>
      <point x="381" y="139"/>
      <point x="418" y="157"/>
      <point x="447" y="188" type="curve"/>
      <point x="413" y="204" type="line"/>
      <point x="393" y="184"/>
      <point x="368" y="171"/>
      <point x="341" y="171" type="curve" smooth="yes"/>
      <point x="269" y="171"/>
      <point x="211" y="261"/>
      <point x="211" y="355" type="curve" smooth="yes"/>
      <point x="211" y="448"/>
      <point x="269" y="533"/>
      <point x="341" y="533" type="curve" smooth="yes"/>
      <point x="367" y="533"/>
      <point x="392" y="521"/>
      <point x="412" y="502" type="curve"/>
      <point x="453" y="513" type="line"/>
      <point x="423" y="549"/>
      <point x="384" y="570"/>
      <point x="341" y="570" type="curve" smooth="yes"/>
      <point x="250" y="570"/>
      <point x="175" y="474"/>
      <point x="175" y="355" type="curve" smooth="yes"/>
      <point x="175" y="235"/>
      <point x="250" y="139"/>
    </contour>
    <contour>
      <point x="339" y="90" type="curve" smooth="yes"/>
      <point x="200" y="90"/>
      <point x="89" y="206"/>
      <point x="89" y="351" type="curve" smooth="yes"/>
      <point x="89" y="496"/>
      <point x="200" y="612"/>
      <point x="339" y="612" type="curve" smooth="yes"/>
      <point x="477" y="612"/>
      <point x="588" y="496"/>
      <point x="588" y="351" type="curve" smooth="yes"/>
      <point x="588" y="206"/>
      <point x="477" y="90"/>
    </contour>
  </outline>
</glyph>
<glyph name="ordfeminine" format="2">
  <advance width="408"/>
  <unicode hex="00AA"/>
  <note>
ordfeminine
</note>
  <outline>
    <contour>
      <point x="157" y="380" type="curve" smooth="yes"/>
      <point x="206.333" y="380"/>
      <point x="245.333" y="395.333"/>
      <point x="274" y="426" type="curve"/>
      <point x="276" y="395.333"/>
      <point x="293" y="380"/>
      <point x="325" y="380" type="curve" smooth="yes"/>
      <point x="342.333" y="380"/>
      <point x="354.667" y="382.667"/>
      <point x="368" y="388" type="curve"/>
      <point x="368" y="432" type="line"/>
      <point x="364" y="430.667"/>
      <point x="360.333" y="430"/>
      <point x="357" y="430" type="curve" smooth="yes"/>
      <point x="346" y="430" type="line" smooth="yes"/>
      <point x="340.667" y="430"/>
      <point x="337" y="432.333"/>
      <point x="335" y="437" type="curve" smooth="yes"/>
      <point x="333" y="441.667"/>
      <point x="332" y="450"/>
      <point x="332" y="462" type="curve" smooth="yes"/>
      <point x="332" y="622" type="line" smooth="yes"/>
      <point x="332" y="695.136"/>
      <point x="259.825" y="708.728"/>
      <point x="202" y="709" type="curve" smooth="yes"/>
      <point x="128.421" y="709"/>
      <point x="57.709" y="681.559"/>
      <point x="55" y="603" type="curve"/>
      <point x="115" y="603" type="line"/>
      <point x="117.667" y="645.667"/>
      <point x="150" y="659"/>
      <point x="198" y="659" type="curve" smooth="yes"/>
      <point x="236.145" y="659"/>
      <point x="275" y="654.568"/>
      <point x="275" y="610" type="curve" smooth="yes"/>
      <point x="275" y="582.833"/>
      <point x="250.839" y="576.587"/>
      <point x="160" y="568" type="curve" smooth="yes"/>
      <point x="101.449" y="562.677"/>
      <point x="40.243" y="539.5"/>
      <point x="40" y="469" type="curve" smooth="yes"/>
      <point x="40" y="407.15"/>
      <point x="94.981" y="379.073"/>
    </contour>
    <contour>
      <point x="108" y="471" type="curve" smooth="yes"/>
      <point x="108" y="505.667"/>
      <point x="136" y="516.333"/>
      <point x="172" y="523" type="curve" smooth="yes"/>
      <point x="190.667" y="526.333"/>
      <point x="209.333" y="529.333"/>
      <point x="228" y="532" type="curve" smooth="yes"/>
      <point x="246.667" y="534.667"/>
      <point x="261.333" y="539.333"/>
      <point x="272" y="546" type="curve"/>
      <point x="272" y="499" type="line" smooth="yes"/>
      <point x="272" y="465.691"/>
      <point x="240.979" y="430"/>
      <point x="170" y="430" type="curve" smooth="yes"/>
      <point x="136.667" y="430"/>
      <point x="108" y="436.333"/>
    </contour>
  </outline>
</glyph>
<glyph name="guillemetleft" format="2">
  <advance width="451"/>
  <unicode hex="00AB"/>
  <outline>
    <contour>
      <point x="161" y="96" type="line"/>
      <point x="241" y="96" type="line"/>
      <point x="137" y="274" type="line" smooth="yes"/>
      <point x="131" y="284"/>
      <point x="137" y="294"/>
      <point x="138" y="295" type="curve"/>
      <point x="241" y="456" type="line"/>
      <point x="161" y="456" type="line"/>
      <point x="66" y="312" type="line" smooth="yes"/>
      <point x="53" y="292"/>
      <point x="64" y="270"/>
      <point x="65" y="269" type="curve"/>
      <point x="161" y="96" type="line"/>
      <point x="161" y="96" type="line"/>
    </contour>
    <contour>
      <point x="311" y="96" type="line"/>
      <point x="391" y="96" type="line"/>
      <point x="287" y="274" type="line" smooth="yes"/>
      <point x="281" y="284"/>
      <point x="287" y="294"/>
      <point x="288" y="295" type="curve"/>
      <point x="391" y="456" type="line"/>
      <point x="311" y="456" type="line"/>
      <point x="216" y="312" type="line" smooth="yes"/>
      <point x="203" y="292"/>
      <point x="214" y="270"/>
      <point x="215" y="269" type="curve"/>
      <point x="311" y="96" type="line"/>
      <point x="311" y="96" type="line"/>
    </contour>
  </outline>
</glyph>
<glyph name="logicalnot" format="2">
  <advance width="556"/>
  <unicode hex="00AC"/>
  <outline>
    <contour>
      <point x="435" y="-1" type="curve" smooth="yes"/>
      <point x="476" y="-1" type="line" smooth="yes"/>
      <point x="487" y="-1"/>
      <point x="496" y="2"/>
      <point x="496" y="6" type="curve" smooth="yes"/>
      <point x="496" y="225" type="line"/>
      <point x="495.094" y="226.6" type="line"/>
      <point x="492.355" y="236.235"/>
      <point x="483.692" y="243"/>
      <point x="473" y="243" type="curve" smooth="yes"/>
      <point x="83" y="243" type="line" smooth="yes"/>
      <point x="70" y="243"/>
      <point x="60" y="233"/>
      <point x="60" y="220" type="curve" smooth="yes"/>
      <point x="60" y="196" type="line" smooth="yes"/>
      <point x="60" y="183"/>
      <point x="70" y="173"/>
      <point x="83" y="173" type="curve" smooth="yes"/>
      <point x="415" y="173" type="line"/>
      <point x="415" y="6" type="line" smooth="yes"/>
      <point x="415" y="2"/>
      <point x="424" y="-1"/>
    </contour>
  </outline>
</glyph>
<glyph name="uni00AD" format="2">
  <advance width="389"/>
  <unicode hex="00AD"/>
  <note>
uni00AD
</note>
  <outline>
    <contour>
      <point x="50" y="238" type="line"/>
      <point x="339" y="238" type="line"/>
      <point x="339" y="318" type="line"/>
      <point x="50" y="318" type="line"/>
      <point x="50" y="318" type="line"/>
      <point x="50" y="238" type="line"/>
      <point x="50" y="238" type="line"/>
    </contour>
  </outline>
</glyph>
<glyph name="registered" format="2">
  <advance width="600"/>
  <unicode hex="00AE"/>
  <outline>
    <contour>
      <point x="298" y="372" type="curve" smooth="yes"/>
      <point x="403" y="372"/>
      <point x="465" y="446"/>
      <point x="465" y="543" type="curve" smooth="yes"/>
      <point x="465" y="637"/>
      <point x="403" y="719"/>
      <point x="298" y="716" type="curve"/>
      <point x="191" y="719"/>
      <point x="129" y="637"/>
      <point x="129" y="543" type="curve" smooth="yes"/>
      <point x="129" y="446"/>
      <point x="191" y="372"/>
    </contour>
    <contour>
      <point x="435" y="543" type="curve" smooth="yes"/>
      <point x="435" y="461"/>
      <point x="387" y="403"/>
      <point x="298" y="402" type="curve" smooth="yes"/>
      <point x="211" y="401"/>
      <point x="157" y="461"/>
      <point x="159" y="543" type="curve" smooth="yes"/>
      <point x="161" y="617"/>
      <point x="211" y="685"/>
      <point x="298" y="686" type="curve" smooth="yes"/>
      <point x="387" y="687"/>
      <point x="435" y="617"/>
    </contour>
    <contour>
      <point x="298" y="534" type="line"/>
      <point x="282" y="527" type="line"/>
      <point x="353" y="450" type="line" smooth="yes"/>
      <point x="356" y="447"/>
      <point x="360" y="447"/>
      <point x="363" y="450" type="curve" smooth="yes"/>
      <point x="365" y="452"/>
      <point x="369" y="456"/>
      <point x="362" y="463" type="curve" smooth="yes"/>
      <point x="298" y="534" type="line"/>
      <point x="298" y="534" type="line"/>
    </contour>
    <contour>
      <point x="242" y="449" type="curve" smooth="yes"/>
      <point x="253" y="449" type="line" smooth="yes"/>
      <point x="256" y="449"/>
      <point x="259" y="452"/>
      <point x="259" y="455" type="curve" smooth="yes"/>
      <point x="259" y="614" type="line" smooth="yes"/>
      <point x="259" y="623"/>
      <point x="262" y="627"/>
      <point x="266" y="626" type="curve" smooth="yes"/>
      <point x="336" y="612" type="line" smooth="yes"/>
      <point x="340" y="611"/>
      <point x="342" y="607"/>
      <point x="342" y="603" type="curve" smooth="yes"/>
      <point x="343" y="522" type="line"/>
      <point x="359" y="522" type="line" smooth="yes"/>
      <point x="363" y="522"/>
      <point x="365" y="525"/>
      <point x="365" y="529" type="curve" smooth="yes"/>
      <point x="365" y="615" type="line" smooth="yes"/>
      <point x="365" y="617"/>
      <point x="364" y="620"/>
      <point x="360" y="621" type="curve" smooth="yes"/>
      <point x="246" y="644" type="line" smooth="yes"/>
      <point x="241" y="645"/>
      <point x="236" y="644"/>
      <point x="236" y="638" type="curve" smooth="yes"/>
      <point x="236" y="455" type="line" smooth="yes"/>
      <point x="236" y="452"/>
      <point x="239" y="449"/>
    </contour>
    <contour>
      <point x="253" y="522" type="line"/>
      <point x="343" y="522" type="line"/>
      <point x="343" y="536" type="line"/>
      <point x="253" y="536" type="line"/>
      <point x="253" y="522" type="line"/>
      <point x="253" y="522" type="line"/>
    </contour>
  </outline>
</glyph>
<glyph name="macron" format="2">
  <advance width="422"/>
  <unicode hex="00AF"/>
  <anchor x="224" y="499" name="_top"/>
  <outline>
    <contour>
      <point x="84" y="672" type="curve" smooth="yes"/>
      <point x="338" y="672" type="line" smooth="yes"/>
      <point x="352" y="672"/>
      <point x="362" y="682"/>
      <point x="362" y="696" type="curve" smooth="yes"/>
      <point x="362" y="711" type="line" smooth="yes"/>
      <point x="362" y="725"/>
      <point x="352" y="735"/>
      <point x="338" y="735" type="curve" smooth="yes"/>
      <point x="84" y="735" type="line" smooth="yes"/>
      <point x="70" y="735"/>
      <point x="60" y="725"/>
      <point x="60" y="711" type="curve" smooth="yes"/>
      <point x="60" y="696" type="line" smooth="yes"/>
      <point x="60" y="682"/>
      <point x="70" y="672"/>
    </contour>
  </outline>
</glyph>
<glyph name="degree" format="2">
  <advance width="326"/>
  <unicode hex="00B0"/>
  <outline>
    <contour>
      <point x="164" y="483" type="curve" smooth="yes"/>
      <point x="237" y="483"/>
      <point x="276" y="529"/>
      <point x="276" y="593" type="curve" smooth="yes"/>
      <point x="276" y="658"/>
      <point x="235" y="708"/>
      <point x="163" y="706" type="curve" smooth="yes"/>
      <point x="91" y="706"/>
      <point x="50" y="658"/>
      <point x="50" y="593" type="curve" smooth="yes"/>
      <point x="50" y="528"/>
      <point x="93" y="483"/>
    </contour>
    <contour>
      <point x="230" y="593" type="curve"/>
      <point x="228" y="540"/>
      <point x="191" y="521"/>
      <point x="162" y="521" type="curve" smooth="yes"/>
      <point x="127" y="523"/>
      <point x="98" y="554"/>
      <point x="96" y="593" type="curve" smooth="yes"/>
      <point x="96" y="648"/>
      <point x="125" y="672"/>
      <point x="163" y="672" type="curve" smooth="yes"/>
      <point x="189" y="672"/>
      <point x="228" y="663"/>
    </contour>
  </outline>
</glyph>
<glyph name="plusminus" format="2">
  <advance width="536"/>
  <unicode hex="00B1"/>
  <outline>
    <contour>
      <point x="73" y="313" type="curve" smooth="yes"/>
      <point x="463" y="313" type="line" smooth="yes"/>
      <point x="476" y="313"/>
      <point x="486" y="323"/>
      <point x="486" y="336" type="curve" smooth="yes"/>
      <point x="486" y="360" type="line" smooth="yes"/>
      <point x="486" y="373"/>
      <point x="476" y="383"/>
      <point x="463" y="383" type="curve" smooth="yes"/>
      <point x="73" y="383" type="line" smooth="yes"/>
      <point x="60" y="383"/>
      <point x="50" y="373"/>
      <point x="50" y="360" type="curve" smooth="yes"/>
      <point x="50" y="336" type="line" smooth="yes"/>
      <point x="50" y="323"/>
      <point x="60" y="313"/>
    </contour>
    <contour>
      <point x="73" y="43" type="curve" smooth="yes"/>
      <point x="463" y="43" type="line" smooth="yes"/>
      <point x="476" y="43"/>
      <point x="486" y="53"/>
      <point x="486" y="66" type="curve" smooth="yes"/>
      <point x="486" y="90" type="line" smooth="yes"/>
      <point x="486" y="103"/>
      <point x="476" y="113"/>
      <point x="463" y="113" type="curve" smooth="yes"/>
      <point x="73" y="113" type="line" smooth="yes"/>
      <point x="60" y="113"/>
      <point x="50" y="103"/>
      <point x="50" y="90" type="curve" smooth="yes"/>
      <point x="50" y="66" type="line" smooth="yes"/>
      <point x="50" y="53"/>
      <point x="60" y="43"/>
    </contour>
    <contour>
      <point x="301" y="184" type="curve" smooth="yes"/>
      <point x="301" y="493" type="line" smooth="yes"/>
      <point x="301" y="497"/>
      <point x="285" y="500"/>
      <point x="259" y="500" type="curve" smooth="yes"/>
      <point x="236" y="500"/>
      <point x="220" y="497"/>
      <point x="220" y="491" type="curve" smooth="yes"/>
      <point x="220" y="184" type="line" smooth="yes"/>
      <point x="220" y="180"/>
      <point x="229" y="177"/>
      <point x="240" y="177" type="curve" smooth="yes"/>
      <point x="281" y="177" type="line" smooth="yes"/>
      <point x="292" y="177"/>
      <point x="301" y="180"/>
    </contour>
  </outline>
</glyph>
<glyph name="twosuperior" format="2">
  <advance width="303"/>
  <unicode hex="00B2"/>
  <outline>
    <contour>
      <point x="98" y="479" type="curve" smooth="yes"/>
      <point x="207" y="479" type="line" smooth="yes"/>
      <point x="236" y="479"/>
      <point x="243" y="501"/>
      <point x="243" y="510" type="curve" smooth="yes"/>
      <point x="243" y="522" type="line"/>
      <point x="205" y="521" type="line"/>
      <point x="205" y="511" type="line" smooth="yes"/>
      <point x="205" y="506"/>
      <point x="204" y="504"/>
      <point x="199" y="504" type="curve" smooth="yes"/>
      <point x="102" y="504" type="line" smooth="yes"/>
      <point x="99" y="504"/>
      <point x="98" y="508"/>
      <point x="98" y="514" type="curve" smooth="yes"/>
      <point x="98" y="557" type="line" smooth="yes"/>
      <point x="98" y="563"/>
      <point x="99" y="566"/>
      <point x="101" y="568" type="curve" smooth="yes"/>
      <point x="240" y="702" type="line"/>
      <point x="242" y="703"/>
      <point x="242" y="706"/>
      <point x="242" y="709" type="curve" smooth="yes"/>
      <point x="243" y="770" type="line" smooth="yes"/>
      <point x="243" y="787"/>
      <point x="229" y="800"/>
      <point x="196" y="800" type="curve" smooth="yes"/>
      <point x="101" y="800" type="line" smooth="yes"/>
      <point x="68" y="800"/>
      <point x="60" y="788"/>
      <point x="60" y="770" type="curve" smooth="yes"/>
      <point x="60" y="761" type="line"/>
      <point x="98" y="761" type="line"/>
      <point x="98" y="769" type="line" smooth="yes"/>
      <point x="98" y="774"/>
      <point x="99" y="776"/>
      <point x="102" y="776" type="curve" smooth="yes"/>
      <point x="199" y="776" type="line" smooth="yes"/>
      <point x="204" y="776"/>
      <point x="205" y="774"/>
      <point x="205" y="769" type="curve" smooth="yes"/>
      <point x="205" y="713" type="line" smooth="yes"/>
      <point x="205" y="711"/>
      <point x="204" y="706"/>
      <point x="203" y="704" type="curve"/>
      <point x="69" y="578" type="line" smooth="yes"/>
      <point x="62" y="572"/>
      <point x="61" y="563"/>
      <point x="61" y="558" type="curve" smooth="yes"/>
      <point x="61" y="509" type="line" smooth="yes"/>
      <point x="61" y="483"/>
      <point x="72" y="479"/>
    </contour>
  </outline>
</glyph>
<glyph name="threesuperior" format="2">
  <advance width="303"/>
  <unicode hex="00B3"/>
  <outline>
    <contour>
      <point x="98" y="480" type="curve" smooth="yes"/>
      <point x="207" y="480" type="line" smooth="yes"/>
      <point x="236" y="480"/>
      <point x="243" y="502"/>
      <point x="243" y="511" type="curve" smooth="yes"/>
      <point x="243" y="771" type="line" smooth="yes"/>
      <point x="243" y="787"/>
      <point x="229" y="801"/>
      <point x="196" y="801" type="curve" smooth="yes"/>
      <point x="101" y="801" type="line" smooth="yes"/>
      <point x="68" y="801"/>
      <point x="60" y="789"/>
      <point x="60" y="771" type="curve" smooth="yes"/>
      <point x="60" y="764"/>
      <point x="66" y="760"/>
      <point x="72" y="760" type="curve" smooth="yes"/>
      <point x="87" y="760" type="line" smooth="yes"/>
      <point x="93" y="760"/>
      <point x="98" y="764"/>
      <point x="98" y="770" type="curve" smooth="yes"/>
      <point x="98" y="775"/>
      <point x="99" y="776"/>
      <point x="103" y="776" type="curve" smooth="yes"/>
      <point x="200" y="776" type="line" smooth="yes"/>
      <point x="204" y="776"/>
      <point x="205" y="775"/>
      <point x="205" y="770" type="curve" smooth="yes"/>
      <point x="205" y="621" type="line"/>
      <point x="92" y="621" type="line" smooth="yes"/>
      <point x="86" y="621"/>
      <point x="81" y="616"/>
      <point x="81" y="610" type="curve" smooth="yes"/>
      <point x="81" y="604"/>
      <point x="86" y="599"/>
      <point x="92" y="599" type="curve" smooth="yes"/>
      <point x="205" y="599" type="line"/>
      <point x="205" y="512" type="line" smooth="yes"/>
      <point x="205" y="506"/>
      <point x="204" y="505"/>
      <point x="200" y="505" type="curve" smooth="yes"/>
      <point x="103" y="505" type="line" smooth="yes"/>
      <point x="99" y="505"/>
      <point x="98" y="506"/>
      <point x="98" y="512" type="curve" smooth="yes"/>
      <point x="98" y="517"/>
      <point x="93" y="519"/>
      <point x="87" y="519" type="curve" smooth="yes"/>
      <point x="72" y="519" type="line" smooth="yes"/>
      <point x="66" y="519"/>
      <point x="60" y="516"/>
      <point x="60" y="510" type="curve" smooth="yes"/>
      <point x="60" y="494"/>
      <point x="70" y="480"/>
    </contour>
  </outline>
</glyph>
<glyph name="acute" format="2">
  <unicode hex="00B4"/>
  <anchor x="-2" y="509" name="_top"/>
  <outline>
    <contour>
      <point x="0" y="611" type="line"/>
      <point x="9" y="604"/>
      <point x="20" y="606"/>
      <point x="28" y="614" type="curve"/>
      <point x="134" y="740" type="line" smooth="yes"/>
      <point x="141" y="749"/>
      <point x="140" y="760"/>
      <point x="131" y="768" type="curve" smooth="yes"/>
      <point x="116" y="781" type="line" smooth="yes"/>
      <point x="107" y="788"/>
      <point x="96" y="786"/>
      <point x="88" y="778" type="curve"/>
      <point x="-18" y="652" type="line" smooth="yes"/>
      <point x="-25" y="643"/>
      <point x="-24" y="632"/>
      <point x="-15" y="624" type="curve" smooth="yes"/>
      <point x="0" y="611" type="line"/>
      <point x="0" y="611" type="line"/>
    </contour>
  </outline>
</glyph>
<glyph name="micro" format="2">
  <advance width="566"/>
  <unicode hex="00B5"/>
  <anchor x="244" y="499" name="top"/>
  <outline>
    <contour>
      <point x="370" y="480" type="curve" smooth="yes"/>
      <point x="370" y="146" type="line" smooth="yes"/>
      <point x="370" y="93"/>
      <point x="317" y="56"/>
      <point x="237" y="56" type="curve" smooth="yes"/>
      <point x="186" y="56"/>
      <point x="131" y="92"/>
      <point x="131" y="137" type="curve" smooth="yes"/>
      <point x="131" y="480" type="line" smooth="yes"/>
      <point x="131" y="491"/>
      <point x="122" y="500"/>
      <point x="111" y="500" type="curve" smooth="yes"/>
      <point x="70" y="500" type="line" smooth="yes"/>
      <point x="59" y="500"/>
      <point x="50" y="491"/>
      <point x="50" y="480" type="curve" smooth="yes"/>
      <point x="50" y="142" type="line" smooth="yes"/>
      <point x="50" y="113"/>
      <point x="106" y="3"/>
      <point x="253" y="-9" type="curve" smooth="yes"/>
      <point x="373" y="-19"/>
      <point x="451" y="80"/>
      <point x="451" y="159" type="curve" smooth="yes"/>
      <point x="451" y="480" type="line" smooth="yes"/>
      <point x="451" y="491"/>
      <point x="442" y="500"/>
      <point x="431" y="500" type="curve" smooth="yes"/>
      <point x="390" y="500" type="line" smooth="yes"/>
      <point x="379" y="500"/>
      <point x="370" y="491"/>
    </contour>
    <contour>
      <point x="75" y="-177" type="curve" smooth="yes"/>
      <point x="89" y="-177"/>
      <point x="99" y="-167"/>
      <point x="99" y="-153" type="curve" smooth="yes"/>
      <point x="99" y="150" type="line" smooth="yes"/>
      <point x="99" y="164"/>
      <point x="89" y="174"/>
      <point x="75" y="174" type="curve" smooth="yes"/>
      <point x="61" y="174"/>
      <point x="51" y="164"/>
      <point x="51" y="150" type="curve" smooth="yes"/>
      <point x="51" y="-153" type="line" smooth="yes"/>
      <point x="51" y="-167"/>
      <point x="61" y="-177"/>
    </contour>
    <contour>
      <point x="425" y="1" type="curve" smooth="yes"/>
      <point x="450" y="1" type="line"/>
      <point x="450" y="261" type="line" smooth="yes"/>
      <point x="450" y="275"/>
      <point x="440" y="285"/>
      <point x="426" y="285" type="curve" smooth="yes"/>
      <point x="412" y="285"/>
      <point x="402" y="275"/>
      <point x="402" y="261" type="curve" smooth="yes"/>
      <point x="402" y="24" type="line" smooth="yes"/>
      <point x="402" y="11"/>
      <point x="412" y="1"/>
    </contour>
    <contour>
      <point x="449" y="49" type="line"/>
      <point x="449" y="1" type="line"/>
      <point x="492" y="1" type="line" smooth="yes"/>
      <point x="506" y="1"/>
      <point x="516" y="11"/>
      <point x="516" y="25" type="curve" smooth="yes"/>
      <point x="516" y="39"/>
      <point x="506" y="49"/>
      <point x="492" y="49" type="curve" smooth="yes"/>
      <point x="449" y="49" type="line"/>
      <point x="449" y="49" type="line"/>
    </contour>
  </outline>
</glyph>
<glyph name="paragraph" format="2">
  <advance width="417"/>
  <unicode hex="00B6"/>
  <outline>
    <contour>
      <point x="174" y="-60" type="curve" smooth="yes"/>
      <point x="215" y="-60" type="line" smooth="yes"/>
      <point x="226" y="-60"/>
      <point x="235" y="-51"/>
      <point x="235" y="-40" type="curve" smooth="yes"/>
      <point x="235" y="680" type="line" smooth="yes"/>
      <point x="235" y="691"/>
      <point x="219" y="700"/>
      <point x="193" y="700" type="curve" smooth="yes"/>
      <point x="188.357" y="700"/>
      <point x="183.999" y="699.674"/>
      <point x="180" y="698.997" type="curve"/>
      <point x="114" y="699"/>
      <point x="60" y="636"/>
      <point x="60" y="558" type="curve" smooth="yes"/>
      <point x="60" y="489.949"/>
      <point x="100.069" y="433.771"/>
      <point x="154" y="419.505" type="curve"/>
      <point x="154" y="-40" type="line" smooth="yes"/>
      <point x="154" y="-51"/>
      <point x="163" y="-60"/>
    </contour>
    <contour>
      <point x="296" y="-60" type="curve" smooth="yes"/>
      <point x="337" y="-60" type="line" smooth="yes"/>
      <point x="348" y="-60"/>
      <point x="357" y="-51"/>
      <point x="357" y="-40" type="curve" smooth="yes"/>
      <point x="357" y="680" type="line" smooth="yes"/>
      <point x="357" y="691"/>
      <point x="341" y="700"/>
      <point x="315" y="700" type="curve" smooth="yes"/>
      <point x="292" y="700"/>
      <point x="276" y="692"/>
      <point x="276" y="673" type="curve" smooth="yes"/>
      <point x="276" y="-40" type="line" smooth="yes"/>
      <point x="276" y="-51"/>
      <point x="285" y="-60"/>
    </contour>
  </outline>
</glyph>
<glyph name="periodcentered" format="2">
  <advance width="248"/>
  <unicode hex="00B7"/>
  <note>
periodcentered
</note>
  <outline>
    <contour>
      <point x="125" y="247" type="curve" smooth="yes"/>
      <point x="158.333" y="247"/>
      <point x="188" y="279"/>
      <point x="188" y="311" type="curve" smooth="yes"/>
      <point x="188" y="345.667"/>
      <point x="158.667" y="375"/>
      <point x="124" y="375" type="curve" smooth="yes"/>
      <point x="89.333" y="375"/>
      <point x="60" y="345.667"/>
      <point x="60" y="311" type="curve" smooth="yes"/>
      <point x="60" y="276.333"/>
      <point x="90.333" y="247"/>
    </contour>
  </outline>
</glyph>
<glyph name="cedilla" format="2">
  <advance width="228"/>
  <unicode hex="00B8"/>
  <outline>
    <contour>
      <point x="61" y="-197" type="line"/>
      <point x="75" y="-196" type="line" smooth="yes"/>
      <point x="126" y="-192"/>
      <point x="193" y="-169"/>
      <point x="193" y="-120" type="curve" smooth="yes"/>
      <point x="193" y="-71"/>
      <point x="149" y="-62"/>
      <point x="141" y="-55" type="curve"/>
      <point x="141" y="0" type="line"/>
      <point x="79" y="0" type="line"/>
      <point x="79" y="-63.719" type="line"/>
      <point x="115" y="-68"/>
      <point x="141" y="-80"/>
      <point x="141" y="-120" type="curve" smooth="yes"/>
      <point x="141" y="-145"/>
      <point x="107" y="-159"/>
      <point x="76" y="-159" type="curve" smooth="yes"/>
      <point x="60" y="-159" type="line"/>
    </contour>
  </outline>
</glyph>
<glyph name="onesuperior" format="2">
  <advance width="239"/>
  <unicode hex="00B9"/>
  <outline>
    <contour>
      <point x="111" y="441" type="line"/>
      <point x="143" y="441" type="line"/>
      <point x="143" y="719" type="line"/>
      <point x="106" y="719" type="line" smooth="yes"/>
      <point x="100" y="719"/>
      <point x="96" y="715"/>
      <point x="96" y="709" type="curve" smooth="yes"/>
      <point x="96" y="699" type="line" smooth="yes"/>
      <point x="96" y="694"/>
      <point x="100" y="690"/>
      <point x="106" y="690" type="curve" smooth="yes"/>
      <point x="111" y="690" type="line"/>
    </contour>
  </outline>
</glyph>
<glyph name="ordmasculine" format="2">
  <advance width="414"/>
  <unicode hex="00BA"/>
  <note>
ordmasculine
</note>
  <outline>
    <contour>
      <point x="208" y="380" type="curve" smooth="yes"/>
      <point x="317.333" y="380"/>
      <point x="374" y="447"/>
      <point x="374" y="543" type="curve" smooth="yes"/>
      <point x="374" y="637.227"/>
      <point x="312.847" y="711.689"/>
      <point x="207" y="709" type="curve" smooth="yes"/>
      <point x="100.721" y="709"/>
      <point x="40" y="636.712"/>
      <point x="40" y="543" type="curve" smooth="yes"/>
      <point x="40" y="446.366"/>
      <point x="104.052" y="380"/>
    </contour>
    <contour>
      <point x="306" y="542" type="curve"/>
      <point x="303" y="463"/>
      <point x="249" y="436"/>
      <point x="206" y="437" type="curve" smooth="yes"/>
      <point x="153" y="439"/>
      <point x="110" y="485"/>
      <point x="108" y="543" type="curve" smooth="yes"/>
      <point x="108" y="623"/>
      <point x="151" y="659"/>
      <point x="207" y="659" type="curve" smooth="yes"/>
      <point x="246.042" y="659"/>
      <point x="304.157" y="644.704"/>
    </contour>
  </outline>
</glyph>
<glyph name="onequarter" format="2">
  <advance width="580"/>
  <unicode hex="00BC"/>
  <outline>
    <contour>
      <point x="80" y="-16" type="line"/>
      <point x="132" y="-16" type="line"/>
      <point x="428" y="731" type="line"/>
      <point x="375" y="731" type="line"/>
    </contour>
    <contour>
      <point x="107" y="275" type="line"/>
      <point x="154" y="275" type="line"/>
      <point x="155" y="684" type="line"/>
      <point x="99" y="684" type="line" smooth="yes"/>
      <point x="91" y="684"/>
      <point x="85" y="678"/>
      <point x="85" y="670" type="curve" smooth="yes"/>
      <point x="85" y="656" type="line" smooth="yes"/>
      <point x="85" y="648"/>
      <point x="91" y="642"/>
      <point x="99" y="642" type="curve" smooth="yes"/>
      <point x="107" y="642" type="line"/>
    </contour>
    <contour>
      <point x="432" y="24" type="curve" smooth="yes"/>
      <point x="433" y="24" type="line" smooth="yes"/>
      <point x="470" y="24"/>
      <point x="478" y="52"/>
      <point x="478" y="65" type="curve" smooth="yes"/>
      <point x="478" y="177" type="line"/>
      <point x="506" y="177" type="line" smooth="yes"/>
      <point x="514" y="177"/>
      <point x="520" y="183"/>
      <point x="520" y="191" type="curve" smooth="yes"/>
      <point x="520" y="199"/>
      <point x="514" y="205"/>
      <point x="506" y="205" type="curve" smooth="yes"/>
      <point x="478" y="205" type="line"/>
      <point x="478" y="240" type="line" smooth="yes"/>
      <point x="478" y="248"/>
      <point x="472" y="254"/>
      <point x="464" y="254" type="curve" smooth="yes"/>
      <point x="445" y="254" type="line" smooth="yes"/>
      <point x="436" y="254"/>
      <point x="431" y="248"/>
      <point x="431" y="240" type="curve" smooth="yes"/>
      <point x="431" y="205" type="line"/>
      <point x="310" y="205" type="line"/>
      <point x="310" y="242" type="line"/>
      <point x="455" y="402" type="line" smooth="yes"/>
      <point x="468" y="417"/>
      <point x="462" y="424"/>
      <point x="456" y="430" type="curve" smooth="yes"/>
      <point x="450" y="435"/>
      <point x="441" y="435"/>
      <point x="436" y="430" type="curve" smooth="yes"/>
      <point x="310" y="291" type="line"/>
      <point x="266" y="246" type="line" smooth="yes"/>
      <point x="264" y="244"/>
      <point x="262" y="240"/>
      <point x="262" y="237" type="curve" smooth="yes"/>
      <point x="262" y="189" type="line" smooth="yes"/>
      <point x="262" y="182"/>
      <point x="269" y="177"/>
      <point x="276" y="177" type="curve" smooth="yes"/>
      <point x="431" y="177" type="line"/>
      <point x="431" y="66" type="line" smooth="yes"/>
      <point x="431" y="64"/>
      <point x="428" y="62"/>
      <point x="425" y="61" type="curve" smooth="yes"/>
      <point x="420" y="59"/>
      <point x="416" y="54"/>
      <point x="417" y="48" type="curve" smooth="yes"/>
      <point x="418" y="38" type="line" smooth="yes"/>
      <point x="419" y="30"/>
      <point x="424" y="24"/>
    </contour>
  </outline>
</glyph>
<glyph name="onehalf" format="2">
  <advance width="630"/>
  <unicode hex="00BD"/>
  <outline>
    <contour>
      <point x="76" y="-16" type="line"/>
      <point x="128" y="-16" type="line"/>
      <point x="424" y="731" type="line"/>
      <point x="371" y="731" type="line"/>
    </contour>
    <contour>
      <point x="82" y="275" type="line"/>
      <point x="132" y="275" type="line"/>
      <point x="133" y="705" type="line"/>
      <point x="74" y="705" type="line" smooth="yes"/>
      <point x="66" y="705"/>
      <point x="60" y="699"/>
      <point x="60" y="690" type="curve" smooth="yes"/>
      <point x="60" y="675" type="line" smooth="yes"/>
      <point x="60" y="667"/>
      <point x="66" y="661"/>
      <point x="74" y="661" type="curve" smooth="yes"/>
      <point x="82" y="661" type="line"/>
    </contour>
    <contour>
      <point x="525" y="24" type="line" smooth="yes"/>
      <point x="563" y="24"/>
      <point x="570" y="52"/>
      <point x="570" y="65" type="curve" smooth="yes"/>
      <point x="570" y="79" type="line"/>
      <point x="523" y="79" type="line"/>
      <point x="523" y="66" type="line" smooth="yes"/>
      <point x="523" y="58"/>
      <point x="521" y="56"/>
      <point x="515" y="56" type="curve" smooth="yes"/>
      <point x="391" y="56" type="line" smooth="yes"/>
      <point x="388" y="56"/>
      <point x="386" y="62"/>
      <point x="386" y="69" type="curve" smooth="yes"/>
      <point x="386" y="124" type="line" smooth="yes"/>
      <point x="386" y="132"/>
      <point x="387" y="136"/>
      <point x="390" y="138" type="curve"/>
      <point x="567" y="309" type="line"/>
      <point x="569" y="310"/>
      <point x="570" y="314"/>
      <point x="570" y="317" type="curve" smooth="yes"/>
      <point x="570" y="396" type="line" smooth="yes"/>
      <point x="570" y="417"/>
      <point x="553" y="434"/>
      <point x="512" y="434" type="curve" smooth="yes"/>
      <point x="390" y="434" type="line" smooth="yes"/>
      <point x="347" y="434"/>
      <point x="338" y="419"/>
      <point x="338" y="396" type="curve" smooth="yes"/>
      <point x="338" y="384" type="line"/>
      <point x="386" y="383" type="line"/>
      <point x="386" y="394" type="line" smooth="yes"/>
      <point x="386" y="401"/>
      <point x="387" y="403"/>
      <point x="391" y="403" type="curve" smooth="yes"/>
      <point x="515" y="403" type="line" smooth="yes"/>
      <point x="521" y="403"/>
      <point x="523" y="401"/>
      <point x="523" y="394" type="curve" smooth="yes"/>
      <point x="523" y="322" type="line" smooth="yes"/>
      <point x="523" y="320"/>
      <point x="521" y="314"/>
      <point x="519" y="313" type="curve"/>
      <point x="348" y="151" type="line" smooth="yes"/>
      <point x="340" y="143"/>
      <point x="339" y="131"/>
      <point x="339" y="126" type="curve" smooth="yes"/>
      <point x="339" y="64" type="line" smooth="yes"/>
      <point x="339" y="30"/>
      <point x="353" y="25"/>
      <point x="387" y="25" type="curve" smooth="yes"/>
    </contour>
  </outline>
</glyph>
<glyph name="threequarters" format="2">
  <advance width="628"/>
  <unicode hex="00BE"/>
  <outline>
    <contour>
      <point x="92" y="-16" type="line"/>
      <point x="164" y="-16" type="line"/>
      <point x="460" y="731" type="line"/>
      <point x="387" y="731" type="line"/>
      <point x="92" y="-16" type="line"/>
      <point x="92" y="-16" type="line"/>
    </contour>
    <contour>
      <point x="50" y="398" type="curve" smooth="yes"/>
      <point x="50" y="383"/>
      <point x="60" y="369"/>
      <point x="88" y="369" type="curve" smooth="yes"/>
      <point x="197" y="369" type="line" smooth="yes"/>
      <point x="226" y="369"/>
      <point x="232" y="391"/>
      <point x="232" y="400" type="curve" smooth="yes"/>
      <point x="232" y="659" type="line" smooth="yes"/>
      <point x="232" y="676"/>
      <point x="218" y="690"/>
      <point x="186" y="690" type="curve" smooth="yes"/>
      <point x="91" y="690" type="line" smooth="yes"/>
      <point x="57" y="690"/>
      <point x="50" y="678"/>
      <point x="50" y="659" type="curve" smooth="yes"/>
      <point x="50" y="653"/>
      <point x="55" y="648"/>
      <point x="61" y="648" type="curve" smooth="yes"/>
      <point x="76" y="649" type="line" smooth="yes"/>
      <point x="82" y="649"/>
      <point x="87" y="653"/>
      <point x="87" y="658" type="curve" smooth="yes"/>
      <point x="87" y="664"/>
      <point x="88" y="665"/>
      <point x="92" y="665" type="curve" smooth="yes"/>
      <point x="189" y="665" type="line" smooth="yes"/>
      <point x="193" y="665"/>
      <point x="195" y="664"/>
      <point x="195" y="658" type="curve" smooth="yes"/>
      <point x="195" y="510" type="line"/>
      <point x="82" y="510" type="line" smooth="yes"/>
      <point x="76" y="510"/>
      <point x="71" y="506"/>
      <point x="71" y="499" type="curve" smooth="yes"/>
      <point x="71" y="493"/>
      <point x="76" y="488"/>
      <point x="82" y="488" type="curve" smooth="yes"/>
      <point x="195" y="488" type="line"/>
      <point x="195" y="401" type="line" smooth="yes"/>
      <point x="195" y="395"/>
      <point x="193" y="393"/>
      <point x="189" y="393" type="curve" smooth="yes"/>
      <point x="92" y="393" type="line" smooth="yes"/>
      <point x="89" y="393"/>
      <point x="87" y="395"/>
      <point x="87" y="401" type="curve" smooth="yes"/>
      <point x="87" y="405"/>
      <point x="82" y="408"/>
      <point x="76" y="408" type="curve" smooth="yes"/>
      <point x="61" y="408" type="line" smooth="yes"/>
      <point x="55" y="408"/>
      <point x="50" y="404"/>
    </contour>
    <contour>
      <point x="308" y="178" type="line"/>
      <point x="308" y="170"/>
      <point x="314" y="165"/>
      <point x="322" y="165" type="curve" smooth="yes"/>
      <point x="485" y="165" type="line"/>
      <point x="485" y="48" type="line" smooth="yes"/>
      <point x="485" y="46"/>
      <point x="481" y="44"/>
      <point x="478" y="42" type="curve"/>
      <point x="473" y="41"/>
      <point x="470" y="35"/>
      <point x="470" y="30" type="curve" smooth="yes"/>
      <point x="471" y="19" type="line" smooth="yes"/>
      <point x="472" y="11"/>
      <point x="477" y="4"/>
      <point x="486" y="4" type="curve" smooth="yes"/>
      <point x="487" y="4" type="line" smooth="yes"/>
      <point x="526" y="4"/>
      <point x="534" y="34"/>
      <point x="534" y="47" type="curve" smooth="yes"/>
      <point x="534" y="165" type="line"/>
      <point x="564" y="165" type="line" smooth="yes"/>
      <point x="572" y="165"/>
      <point x="578" y="171"/>
      <point x="578" y="179" type="curve" smooth="yes"/>
      <point x="578" y="188"/>
      <point x="572" y="194"/>
      <point x="564" y="194" type="curve" smooth="yes"/>
      <point x="534" y="194" type="line"/>
      <point x="534" y="231" type="line" smooth="yes"/>
      <point x="534" y="240"/>
      <point x="528" y="246"/>
      <point x="519" y="246" type="curve" smooth="yes"/>
      <point x="499" y="246" type="line" smooth="yes"/>
      <point x="491" y="246"/>
      <point x="485" y="240"/>
      <point x="485" y="231" type="curve" smooth="yes"/>
      <point x="485" y="194" type="line"/>
      <point x="358" y="194" type="line"/>
      <point x="358" y="233" type="line"/>
      <point x="510" y="400" type="line" smooth="yes"/>
      <point x="524" y="416"/>
      <point x="517" y="424"/>
      <point x="511" y="430" type="curve" smooth="yes"/>
      <point x="505" y="436"/>
      <point x="496" y="436"/>
      <point x="490" y="430" type="curve" smooth="yes"/>
      <point x="358" y="285" type="line"/>
      <point x="311" y="237" type="line" smooth="yes"/>
      <point x="309" y="235"/>
      <point x="308" y="230"/>
      <point x="308" y="227" type="curve" smooth="yes"/>
      <point x="308" y="178" type="line"/>
      <point x="308" y="178" type="line"/>
    </contour>
  </outline>
</glyph>
<glyph name="questiondown" format="2">
  <advance width="548"/>
  <unicode hex="00BF"/>
  <note>
questiondown
</note>
  <outline>
    <contour>
      <point x="271" y="-209" type="curve" smooth="yes"/>
      <point x="415.297" y="-204.558"/>
      <point x="556.13" y="65.858"/>
      <point x="436.5" y="-140" type="curve"/>
      <point x="495" y="30" type="line"/>
      <point x="410" y="30" type="line"/>
      <point x="410" y="-57.972"/>
      <point x="369.317" y="-134"/>
      <point x="271" y="-134" type="curve" smooth="yes"/>
      <point x="199" y="-134"/>
      <point x="155.333" y="-90.333"/>
      <point x="150" y="-17" type="curve" smooth="yes"/>
      <point x="146.097" y="53.255"/>
      <point x="184.23" y="92.013"/>
      <point x="228.5" y="133.5" type="curve" smooth="yes"/>
      <point x="271.112" y="172.148"/>
      <point x="314.079" y="219.621"/>
      <point x="318" y="300" type="curve" smooth="yes"/>
      <point x="318" y="339" type="line"/>
      <point x="233" y="339" type="line"/>
      <point x="233" y="308" type="line" smooth="yes"/>
      <point x="233" y="240.705"/>
      <point x="188.918" y="200.235"/>
      <point x="146" y="160" type="curve" smooth="yes"/>
      <point x="100.278" y="116.968"/>
      <point x="60" y="71.468"/>
      <point x="60" y="-9" type="curve" smooth="yes"/>
      <point x="60" y="-136.636"/>
      <point x="146.106" y="-208.566"/>
    </contour>
    <contour>
      <point x="218" y="406" type="line"/>
      <point x="329" y="406" type="line"/>
      <point x="329" y="406" type="line"/>
      <point x="329" y="517" type="line"/>
      <point x="218" y="517" type="line"/>
      <point x="218" y="406" type="line"/>
      <point x="218" y="406" type="line"/>
    </contour>
  </outline>
</glyph>
<glyph name="AE" format="2">
  <advance width="881"/>
  <unicode hex="00C6"/>
  <anchor x="299" y="701" name="top"/>
  <outline>
    <contour>
      <point x="80" y="0" type="curve" smooth="yes"/>
      <point x="121" y="0" type="line" smooth="yes"/>
      <point x="132" y="0"/>
      <point x="141" y="9"/>
      <point x="141" y="20" type="curve" smooth="yes"/>
      <point x="140.577" y="260" type="line"/>
      <point x="438.545" y="260" type="line"/>
      <point x="439" y="20" type="line" smooth="yes"/>
      <point x="439" y="9"/>
      <point x="452" y="0"/>
      <point x="482" y="0" type="curve" smooth="yes"/>
      <point x="506" y="0"/>
      <point x="520" y="9"/>
      <point x="520" y="20" type="curve" smooth="yes"/>
      <point x="520" y="591" type="line" smooth="yes"/>
      <point x="520" y="598"/>
      <point x="516" y="610"/>
      <point x="501" y="613" type="curve" smooth="yes"/>
      <point x="94" y="694" type="line" smooth="yes"/>
      <point x="77" y="697"/>
      <point x="60" y="692"/>
      <point x="60" y="673" type="curve" smooth="yes"/>
      <point x="60" y="20" type="line" smooth="yes"/>
      <point x="60" y="9"/>
      <point x="69" y="0"/>
    </contour>
    <contour>
      <point x="140.492" y="308" type="line"/>
      <point x="140" y="587" type="line" smooth="yes"/>
      <point x="140" y="617"/>
      <point x="153" y="631"/>
      <point x="167" y="628" type="curve" smooth="yes"/>
      <point x="416" y="578" type="line" smooth="yes"/>
      <point x="431" y="575"/>
      <point x="438" y="563"/>
      <point x="438" y="547" type="curve" smooth="yes"/>
      <point x="438.454" y="308" type="line"/>
    </contour>
    <contour>
      <point x="410" y="260" type="line"/>
      <point x="707" y="260" type="line" smooth="yes"/>
      <point x="721" y="260"/>
      <point x="731" y="270"/>
      <point x="731" y="284" type="curve" smooth="yes"/>
      <point x="731" y="298"/>
      <point x="721" y="308"/>
      <point x="707" y="308" type="curve" smooth="yes"/>
      <point x="410" y="308" type="line"/>
    </contour>
    <contour>
      <point x="528" y="-1" type="curve" smooth="yes"/>
      <point x="795" y="-1" type="line" smooth="yes"/>
      <point x="809" y="-1"/>
      <point x="819" y="15"/>
      <point x="819" y="29" type="curve" smooth="yes"/>
      <point x="819" y="43"/>
      <point x="809" y="53"/>
      <point x="795" y="53" type="curve" smooth="yes"/>
      <point x="554" y="53" type="line" smooth="yes"/>
      <point x="527" y="53"/>
      <point x="518" y="68"/>
      <point x="518" y="123" type="curve" smooth="yes"/>
      <point x="518" y="590" type="line" smooth="yes"/>
      <point x="518" y="629"/>
      <point x="525" y="643"/>
      <point x="566" y="643" type="curve" smooth="yes"/>
      <point x="784" y="643" type="line" smooth="yes"/>
      <point x="795" y="643"/>
      <point x="806" y="645"/>
      <point x="809" y="664" type="curve" smooth="yes"/>
      <point x="812" y="684"/>
      <point x="803" y="699"/>
      <point x="791" y="699" type="curve" smooth="yes"/>
      <point x="532" y="699" type="line" smooth="yes"/>
      <point x="468" y="699"/>
      <point x="438" y="627"/>
      <point x="438" y="588" type="curve" smooth="yes"/>
      <point x="438" y="125" type="line" smooth="yes"/>
      <point x="438" y="24"/>
      <point x="487" y="-1"/>
    </contour>
  </outline>
</glyph>
<glyph name="Eth" format="2">
  <advance width="603"/>
  <unicode hex="00D0"/>
  <outline>
    <contour>
      <point x="113" y="0" type="curve" smooth="yes"/>
      <point x="149" y="0"/>
      <point x="265" y="19"/>
      <point x="504" y="60" type="curve" smooth="yes"/>
      <point x="545" y="67"/>
      <point x="553" y="78"/>
      <point x="553" y="89" type="curve" smooth="yes"/>
      <point x="553" y="591" type="line" smooth="yes"/>
      <point x="553" y="598"/>
      <point x="549" y="610"/>
      <point x="534" y="613" type="curve" smooth="yes"/>
      <point x="127" y="694" type="line" smooth="yes"/>
      <point x="110" y="697"/>
      <point x="93" y="692"/>
      <point x="93" y="673" type="curve" smooth="yes"/>
      <point x="93" y="20" type="line" smooth="yes"/>
      <point x="93" y="9"/>
      <point x="102" y="0"/>
    </contour>
    <contour>
      <point x="204" y="57" type="line"/>
      <point x="188" y="54"/>
      <point x="174" y="66"/>
      <point x="174" y="83" type="curve" smooth="yes"/>
      <point x="173" y="587" type="line" smooth="yes"/>
      <point x="173" y="617"/>
      <point x="186" y="631"/>
      <point x="200" y="628" type="curve" smooth="yes"/>
      <point x="449" y="578" type="line" smooth="yes"/>
      <point x="464" y="575"/>
      <point x="471" y="563"/>
      <point x="471" y="547" type="curve" smooth="yes"/>
      <point x="472" y="123" type="line" smooth="yes"/>
      <point x="472" y="112"/>
      <point x="464" y="102"/>
      <point x="453" y="100" type="curve" smooth="yes"/>
      <point x="204" y="57" type="line"/>
      <point x="204" y="57" type="line"/>
    </contour>
    <contour>
      <point x="50" y="402" type="line"/>
      <point x="50" y="322" type="line"/>
      <point x="261" y="322" type="line"/>
      <point x="261" y="402" type="line"/>
      <point x="50" y="402" type="line"/>
      <point x="50" y="402" type="line"/>
    </contour>
  </outline>
</glyph>
<glyph name="multiply" format="2">
  <advance width="570"/>
  <unicode hex="00D7"/>
  <outline>
    <contour>
      <point x="427" y="94" type="line"/>
      <point x="470" y="137" type="line"/>
      <point x="154" y="453" type="line"/>
      <point x="111" y="410" type="line"/>
      <point x="427" y="94" type="line"/>
      <point x="427" y="94" type="line"/>
    </contour>
    <contour>
      <point x="139" y="106" type="line"/>
      <point x="481" y="394" type="line"/>
      <point x="442" y="441" type="line"/>
      <point x="100" y="153" type="line"/>
      <point x="139" y="106" type="line"/>
      <point x="139" y="106" type="line"/>
    </contour>
  </outline>
</glyph>
<glyph name="Thorn" format="2">
  <advance width="650"/>
  <unicode hex="00DE"/>
  <outline>
    <contour>
      <point x="193" y="117" type="curve" smooth="yes"/>
      <point x="460" y="117" type="line" smooth="yes"/>
      <point x="501" y="117"/>
      <point x="550" y="142"/>
      <point x="550" y="243" type="curve" smooth="yes"/>
      <point x="550" y="448" type="line" smooth="yes"/>
      <point x="550" y="487"/>
      <point x="520" y="559"/>
      <point x="456" y="559" type="curve" smooth="yes"/>
      <point x="197" y="559" type="line" smooth="yes"/>
      <point x="185" y="559"/>
      <point x="176" y="544"/>
      <point x="179" y="524" type="curve" smooth="yes"/>
      <point x="182" y="505"/>
      <point x="193" y="503"/>
      <point x="204" y="503" type="curve" smooth="yes"/>
      <point x="383" y="506" type="line" smooth="yes"/>
      <point x="453" y="507"/>
      <point x="470" y="471"/>
      <point x="470" y="382" type="curve" smooth="yes"/>
      <point x="470" y="304" type="line" smooth="yes"/>
      <point x="470" y="205"/>
      <point x="453" y="171"/>
      <point x="393" y="171" type="curve" smooth="yes"/>
      <point x="193" y="171" type="line" smooth="yes"/>
      <point x="179" y="171"/>
      <point x="169" y="161"/>
      <point x="169" y="147" type="curve" smooth="yes"/>
      <point x="169" y="133"/>
      <point x="179" y="117"/>
    </contour>
    <component base="bar" xOffset="40"/>
  </outline>
</glyph>
<glyph name="germandbls" format="2">
  <advance width="501"/>
  <unicode hex="00DF"/>
  <outline>
    <contour>
      <point x="205" y="24" type="curve" smooth="yes"/>
      <point x="205" y="23" type="line" smooth="yes"/>
      <point x="206" y="10"/>
      <point x="216" y="0"/>
      <point x="229" y="0" type="curve" smooth="yes"/>
      <point x="400" y="0" type="line" smooth="yes"/>
      <point x="429" y="0"/>
      <point x="451" y="22"/>
      <point x="451" y="51" type="curve" smooth="yes"/>
      <point x="451" y="449" type="line" smooth="yes"/>
      <point x="451" y="478"/>
      <point x="429" y="500"/>
      <point x="400" y="500" type="curve" smooth="yes"/>
      <point x="131" y="500" type="line"/>
      <point x="131" y="685" type="line" smooth="yes"/>
      <point x="131" y="696"/>
      <point x="122" y="705"/>
      <point x="111" y="705" type="curve" smooth="yes"/>
      <point x="70" y="705" type="line" smooth="yes"/>
      <point x="59" y="705"/>
      <point x="50" y="696"/>
      <point x="50" y="685" type="curve" smooth="yes"/>
      <point x="50" y="51" type="line" smooth="yes"/>
      <point x="50" y="22"/>
      <point x="72" y="0"/>
      <point x="101" y="0" type="curve" smooth="yes"/>
      <point x="136" y="0" type="line"/>
      <point x="135" y="57" type="line"/>
      <point x="132" y="61"/>
      <point x="131" y="66"/>
      <point x="131" y="71" type="curve" smooth="yes"/>
      <point x="131" y="439" type="line" smooth="yes"/>
      <point x="131" y="445"/>
      <point x="140" y="452"/>
      <point x="151" y="452" type="curve" smooth="yes"/>
      <point x="350" y="452" type="line" smooth="yes"/>
      <point x="361" y="452"/>
      <point x="370" y="447"/>
      <point x="370" y="439" type="curve" smooth="yes"/>
      <point x="370" y="71" type="line" smooth="yes"/>
      <point x="370" y="60"/>
      <point x="361" y="48"/>
      <point x="350" y="48" type="curve" smooth="yes"/>
      <point x="230" y="48" type="line" smooth="yes"/>
      <point x="216" y="48"/>
      <point x="204" y="37"/>
    </contour>
    <contour>
      <point x="327" y="497" type="line"/>
      <point x="397" y="498" type="line"/>
      <point x="397" y="661" type="line" smooth="yes"/>
      <point x="397" y="686"/>
      <point x="378" y="705"/>
      <point x="353" y="705" type="curve" smooth="yes"/>
      <point x="94" y="705" type="line" smooth="yes"/>
      <point x="69" y="705"/>
      <point x="50" y="686"/>
      <point x="50" y="661" type="curve" smooth="yes"/>
      <point x="50" y="496" type="line"/>
      <point x="120" y="496" type="line"/>
      <point x="120" y="643" type="line" smooth="yes"/>
      <point x="120" y="654"/>
      <point x="128" y="663"/>
      <point x="138" y="663" type="curve" smooth="yes"/>
      <point x="309" y="663" type="line" smooth="yes"/>
      <point x="319" y="663"/>
      <point x="327" y="653"/>
      <point x="327" y="643" type="curve" smooth="yes"/>
      <point x="327" y="497" type="line"/>
      <point x="327" y="497" type="line"/>
    </contour>
  </outline>
</glyph>
<glyph name="eth" format="2">
  <advance width="501"/>
  <unicode hex="00F0"/>
  <outline>
    <contour>
      <point x="240" y="-32" type="curve" smooth="yes"/>
      <point x="345.123" y="-32"/>
      <point x="405.039" y="60.031"/>
      <point x="411.042" y="225.233" type="curve"/>
      <point x="439.689" y="557" type="line"/>
      <point x="510" y="557" type="line"/>
      <point x="510" y="590" type="line"/>
      <point x="442.538" y="590" type="line"/>
      <point x="451" y="688" type="line" smooth="yes"/>
      <point x="452" y="699"/>
      <point x="442" y="708"/>
      <point x="431" y="708" type="curve" smooth="yes"/>
      <point x="390" y="708" type="line" smooth="yes"/>
      <point x="379" y="708"/>
      <point x="370" y="699"/>
      <point x="370" y="688" type="curve" smooth="yes"/>
      <point x="370" y="590" type="line"/>
      <point x="286" y="590" type="line"/>
      <point x="286" y="557" type="line"/>
      <point x="370" y="557" type="line"/>
      <point x="370" y="500" type="line"/>
      <point x="369.484" y="455.133" type="line"/>
      <point x="340.446" y="503.533"/>
      <point x="296.809" y="529"/>
      <point x="240" y="529" type="curve" smooth="yes"/>
      <point x="133" y="529"/>
      <point x="95" y="442"/>
      <point x="88" y="284" type="curve" smooth="yes"/>
      <point x="79" y="82"/>
      <point x="155" y="-32"/>
    </contour>
    <contour>
      <point x="243" y="49" type="curve" smooth="yes"/>
      <point x="182" y="49"/>
      <point x="128" y="130"/>
      <point x="135" y="274" type="curve" smooth="yes"/>
      <point x="140" y="386"/>
      <point x="167" y="448"/>
      <point x="243" y="448" type="curve" smooth="yes"/>
      <point x="317" y="448"/>
      <point x="360" y="386"/>
      <point x="364" y="274" type="curve" smooth="yes"/>
      <point x="369" y="130"/>
      <point x="326" y="49"/>
    </contour>
  </outline>
</glyph>
<glyph name="divide" format="2">
  <advance width="596"/>
  <unicode hex="00F7"/>
  <outline>
    <contour>
      <point x="60" y="241" type="line"/>
      <point x="536" y="241" type="line"/>
      <point x="536" y="307" type="line"/>
      <point x="60" y="307" type="line"/>
    </contour>
  </outline>
</glyph>
<glyph name="oslash" format="2">
  <advance width="521"/>
  <unicode hex="00F8"/>
  <anchor x="261" y="504" name="top"/>
  <outline>
    <contour>
      <point x="110" y="-66" type="line"/>
      <point x="182" y="-66" type="line"/>
      <point x="478" y="681" type="line"/>
      <point x="405" y="681" type="line"/>
      <point x="110" y="-66" type="line"/>
      <point x="110" y="-66" type="line"/>
    </contour>
    <component base="o"/>
  </outline>
</glyph>
